G75*
%MOIN*%
%OFA0B0*%
%FSLAX25Y25*%
%IPPOS*%
%LPD*%
%AMOC8*
5,1,8,0,0,1.08239X$1,22.5*
%
%ADD10C,0.20800*%
%ADD11C,0.03643*%
%ADD12R,0.05682X0.06706*%
%ADD13R,0.10249X0.10249*%
%ADD14R,0.06312X0.07887*%
%ADD15R,0.05600X0.09600*%
%ADD16R,0.14973X0.09461*%
%ADD17R,0.01981X0.06706*%
%ADD18R,0.06706X0.01981*%
%ADD19OC8,0.06902*%
%ADD20C,0.06000*%
%ADD21C,0.13900*%
%ADD22R,0.04343X0.12611*%
%ADD23R,0.02375X0.06509*%
%ADD24C,0.04146*%
%ADD25R,0.07874X0.06693*%
%ADD26R,0.10630X0.06693*%
%ADD27R,0.05524X0.05524*%
%ADD28R,0.08200X0.08200*%
%ADD29C,0.08200*%
%ADD30C,0.11824*%
%ADD31R,0.12611X0.06312*%
%ADD32R,0.06312X0.12611*%
%ADD33C,0.06400*%
%ADD34OC8,0.07800*%
%ADD35C,0.01641*%
%ADD36R,0.05400X0.07100*%
%ADD37R,0.03300X0.01600*%
%ADD38C,0.01000*%
%ADD39R,0.03556X0.08674*%
%ADD40R,0.06312X0.04737*%
%ADD41OC8,0.06000*%
%ADD42C,0.05000*%
%ADD43C,0.05900*%
%ADD44C,0.03800*%
%ADD45C,0.03778*%
D10*
X0059300Y0066300D03*
X0059300Y0340300D03*
X0474300Y0340300D03*
X0474300Y0066300D03*
D11*
X0444256Y0104203D02*
X0444256Y0104897D01*
X0445744Y0104897D01*
X0445744Y0104203D01*
X0444256Y0104203D01*
X0444256Y0111203D02*
X0444256Y0111897D01*
X0445744Y0111897D01*
X0445744Y0111203D01*
X0444256Y0111203D01*
X0444256Y0121203D02*
X0444256Y0121897D01*
X0445744Y0121897D01*
X0445744Y0121203D01*
X0444256Y0121203D01*
X0444256Y0128203D02*
X0444256Y0128897D01*
X0445744Y0128897D01*
X0445744Y0128203D01*
X0444256Y0128203D01*
X0400847Y0112794D02*
X0400153Y0112794D01*
X0400847Y0112794D02*
X0400847Y0111306D01*
X0400153Y0111306D01*
X0400153Y0112794D01*
X0393847Y0112794D02*
X0393153Y0112794D01*
X0393847Y0112794D02*
X0393847Y0111306D01*
X0393153Y0111306D01*
X0393153Y0112794D01*
X0330153Y0092794D02*
X0330153Y0091306D01*
X0330153Y0092794D02*
X0330847Y0092794D01*
X0330847Y0091306D01*
X0330153Y0091306D01*
X0323153Y0091306D02*
X0323153Y0092794D01*
X0323847Y0092794D01*
X0323847Y0091306D01*
X0323153Y0091306D01*
X0269134Y0176133D02*
X0269134Y0176827D01*
X0269134Y0176133D02*
X0267646Y0176133D01*
X0267646Y0176827D01*
X0269134Y0176827D01*
X0269134Y0183133D02*
X0269134Y0183827D01*
X0269134Y0183133D02*
X0267646Y0183133D01*
X0267646Y0183827D01*
X0269134Y0183827D01*
X0243094Y0189423D02*
X0243094Y0190117D01*
X0243094Y0189423D02*
X0241606Y0189423D01*
X0241606Y0190117D01*
X0243094Y0190117D01*
X0243094Y0196423D02*
X0243094Y0197117D01*
X0243094Y0196423D02*
X0241606Y0196423D01*
X0241606Y0197117D01*
X0243094Y0197117D01*
X0268804Y0212343D02*
X0268804Y0213037D01*
X0268804Y0212343D02*
X0267316Y0212343D01*
X0267316Y0213037D01*
X0268804Y0213037D01*
X0268804Y0219343D02*
X0268804Y0220037D01*
X0268804Y0219343D02*
X0267316Y0219343D01*
X0267316Y0220037D01*
X0268804Y0220037D01*
X0295963Y0207316D02*
X0296657Y0207316D01*
X0295963Y0207316D02*
X0295963Y0208804D01*
X0296657Y0208804D01*
X0296657Y0207316D01*
X0302963Y0207316D02*
X0303657Y0207316D01*
X0302963Y0207316D02*
X0302963Y0208804D01*
X0303657Y0208804D01*
X0303657Y0207316D01*
X0330744Y0192897D02*
X0330744Y0192203D01*
X0329256Y0192203D01*
X0329256Y0192897D01*
X0330744Y0192897D01*
X0330744Y0185897D02*
X0330744Y0185203D01*
X0329256Y0185203D01*
X0329256Y0185897D01*
X0330744Y0185897D01*
X0363153Y0245306D02*
X0363847Y0245306D01*
X0363153Y0245306D02*
X0363153Y0246794D01*
X0363847Y0246794D01*
X0363847Y0245306D01*
X0370153Y0245306D02*
X0370847Y0245306D01*
X0370153Y0245306D02*
X0370153Y0246794D01*
X0370847Y0246794D01*
X0370847Y0245306D01*
X0288744Y0310203D02*
X0288744Y0310897D01*
X0288744Y0310203D02*
X0287256Y0310203D01*
X0287256Y0310897D01*
X0288744Y0310897D01*
X0288744Y0317203D02*
X0288744Y0317897D01*
X0288744Y0317203D02*
X0287256Y0317203D01*
X0287256Y0317897D01*
X0288744Y0317897D01*
X0258163Y0297724D02*
X0258163Y0296236D01*
X0258163Y0297724D02*
X0258857Y0297724D01*
X0258857Y0296236D01*
X0258163Y0296236D01*
X0251163Y0296236D02*
X0251163Y0297724D01*
X0251857Y0297724D01*
X0251857Y0296236D01*
X0251163Y0296236D01*
X0251033Y0284324D02*
X0251033Y0282836D01*
X0251033Y0284324D02*
X0251727Y0284324D01*
X0251727Y0282836D01*
X0251033Y0282836D01*
X0258033Y0282836D02*
X0258033Y0284324D01*
X0258727Y0284324D01*
X0258727Y0282836D01*
X0258033Y0282836D01*
X0258393Y0268614D02*
X0258393Y0267126D01*
X0258393Y0268614D02*
X0259087Y0268614D01*
X0259087Y0267126D01*
X0258393Y0267126D01*
X0251393Y0267126D02*
X0251393Y0268614D01*
X0252087Y0268614D01*
X0252087Y0267126D01*
X0251393Y0267126D01*
X0251243Y0251664D02*
X0251243Y0250176D01*
X0251243Y0251664D02*
X0251937Y0251664D01*
X0251937Y0250176D01*
X0251243Y0250176D01*
X0258243Y0250176D02*
X0258243Y0251664D01*
X0258937Y0251664D01*
X0258937Y0250176D01*
X0258243Y0250176D01*
X0208177Y0178784D02*
X0207483Y0178784D01*
X0208177Y0178784D02*
X0208177Y0177296D01*
X0207483Y0177296D01*
X0207483Y0178784D01*
X0201177Y0178784D02*
X0200483Y0178784D01*
X0201177Y0178784D02*
X0201177Y0177296D01*
X0200483Y0177296D01*
X0200483Y0178784D01*
X0181297Y0134044D02*
X0180603Y0134044D01*
X0181297Y0134044D02*
X0181297Y0132556D01*
X0180603Y0132556D01*
X0180603Y0134044D01*
X0190847Y0130794D02*
X0190847Y0129306D01*
X0190153Y0129306D01*
X0190153Y0130794D01*
X0190847Y0130794D01*
X0197847Y0130794D02*
X0197847Y0129306D01*
X0197153Y0129306D01*
X0197153Y0130794D01*
X0197847Y0130794D01*
X0174297Y0134044D02*
X0173603Y0134044D01*
X0174297Y0134044D02*
X0174297Y0132556D01*
X0173603Y0132556D01*
X0173603Y0134044D01*
X0160647Y0119356D02*
X0159953Y0119356D01*
X0159953Y0120844D01*
X0160647Y0120844D01*
X0160647Y0119356D01*
X0153647Y0119356D02*
X0152953Y0119356D01*
X0152953Y0120844D01*
X0153647Y0120844D01*
X0153647Y0119356D01*
D12*
X0194260Y0193050D03*
X0201740Y0193050D03*
X0201740Y0203050D03*
X0194260Y0203050D03*
X0217260Y0219050D03*
X0224740Y0219050D03*
X0224740Y0230050D03*
X0217260Y0230050D03*
D13*
X0356339Y0133050D03*
X0373661Y0133050D03*
D14*
X0190693Y0111050D03*
X0177307Y0111050D03*
D15*
X0320900Y0141850D03*
X0330000Y0141850D03*
X0339100Y0141850D03*
D16*
X0330000Y0166251D03*
D17*
X0330780Y0224554D03*
X0332748Y0224554D03*
X0334717Y0224554D03*
X0336685Y0224554D03*
X0338654Y0224554D03*
X0340622Y0224554D03*
X0328811Y0224554D03*
X0326843Y0224554D03*
X0324874Y0224554D03*
X0322906Y0224554D03*
X0320937Y0224554D03*
X0318969Y0224554D03*
X0317000Y0224554D03*
X0315031Y0224554D03*
X0313063Y0224554D03*
X0311094Y0224554D03*
X0309126Y0224554D03*
X0307157Y0224554D03*
X0305189Y0224554D03*
X0303220Y0224554D03*
X0301252Y0224554D03*
X0299283Y0224554D03*
X0297315Y0224554D03*
X0295346Y0224554D03*
X0293378Y0224554D03*
X0293378Y0287546D03*
X0295346Y0287546D03*
X0297315Y0287546D03*
X0299283Y0287546D03*
X0301252Y0287546D03*
X0303220Y0287546D03*
X0305189Y0287546D03*
X0307157Y0287546D03*
X0309126Y0287546D03*
X0311094Y0287546D03*
X0313063Y0287546D03*
X0315031Y0287546D03*
X0317000Y0287546D03*
X0318969Y0287546D03*
X0320937Y0287546D03*
X0322906Y0287546D03*
X0324874Y0287546D03*
X0326843Y0287546D03*
X0328811Y0287546D03*
X0330780Y0287546D03*
X0332748Y0287546D03*
X0334717Y0287546D03*
X0336685Y0287546D03*
X0338654Y0287546D03*
X0340622Y0287546D03*
D18*
X0348496Y0279672D03*
X0348496Y0277704D03*
X0348496Y0275735D03*
X0348496Y0273767D03*
X0348496Y0271798D03*
X0348496Y0269830D03*
X0348496Y0267861D03*
X0348496Y0265893D03*
X0348496Y0263924D03*
X0348496Y0261956D03*
X0348496Y0259987D03*
X0348496Y0258019D03*
X0348496Y0256050D03*
X0348496Y0254081D03*
X0348496Y0252113D03*
X0348496Y0250144D03*
X0348496Y0248176D03*
X0348496Y0246207D03*
X0348496Y0244239D03*
X0348496Y0242270D03*
X0348496Y0240302D03*
X0348496Y0238333D03*
X0348496Y0236365D03*
X0348496Y0234396D03*
X0348496Y0232428D03*
X0285504Y0232428D03*
X0285504Y0234396D03*
X0285504Y0236365D03*
X0285504Y0238333D03*
X0285504Y0240302D03*
X0285504Y0242270D03*
X0285504Y0244239D03*
X0285504Y0246207D03*
X0285504Y0248176D03*
X0285504Y0250144D03*
X0285504Y0252113D03*
X0285504Y0254081D03*
X0285504Y0256050D03*
X0285504Y0258019D03*
X0285504Y0259987D03*
X0285504Y0261956D03*
X0285504Y0263924D03*
X0285504Y0265893D03*
X0285504Y0267861D03*
X0285504Y0269830D03*
X0285504Y0271798D03*
X0285504Y0273767D03*
X0285504Y0275735D03*
X0285504Y0277704D03*
X0285504Y0279672D03*
D19*
X0387000Y0171050D03*
X0397000Y0171050D03*
X0397000Y0161050D03*
X0387000Y0161050D03*
X0387000Y0151050D03*
X0397000Y0151050D03*
D20*
X0447400Y0172050D02*
X0452600Y0172050D01*
X0452600Y0182050D02*
X0447400Y0182050D01*
X0447400Y0192050D02*
X0452600Y0192050D01*
X0452600Y0202050D02*
X0447400Y0202050D01*
X0447400Y0212050D02*
X0452600Y0212050D01*
X0452600Y0222050D02*
X0447400Y0222050D01*
X0447400Y0232050D02*
X0452600Y0232050D01*
X0452600Y0242050D02*
X0447400Y0242050D01*
X0447400Y0252050D02*
X0452600Y0252050D01*
X0452600Y0262050D02*
X0447400Y0262050D01*
X0447400Y0272050D02*
X0452600Y0272050D01*
X0452600Y0282050D02*
X0447400Y0282050D01*
X0447400Y0292050D02*
X0452600Y0292050D01*
X0452600Y0302050D02*
X0447400Y0302050D01*
X0447400Y0312050D02*
X0452600Y0312050D01*
X0452600Y0322050D02*
X0447400Y0322050D01*
X0447400Y0332050D02*
X0452600Y0332050D01*
X0452600Y0342050D02*
X0447400Y0342050D01*
D21*
X0299850Y0067001D03*
X0248150Y0067001D03*
D22*
X0260220Y0083584D03*
X0270063Y0083584D03*
X0277937Y0083584D03*
X0287780Y0083584D03*
D23*
X0358872Y0067498D03*
X0361431Y0067498D03*
X0363990Y0067498D03*
X0366549Y0067498D03*
X0369108Y0067498D03*
D24*
X0371470Y0065431D03*
X0356510Y0065431D03*
D25*
X0349486Y0056770D03*
X0378494Y0056770D03*
D26*
X0363990Y0056770D03*
D27*
X0392866Y0102050D03*
X0401134Y0102050D03*
X0348000Y0184916D03*
X0348000Y0193184D03*
D28*
X0148016Y0333074D03*
D29*
X0158016Y0333074D03*
X0168016Y0333074D03*
X0178016Y0333074D03*
X0188016Y0333074D03*
X0198016Y0333074D03*
X0208016Y0333074D03*
X0218016Y0333074D03*
X0228016Y0333074D03*
X0238016Y0333074D03*
X0248016Y0333074D03*
X0258016Y0333074D03*
X0268016Y0333074D03*
X0278016Y0333074D03*
X0288016Y0333074D03*
X0298016Y0333074D03*
X0098370Y0274740D03*
X0088370Y0274740D03*
X0088370Y0264740D03*
X0088370Y0254740D03*
X0098370Y0254740D03*
X0098370Y0264740D03*
X0098370Y0244740D03*
X0098370Y0234740D03*
X0088370Y0234740D03*
X0088370Y0244740D03*
X0088370Y0224740D03*
X0098370Y0224740D03*
X0098370Y0214740D03*
X0098370Y0204740D03*
X0088370Y0204740D03*
X0088370Y0214740D03*
X0088370Y0194740D03*
X0098370Y0194740D03*
X0098370Y0184740D03*
X0098370Y0174740D03*
X0088370Y0174740D03*
X0088370Y0184740D03*
X0088370Y0164740D03*
X0098370Y0164740D03*
X0098370Y0154740D03*
X0098370Y0144740D03*
X0088370Y0144740D03*
X0088370Y0154740D03*
X0088370Y0134740D03*
X0098370Y0134740D03*
X0098370Y0124740D03*
X0098370Y0114740D03*
X0088370Y0114740D03*
X0088370Y0124740D03*
X0088370Y0104740D03*
X0088370Y0094740D03*
X0098370Y0094740D03*
X0098370Y0104740D03*
X0098370Y0084740D03*
X0088370Y0084740D03*
D30*
X0126362Y0211026D03*
X0126362Y0333074D03*
X0421638Y0333074D03*
X0421638Y0211026D03*
D31*
X0341449Y0115050D03*
X0322551Y0115050D03*
D32*
X0289000Y0143601D03*
X0289000Y0162499D03*
D33*
X0227000Y0092850D02*
X0227000Y0087250D01*
X0217000Y0087250D02*
X0217000Y0092850D01*
X0207000Y0092850D02*
X0207000Y0087250D01*
X0197000Y0087250D02*
X0197000Y0092850D01*
X0187000Y0092850D02*
X0187000Y0087250D01*
X0177000Y0087250D02*
X0177000Y0092850D01*
X0167000Y0092850D02*
X0167000Y0087250D01*
X0157000Y0087250D02*
X0157000Y0092850D01*
X0423200Y0104050D02*
X0428800Y0104050D01*
X0428800Y0114050D02*
X0423200Y0114050D01*
X0423200Y0124050D02*
X0428800Y0124050D01*
X0428800Y0134050D02*
X0423200Y0134050D01*
X0423200Y0144050D02*
X0428800Y0144050D01*
X0428800Y0154050D02*
X0423200Y0154050D01*
X0423200Y0164050D02*
X0428800Y0164050D01*
X0428800Y0174050D02*
X0423200Y0174050D01*
D34*
X0154000Y0137050D03*
X0134000Y0137050D03*
X0144000Y0177050D03*
D35*
X0139194Y0119314D02*
X0139194Y0113856D01*
X0134522Y0113856D01*
X0134522Y0119314D01*
X0139194Y0119314D01*
X0139194Y0115415D02*
X0134522Y0115415D01*
X0134522Y0116974D02*
X0139194Y0116974D01*
X0139194Y0118533D02*
X0134522Y0118533D01*
X0121478Y0119314D02*
X0121478Y0113856D01*
X0116806Y0113856D01*
X0116806Y0119314D01*
X0121478Y0119314D01*
X0121478Y0115415D02*
X0116806Y0115415D01*
X0116806Y0116974D02*
X0121478Y0116974D01*
X0121478Y0118533D02*
X0116806Y0118533D01*
X0121478Y0086244D02*
X0121478Y0080786D01*
X0116806Y0080786D01*
X0116806Y0086244D01*
X0121478Y0086244D01*
X0121478Y0082345D02*
X0116806Y0082345D01*
X0116806Y0083904D02*
X0121478Y0083904D01*
X0121478Y0085463D02*
X0116806Y0085463D01*
X0130336Y0086244D02*
X0130336Y0080786D01*
X0125664Y0080786D01*
X0125664Y0086244D01*
X0130336Y0086244D01*
X0130336Y0082345D02*
X0125664Y0082345D01*
X0125664Y0083904D02*
X0130336Y0083904D01*
X0130336Y0085463D02*
X0125664Y0085463D01*
X0139194Y0086244D02*
X0139194Y0080786D01*
X0134522Y0080786D01*
X0134522Y0086244D01*
X0139194Y0086244D01*
X0139194Y0082345D02*
X0134522Y0082345D01*
X0134522Y0083904D02*
X0139194Y0083904D01*
X0139194Y0085463D02*
X0134522Y0085463D01*
D36*
X0238000Y0219050D03*
X0244000Y0219050D03*
X0244000Y0230050D03*
X0238000Y0230050D03*
D37*
X0241000Y0230050D03*
X0241000Y0219050D03*
D38*
X0236000Y0219045D02*
X0246000Y0219045D01*
X0246000Y0218047D02*
X0236000Y0218047D01*
X0236000Y0217048D02*
X0246000Y0217048D01*
X0246000Y0216050D02*
X0236000Y0216050D01*
X0236000Y0222050D01*
X0246000Y0222050D01*
X0246000Y0216050D01*
X0246000Y0220044D02*
X0236000Y0220044D01*
X0236000Y0221042D02*
X0246000Y0221042D01*
X0246000Y0222041D02*
X0236000Y0222041D01*
X0236000Y0227050D02*
X0236000Y0233050D01*
X0246000Y0233050D01*
X0246000Y0227050D01*
X0236000Y0227050D01*
X0236000Y0228032D02*
X0246000Y0228032D01*
X0246000Y0229031D02*
X0236000Y0229031D01*
X0236000Y0230029D02*
X0246000Y0230029D01*
X0246000Y0231028D02*
X0236000Y0231028D01*
X0236000Y0232026D02*
X0246000Y0232026D01*
X0246000Y0233025D02*
X0236000Y0233025D01*
D39*
X0363063Y0233050D03*
X0367000Y0233050D03*
X0370937Y0233050D03*
D40*
X0289391Y0188520D03*
X0280729Y0192260D03*
X0280729Y0184780D03*
X0264011Y0200350D03*
X0255349Y0204090D03*
X0255349Y0196610D03*
D41*
X0193680Y0160440D03*
X0188680Y0167940D03*
X0183680Y0160440D03*
D42*
X0201950Y0126600D03*
X0321200Y0129300D03*
X0319400Y0095550D03*
X0387350Y0102300D03*
X0353600Y0193200D03*
X0246950Y0253500D03*
D43*
X0375460Y0097170D03*
D44*
X0320250Y0217590D03*
X0273280Y0234200D03*
D45*
X0274020Y0240350D03*
X0263360Y0250700D03*
X0257560Y0218280D03*
X0235860Y0203510D03*
X0257710Y0190850D03*
X0249090Y0185420D03*
X0273050Y0177450D03*
X0332800Y0219050D03*
X0336800Y0219050D03*
X0334400Y0229850D03*
X0343200Y0246250D03*
X0340400Y0263450D03*
X0343200Y0270250D03*
X0343200Y0276650D03*
X0320150Y0281010D03*
X0317200Y0293050D03*
X0276400Y0300650D03*
X0264800Y0312250D03*
X0264800Y0318650D03*
X0370000Y0241450D03*
X0423080Y0232080D03*
X0356400Y0168650D03*
X0311600Y0230650D03*
X0209150Y0230100D03*
X0209150Y0223800D03*
X0206900Y0205350D03*
X0173600Y0140550D03*
M02*
