G75*
%MOIN*%
%OFA0B0*%
%FSLAX25Y25*%
%IPPOS*%
%LPD*%
%AMOC8*
5,1,8,0,0,1.08239X$1,22.5*
%
%ADD10C,0.00000*%
%ADD11C,0.00800*%
%ADD12C,0.00600*%
%ADD13C,0.01200*%
D10*
X0044300Y0048300D02*
X0044300Y0358300D01*
X0489300Y0358300D01*
X0489300Y0048300D01*
X0044300Y0048300D01*
X0049300Y0066300D02*
X0049303Y0066545D01*
X0049312Y0066791D01*
X0049327Y0067036D01*
X0049348Y0067280D01*
X0049375Y0067524D01*
X0049408Y0067767D01*
X0049447Y0068010D01*
X0049492Y0068251D01*
X0049543Y0068491D01*
X0049600Y0068730D01*
X0049662Y0068967D01*
X0049731Y0069203D01*
X0049805Y0069437D01*
X0049885Y0069669D01*
X0049970Y0069899D01*
X0050061Y0070127D01*
X0050158Y0070352D01*
X0050260Y0070576D01*
X0050368Y0070796D01*
X0050481Y0071014D01*
X0050599Y0071229D01*
X0050723Y0071441D01*
X0050851Y0071650D01*
X0050985Y0071856D01*
X0051124Y0072058D01*
X0051268Y0072257D01*
X0051417Y0072452D01*
X0051570Y0072644D01*
X0051728Y0072832D01*
X0051890Y0073016D01*
X0052058Y0073195D01*
X0052229Y0073371D01*
X0052405Y0073542D01*
X0052584Y0073710D01*
X0052768Y0073872D01*
X0052956Y0074030D01*
X0053148Y0074183D01*
X0053343Y0074332D01*
X0053542Y0074476D01*
X0053744Y0074615D01*
X0053950Y0074749D01*
X0054159Y0074877D01*
X0054371Y0075001D01*
X0054586Y0075119D01*
X0054804Y0075232D01*
X0055024Y0075340D01*
X0055248Y0075442D01*
X0055473Y0075539D01*
X0055701Y0075630D01*
X0055931Y0075715D01*
X0056163Y0075795D01*
X0056397Y0075869D01*
X0056633Y0075938D01*
X0056870Y0076000D01*
X0057109Y0076057D01*
X0057349Y0076108D01*
X0057590Y0076153D01*
X0057833Y0076192D01*
X0058076Y0076225D01*
X0058320Y0076252D01*
X0058564Y0076273D01*
X0058809Y0076288D01*
X0059055Y0076297D01*
X0059300Y0076300D01*
X0059545Y0076297D01*
X0059791Y0076288D01*
X0060036Y0076273D01*
X0060280Y0076252D01*
X0060524Y0076225D01*
X0060767Y0076192D01*
X0061010Y0076153D01*
X0061251Y0076108D01*
X0061491Y0076057D01*
X0061730Y0076000D01*
X0061967Y0075938D01*
X0062203Y0075869D01*
X0062437Y0075795D01*
X0062669Y0075715D01*
X0062899Y0075630D01*
X0063127Y0075539D01*
X0063352Y0075442D01*
X0063576Y0075340D01*
X0063796Y0075232D01*
X0064014Y0075119D01*
X0064229Y0075001D01*
X0064441Y0074877D01*
X0064650Y0074749D01*
X0064856Y0074615D01*
X0065058Y0074476D01*
X0065257Y0074332D01*
X0065452Y0074183D01*
X0065644Y0074030D01*
X0065832Y0073872D01*
X0066016Y0073710D01*
X0066195Y0073542D01*
X0066371Y0073371D01*
X0066542Y0073195D01*
X0066710Y0073016D01*
X0066872Y0072832D01*
X0067030Y0072644D01*
X0067183Y0072452D01*
X0067332Y0072257D01*
X0067476Y0072058D01*
X0067615Y0071856D01*
X0067749Y0071650D01*
X0067877Y0071441D01*
X0068001Y0071229D01*
X0068119Y0071014D01*
X0068232Y0070796D01*
X0068340Y0070576D01*
X0068442Y0070352D01*
X0068539Y0070127D01*
X0068630Y0069899D01*
X0068715Y0069669D01*
X0068795Y0069437D01*
X0068869Y0069203D01*
X0068938Y0068967D01*
X0069000Y0068730D01*
X0069057Y0068491D01*
X0069108Y0068251D01*
X0069153Y0068010D01*
X0069192Y0067767D01*
X0069225Y0067524D01*
X0069252Y0067280D01*
X0069273Y0067036D01*
X0069288Y0066791D01*
X0069297Y0066545D01*
X0069300Y0066300D01*
X0069297Y0066055D01*
X0069288Y0065809D01*
X0069273Y0065564D01*
X0069252Y0065320D01*
X0069225Y0065076D01*
X0069192Y0064833D01*
X0069153Y0064590D01*
X0069108Y0064349D01*
X0069057Y0064109D01*
X0069000Y0063870D01*
X0068938Y0063633D01*
X0068869Y0063397D01*
X0068795Y0063163D01*
X0068715Y0062931D01*
X0068630Y0062701D01*
X0068539Y0062473D01*
X0068442Y0062248D01*
X0068340Y0062024D01*
X0068232Y0061804D01*
X0068119Y0061586D01*
X0068001Y0061371D01*
X0067877Y0061159D01*
X0067749Y0060950D01*
X0067615Y0060744D01*
X0067476Y0060542D01*
X0067332Y0060343D01*
X0067183Y0060148D01*
X0067030Y0059956D01*
X0066872Y0059768D01*
X0066710Y0059584D01*
X0066542Y0059405D01*
X0066371Y0059229D01*
X0066195Y0059058D01*
X0066016Y0058890D01*
X0065832Y0058728D01*
X0065644Y0058570D01*
X0065452Y0058417D01*
X0065257Y0058268D01*
X0065058Y0058124D01*
X0064856Y0057985D01*
X0064650Y0057851D01*
X0064441Y0057723D01*
X0064229Y0057599D01*
X0064014Y0057481D01*
X0063796Y0057368D01*
X0063576Y0057260D01*
X0063352Y0057158D01*
X0063127Y0057061D01*
X0062899Y0056970D01*
X0062669Y0056885D01*
X0062437Y0056805D01*
X0062203Y0056731D01*
X0061967Y0056662D01*
X0061730Y0056600D01*
X0061491Y0056543D01*
X0061251Y0056492D01*
X0061010Y0056447D01*
X0060767Y0056408D01*
X0060524Y0056375D01*
X0060280Y0056348D01*
X0060036Y0056327D01*
X0059791Y0056312D01*
X0059545Y0056303D01*
X0059300Y0056300D01*
X0059055Y0056303D01*
X0058809Y0056312D01*
X0058564Y0056327D01*
X0058320Y0056348D01*
X0058076Y0056375D01*
X0057833Y0056408D01*
X0057590Y0056447D01*
X0057349Y0056492D01*
X0057109Y0056543D01*
X0056870Y0056600D01*
X0056633Y0056662D01*
X0056397Y0056731D01*
X0056163Y0056805D01*
X0055931Y0056885D01*
X0055701Y0056970D01*
X0055473Y0057061D01*
X0055248Y0057158D01*
X0055024Y0057260D01*
X0054804Y0057368D01*
X0054586Y0057481D01*
X0054371Y0057599D01*
X0054159Y0057723D01*
X0053950Y0057851D01*
X0053744Y0057985D01*
X0053542Y0058124D01*
X0053343Y0058268D01*
X0053148Y0058417D01*
X0052956Y0058570D01*
X0052768Y0058728D01*
X0052584Y0058890D01*
X0052405Y0059058D01*
X0052229Y0059229D01*
X0052058Y0059405D01*
X0051890Y0059584D01*
X0051728Y0059768D01*
X0051570Y0059956D01*
X0051417Y0060148D01*
X0051268Y0060343D01*
X0051124Y0060542D01*
X0050985Y0060744D01*
X0050851Y0060950D01*
X0050723Y0061159D01*
X0050599Y0061371D01*
X0050481Y0061586D01*
X0050368Y0061804D01*
X0050260Y0062024D01*
X0050158Y0062248D01*
X0050061Y0062473D01*
X0049970Y0062701D01*
X0049885Y0062931D01*
X0049805Y0063163D01*
X0049731Y0063397D01*
X0049662Y0063633D01*
X0049600Y0063870D01*
X0049543Y0064109D01*
X0049492Y0064349D01*
X0049447Y0064590D01*
X0049408Y0064833D01*
X0049375Y0065076D01*
X0049348Y0065320D01*
X0049327Y0065564D01*
X0049312Y0065809D01*
X0049303Y0066055D01*
X0049300Y0066300D01*
X0120850Y0211026D02*
X0120852Y0211174D01*
X0120858Y0211322D01*
X0120868Y0211470D01*
X0120882Y0211617D01*
X0120900Y0211764D01*
X0120921Y0211910D01*
X0120947Y0212056D01*
X0120977Y0212201D01*
X0121010Y0212345D01*
X0121048Y0212488D01*
X0121089Y0212630D01*
X0121134Y0212771D01*
X0121182Y0212911D01*
X0121235Y0213050D01*
X0121291Y0213187D01*
X0121351Y0213322D01*
X0121414Y0213456D01*
X0121481Y0213588D01*
X0121552Y0213718D01*
X0121626Y0213846D01*
X0121703Y0213972D01*
X0121784Y0214096D01*
X0121868Y0214218D01*
X0121955Y0214337D01*
X0122046Y0214454D01*
X0122140Y0214569D01*
X0122236Y0214681D01*
X0122336Y0214791D01*
X0122438Y0214897D01*
X0122544Y0215001D01*
X0122652Y0215102D01*
X0122763Y0215200D01*
X0122876Y0215296D01*
X0122992Y0215388D01*
X0123110Y0215477D01*
X0123231Y0215562D01*
X0123354Y0215645D01*
X0123479Y0215724D01*
X0123606Y0215800D01*
X0123735Y0215872D01*
X0123866Y0215941D01*
X0123999Y0216006D01*
X0124134Y0216067D01*
X0124270Y0216125D01*
X0124407Y0216180D01*
X0124546Y0216230D01*
X0124687Y0216277D01*
X0124828Y0216320D01*
X0124971Y0216360D01*
X0125115Y0216395D01*
X0125259Y0216427D01*
X0125405Y0216454D01*
X0125551Y0216478D01*
X0125698Y0216498D01*
X0125845Y0216514D01*
X0125992Y0216526D01*
X0126140Y0216534D01*
X0126288Y0216538D01*
X0126436Y0216538D01*
X0126584Y0216534D01*
X0126732Y0216526D01*
X0126879Y0216514D01*
X0127026Y0216498D01*
X0127173Y0216478D01*
X0127319Y0216454D01*
X0127465Y0216427D01*
X0127609Y0216395D01*
X0127753Y0216360D01*
X0127896Y0216320D01*
X0128037Y0216277D01*
X0128178Y0216230D01*
X0128317Y0216180D01*
X0128454Y0216125D01*
X0128590Y0216067D01*
X0128725Y0216006D01*
X0128858Y0215941D01*
X0128989Y0215872D01*
X0129118Y0215800D01*
X0129245Y0215724D01*
X0129370Y0215645D01*
X0129493Y0215562D01*
X0129614Y0215477D01*
X0129732Y0215388D01*
X0129848Y0215296D01*
X0129961Y0215200D01*
X0130072Y0215102D01*
X0130180Y0215001D01*
X0130286Y0214897D01*
X0130388Y0214791D01*
X0130488Y0214681D01*
X0130584Y0214569D01*
X0130678Y0214454D01*
X0130769Y0214337D01*
X0130856Y0214218D01*
X0130940Y0214096D01*
X0131021Y0213972D01*
X0131098Y0213846D01*
X0131172Y0213718D01*
X0131243Y0213588D01*
X0131310Y0213456D01*
X0131373Y0213322D01*
X0131433Y0213187D01*
X0131489Y0213050D01*
X0131542Y0212911D01*
X0131590Y0212771D01*
X0131635Y0212630D01*
X0131676Y0212488D01*
X0131714Y0212345D01*
X0131747Y0212201D01*
X0131777Y0212056D01*
X0131803Y0211910D01*
X0131824Y0211764D01*
X0131842Y0211617D01*
X0131856Y0211470D01*
X0131866Y0211322D01*
X0131872Y0211174D01*
X0131874Y0211026D01*
X0131872Y0210878D01*
X0131866Y0210730D01*
X0131856Y0210582D01*
X0131842Y0210435D01*
X0131824Y0210288D01*
X0131803Y0210142D01*
X0131777Y0209996D01*
X0131747Y0209851D01*
X0131714Y0209707D01*
X0131676Y0209564D01*
X0131635Y0209422D01*
X0131590Y0209281D01*
X0131542Y0209141D01*
X0131489Y0209002D01*
X0131433Y0208865D01*
X0131373Y0208730D01*
X0131310Y0208596D01*
X0131243Y0208464D01*
X0131172Y0208334D01*
X0131098Y0208206D01*
X0131021Y0208080D01*
X0130940Y0207956D01*
X0130856Y0207834D01*
X0130769Y0207715D01*
X0130678Y0207598D01*
X0130584Y0207483D01*
X0130488Y0207371D01*
X0130388Y0207261D01*
X0130286Y0207155D01*
X0130180Y0207051D01*
X0130072Y0206950D01*
X0129961Y0206852D01*
X0129848Y0206756D01*
X0129732Y0206664D01*
X0129614Y0206575D01*
X0129493Y0206490D01*
X0129370Y0206407D01*
X0129245Y0206328D01*
X0129118Y0206252D01*
X0128989Y0206180D01*
X0128858Y0206111D01*
X0128725Y0206046D01*
X0128590Y0205985D01*
X0128454Y0205927D01*
X0128317Y0205872D01*
X0128178Y0205822D01*
X0128037Y0205775D01*
X0127896Y0205732D01*
X0127753Y0205692D01*
X0127609Y0205657D01*
X0127465Y0205625D01*
X0127319Y0205598D01*
X0127173Y0205574D01*
X0127026Y0205554D01*
X0126879Y0205538D01*
X0126732Y0205526D01*
X0126584Y0205518D01*
X0126436Y0205514D01*
X0126288Y0205514D01*
X0126140Y0205518D01*
X0125992Y0205526D01*
X0125845Y0205538D01*
X0125698Y0205554D01*
X0125551Y0205574D01*
X0125405Y0205598D01*
X0125259Y0205625D01*
X0125115Y0205657D01*
X0124971Y0205692D01*
X0124828Y0205732D01*
X0124687Y0205775D01*
X0124546Y0205822D01*
X0124407Y0205872D01*
X0124270Y0205927D01*
X0124134Y0205985D01*
X0123999Y0206046D01*
X0123866Y0206111D01*
X0123735Y0206180D01*
X0123606Y0206252D01*
X0123479Y0206328D01*
X0123354Y0206407D01*
X0123231Y0206490D01*
X0123110Y0206575D01*
X0122992Y0206664D01*
X0122876Y0206756D01*
X0122763Y0206852D01*
X0122652Y0206950D01*
X0122544Y0207051D01*
X0122438Y0207155D01*
X0122336Y0207261D01*
X0122236Y0207371D01*
X0122140Y0207483D01*
X0122046Y0207598D01*
X0121955Y0207715D01*
X0121868Y0207834D01*
X0121784Y0207956D01*
X0121703Y0208080D01*
X0121626Y0208206D01*
X0121552Y0208334D01*
X0121481Y0208464D01*
X0121414Y0208596D01*
X0121351Y0208730D01*
X0121291Y0208865D01*
X0121235Y0209002D01*
X0121182Y0209141D01*
X0121134Y0209281D01*
X0121089Y0209422D01*
X0121048Y0209564D01*
X0121010Y0209707D01*
X0120977Y0209851D01*
X0120947Y0209996D01*
X0120921Y0210142D01*
X0120900Y0210288D01*
X0120882Y0210435D01*
X0120868Y0210582D01*
X0120858Y0210730D01*
X0120852Y0210878D01*
X0120850Y0211026D01*
X0120850Y0333074D02*
X0120852Y0333222D01*
X0120858Y0333370D01*
X0120868Y0333518D01*
X0120882Y0333665D01*
X0120900Y0333812D01*
X0120921Y0333958D01*
X0120947Y0334104D01*
X0120977Y0334249D01*
X0121010Y0334393D01*
X0121048Y0334536D01*
X0121089Y0334678D01*
X0121134Y0334819D01*
X0121182Y0334959D01*
X0121235Y0335098D01*
X0121291Y0335235D01*
X0121351Y0335370D01*
X0121414Y0335504D01*
X0121481Y0335636D01*
X0121552Y0335766D01*
X0121626Y0335894D01*
X0121703Y0336020D01*
X0121784Y0336144D01*
X0121868Y0336266D01*
X0121955Y0336385D01*
X0122046Y0336502D01*
X0122140Y0336617D01*
X0122236Y0336729D01*
X0122336Y0336839D01*
X0122438Y0336945D01*
X0122544Y0337049D01*
X0122652Y0337150D01*
X0122763Y0337248D01*
X0122876Y0337344D01*
X0122992Y0337436D01*
X0123110Y0337525D01*
X0123231Y0337610D01*
X0123354Y0337693D01*
X0123479Y0337772D01*
X0123606Y0337848D01*
X0123735Y0337920D01*
X0123866Y0337989D01*
X0123999Y0338054D01*
X0124134Y0338115D01*
X0124270Y0338173D01*
X0124407Y0338228D01*
X0124546Y0338278D01*
X0124687Y0338325D01*
X0124828Y0338368D01*
X0124971Y0338408D01*
X0125115Y0338443D01*
X0125259Y0338475D01*
X0125405Y0338502D01*
X0125551Y0338526D01*
X0125698Y0338546D01*
X0125845Y0338562D01*
X0125992Y0338574D01*
X0126140Y0338582D01*
X0126288Y0338586D01*
X0126436Y0338586D01*
X0126584Y0338582D01*
X0126732Y0338574D01*
X0126879Y0338562D01*
X0127026Y0338546D01*
X0127173Y0338526D01*
X0127319Y0338502D01*
X0127465Y0338475D01*
X0127609Y0338443D01*
X0127753Y0338408D01*
X0127896Y0338368D01*
X0128037Y0338325D01*
X0128178Y0338278D01*
X0128317Y0338228D01*
X0128454Y0338173D01*
X0128590Y0338115D01*
X0128725Y0338054D01*
X0128858Y0337989D01*
X0128989Y0337920D01*
X0129118Y0337848D01*
X0129245Y0337772D01*
X0129370Y0337693D01*
X0129493Y0337610D01*
X0129614Y0337525D01*
X0129732Y0337436D01*
X0129848Y0337344D01*
X0129961Y0337248D01*
X0130072Y0337150D01*
X0130180Y0337049D01*
X0130286Y0336945D01*
X0130388Y0336839D01*
X0130488Y0336729D01*
X0130584Y0336617D01*
X0130678Y0336502D01*
X0130769Y0336385D01*
X0130856Y0336266D01*
X0130940Y0336144D01*
X0131021Y0336020D01*
X0131098Y0335894D01*
X0131172Y0335766D01*
X0131243Y0335636D01*
X0131310Y0335504D01*
X0131373Y0335370D01*
X0131433Y0335235D01*
X0131489Y0335098D01*
X0131542Y0334959D01*
X0131590Y0334819D01*
X0131635Y0334678D01*
X0131676Y0334536D01*
X0131714Y0334393D01*
X0131747Y0334249D01*
X0131777Y0334104D01*
X0131803Y0333958D01*
X0131824Y0333812D01*
X0131842Y0333665D01*
X0131856Y0333518D01*
X0131866Y0333370D01*
X0131872Y0333222D01*
X0131874Y0333074D01*
X0131872Y0332926D01*
X0131866Y0332778D01*
X0131856Y0332630D01*
X0131842Y0332483D01*
X0131824Y0332336D01*
X0131803Y0332190D01*
X0131777Y0332044D01*
X0131747Y0331899D01*
X0131714Y0331755D01*
X0131676Y0331612D01*
X0131635Y0331470D01*
X0131590Y0331329D01*
X0131542Y0331189D01*
X0131489Y0331050D01*
X0131433Y0330913D01*
X0131373Y0330778D01*
X0131310Y0330644D01*
X0131243Y0330512D01*
X0131172Y0330382D01*
X0131098Y0330254D01*
X0131021Y0330128D01*
X0130940Y0330004D01*
X0130856Y0329882D01*
X0130769Y0329763D01*
X0130678Y0329646D01*
X0130584Y0329531D01*
X0130488Y0329419D01*
X0130388Y0329309D01*
X0130286Y0329203D01*
X0130180Y0329099D01*
X0130072Y0328998D01*
X0129961Y0328900D01*
X0129848Y0328804D01*
X0129732Y0328712D01*
X0129614Y0328623D01*
X0129493Y0328538D01*
X0129370Y0328455D01*
X0129245Y0328376D01*
X0129118Y0328300D01*
X0128989Y0328228D01*
X0128858Y0328159D01*
X0128725Y0328094D01*
X0128590Y0328033D01*
X0128454Y0327975D01*
X0128317Y0327920D01*
X0128178Y0327870D01*
X0128037Y0327823D01*
X0127896Y0327780D01*
X0127753Y0327740D01*
X0127609Y0327705D01*
X0127465Y0327673D01*
X0127319Y0327646D01*
X0127173Y0327622D01*
X0127026Y0327602D01*
X0126879Y0327586D01*
X0126732Y0327574D01*
X0126584Y0327566D01*
X0126436Y0327562D01*
X0126288Y0327562D01*
X0126140Y0327566D01*
X0125992Y0327574D01*
X0125845Y0327586D01*
X0125698Y0327602D01*
X0125551Y0327622D01*
X0125405Y0327646D01*
X0125259Y0327673D01*
X0125115Y0327705D01*
X0124971Y0327740D01*
X0124828Y0327780D01*
X0124687Y0327823D01*
X0124546Y0327870D01*
X0124407Y0327920D01*
X0124270Y0327975D01*
X0124134Y0328033D01*
X0123999Y0328094D01*
X0123866Y0328159D01*
X0123735Y0328228D01*
X0123606Y0328300D01*
X0123479Y0328376D01*
X0123354Y0328455D01*
X0123231Y0328538D01*
X0123110Y0328623D01*
X0122992Y0328712D01*
X0122876Y0328804D01*
X0122763Y0328900D01*
X0122652Y0328998D01*
X0122544Y0329099D01*
X0122438Y0329203D01*
X0122336Y0329309D01*
X0122236Y0329419D01*
X0122140Y0329531D01*
X0122046Y0329646D01*
X0121955Y0329763D01*
X0121868Y0329882D01*
X0121784Y0330004D01*
X0121703Y0330128D01*
X0121626Y0330254D01*
X0121552Y0330382D01*
X0121481Y0330512D01*
X0121414Y0330644D01*
X0121351Y0330778D01*
X0121291Y0330913D01*
X0121235Y0331050D01*
X0121182Y0331189D01*
X0121134Y0331329D01*
X0121089Y0331470D01*
X0121048Y0331612D01*
X0121010Y0331755D01*
X0120977Y0331899D01*
X0120947Y0332044D01*
X0120921Y0332190D01*
X0120900Y0332336D01*
X0120882Y0332483D01*
X0120868Y0332630D01*
X0120858Y0332778D01*
X0120852Y0332926D01*
X0120850Y0333074D01*
X0049300Y0340300D02*
X0049303Y0340545D01*
X0049312Y0340791D01*
X0049327Y0341036D01*
X0049348Y0341280D01*
X0049375Y0341524D01*
X0049408Y0341767D01*
X0049447Y0342010D01*
X0049492Y0342251D01*
X0049543Y0342491D01*
X0049600Y0342730D01*
X0049662Y0342967D01*
X0049731Y0343203D01*
X0049805Y0343437D01*
X0049885Y0343669D01*
X0049970Y0343899D01*
X0050061Y0344127D01*
X0050158Y0344352D01*
X0050260Y0344576D01*
X0050368Y0344796D01*
X0050481Y0345014D01*
X0050599Y0345229D01*
X0050723Y0345441D01*
X0050851Y0345650D01*
X0050985Y0345856D01*
X0051124Y0346058D01*
X0051268Y0346257D01*
X0051417Y0346452D01*
X0051570Y0346644D01*
X0051728Y0346832D01*
X0051890Y0347016D01*
X0052058Y0347195D01*
X0052229Y0347371D01*
X0052405Y0347542D01*
X0052584Y0347710D01*
X0052768Y0347872D01*
X0052956Y0348030D01*
X0053148Y0348183D01*
X0053343Y0348332D01*
X0053542Y0348476D01*
X0053744Y0348615D01*
X0053950Y0348749D01*
X0054159Y0348877D01*
X0054371Y0349001D01*
X0054586Y0349119D01*
X0054804Y0349232D01*
X0055024Y0349340D01*
X0055248Y0349442D01*
X0055473Y0349539D01*
X0055701Y0349630D01*
X0055931Y0349715D01*
X0056163Y0349795D01*
X0056397Y0349869D01*
X0056633Y0349938D01*
X0056870Y0350000D01*
X0057109Y0350057D01*
X0057349Y0350108D01*
X0057590Y0350153D01*
X0057833Y0350192D01*
X0058076Y0350225D01*
X0058320Y0350252D01*
X0058564Y0350273D01*
X0058809Y0350288D01*
X0059055Y0350297D01*
X0059300Y0350300D01*
X0059545Y0350297D01*
X0059791Y0350288D01*
X0060036Y0350273D01*
X0060280Y0350252D01*
X0060524Y0350225D01*
X0060767Y0350192D01*
X0061010Y0350153D01*
X0061251Y0350108D01*
X0061491Y0350057D01*
X0061730Y0350000D01*
X0061967Y0349938D01*
X0062203Y0349869D01*
X0062437Y0349795D01*
X0062669Y0349715D01*
X0062899Y0349630D01*
X0063127Y0349539D01*
X0063352Y0349442D01*
X0063576Y0349340D01*
X0063796Y0349232D01*
X0064014Y0349119D01*
X0064229Y0349001D01*
X0064441Y0348877D01*
X0064650Y0348749D01*
X0064856Y0348615D01*
X0065058Y0348476D01*
X0065257Y0348332D01*
X0065452Y0348183D01*
X0065644Y0348030D01*
X0065832Y0347872D01*
X0066016Y0347710D01*
X0066195Y0347542D01*
X0066371Y0347371D01*
X0066542Y0347195D01*
X0066710Y0347016D01*
X0066872Y0346832D01*
X0067030Y0346644D01*
X0067183Y0346452D01*
X0067332Y0346257D01*
X0067476Y0346058D01*
X0067615Y0345856D01*
X0067749Y0345650D01*
X0067877Y0345441D01*
X0068001Y0345229D01*
X0068119Y0345014D01*
X0068232Y0344796D01*
X0068340Y0344576D01*
X0068442Y0344352D01*
X0068539Y0344127D01*
X0068630Y0343899D01*
X0068715Y0343669D01*
X0068795Y0343437D01*
X0068869Y0343203D01*
X0068938Y0342967D01*
X0069000Y0342730D01*
X0069057Y0342491D01*
X0069108Y0342251D01*
X0069153Y0342010D01*
X0069192Y0341767D01*
X0069225Y0341524D01*
X0069252Y0341280D01*
X0069273Y0341036D01*
X0069288Y0340791D01*
X0069297Y0340545D01*
X0069300Y0340300D01*
X0069297Y0340055D01*
X0069288Y0339809D01*
X0069273Y0339564D01*
X0069252Y0339320D01*
X0069225Y0339076D01*
X0069192Y0338833D01*
X0069153Y0338590D01*
X0069108Y0338349D01*
X0069057Y0338109D01*
X0069000Y0337870D01*
X0068938Y0337633D01*
X0068869Y0337397D01*
X0068795Y0337163D01*
X0068715Y0336931D01*
X0068630Y0336701D01*
X0068539Y0336473D01*
X0068442Y0336248D01*
X0068340Y0336024D01*
X0068232Y0335804D01*
X0068119Y0335586D01*
X0068001Y0335371D01*
X0067877Y0335159D01*
X0067749Y0334950D01*
X0067615Y0334744D01*
X0067476Y0334542D01*
X0067332Y0334343D01*
X0067183Y0334148D01*
X0067030Y0333956D01*
X0066872Y0333768D01*
X0066710Y0333584D01*
X0066542Y0333405D01*
X0066371Y0333229D01*
X0066195Y0333058D01*
X0066016Y0332890D01*
X0065832Y0332728D01*
X0065644Y0332570D01*
X0065452Y0332417D01*
X0065257Y0332268D01*
X0065058Y0332124D01*
X0064856Y0331985D01*
X0064650Y0331851D01*
X0064441Y0331723D01*
X0064229Y0331599D01*
X0064014Y0331481D01*
X0063796Y0331368D01*
X0063576Y0331260D01*
X0063352Y0331158D01*
X0063127Y0331061D01*
X0062899Y0330970D01*
X0062669Y0330885D01*
X0062437Y0330805D01*
X0062203Y0330731D01*
X0061967Y0330662D01*
X0061730Y0330600D01*
X0061491Y0330543D01*
X0061251Y0330492D01*
X0061010Y0330447D01*
X0060767Y0330408D01*
X0060524Y0330375D01*
X0060280Y0330348D01*
X0060036Y0330327D01*
X0059791Y0330312D01*
X0059545Y0330303D01*
X0059300Y0330300D01*
X0059055Y0330303D01*
X0058809Y0330312D01*
X0058564Y0330327D01*
X0058320Y0330348D01*
X0058076Y0330375D01*
X0057833Y0330408D01*
X0057590Y0330447D01*
X0057349Y0330492D01*
X0057109Y0330543D01*
X0056870Y0330600D01*
X0056633Y0330662D01*
X0056397Y0330731D01*
X0056163Y0330805D01*
X0055931Y0330885D01*
X0055701Y0330970D01*
X0055473Y0331061D01*
X0055248Y0331158D01*
X0055024Y0331260D01*
X0054804Y0331368D01*
X0054586Y0331481D01*
X0054371Y0331599D01*
X0054159Y0331723D01*
X0053950Y0331851D01*
X0053744Y0331985D01*
X0053542Y0332124D01*
X0053343Y0332268D01*
X0053148Y0332417D01*
X0052956Y0332570D01*
X0052768Y0332728D01*
X0052584Y0332890D01*
X0052405Y0333058D01*
X0052229Y0333229D01*
X0052058Y0333405D01*
X0051890Y0333584D01*
X0051728Y0333768D01*
X0051570Y0333956D01*
X0051417Y0334148D01*
X0051268Y0334343D01*
X0051124Y0334542D01*
X0050985Y0334744D01*
X0050851Y0334950D01*
X0050723Y0335159D01*
X0050599Y0335371D01*
X0050481Y0335586D01*
X0050368Y0335804D01*
X0050260Y0336024D01*
X0050158Y0336248D01*
X0050061Y0336473D01*
X0049970Y0336701D01*
X0049885Y0336931D01*
X0049805Y0337163D01*
X0049731Y0337397D01*
X0049662Y0337633D01*
X0049600Y0337870D01*
X0049543Y0338109D01*
X0049492Y0338349D01*
X0049447Y0338590D01*
X0049408Y0338833D01*
X0049375Y0339076D01*
X0049348Y0339320D01*
X0049327Y0339564D01*
X0049312Y0339809D01*
X0049303Y0340055D01*
X0049300Y0340300D01*
X0416126Y0333074D02*
X0416128Y0333222D01*
X0416134Y0333370D01*
X0416144Y0333518D01*
X0416158Y0333665D01*
X0416176Y0333812D01*
X0416197Y0333958D01*
X0416223Y0334104D01*
X0416253Y0334249D01*
X0416286Y0334393D01*
X0416324Y0334536D01*
X0416365Y0334678D01*
X0416410Y0334819D01*
X0416458Y0334959D01*
X0416511Y0335098D01*
X0416567Y0335235D01*
X0416627Y0335370D01*
X0416690Y0335504D01*
X0416757Y0335636D01*
X0416828Y0335766D01*
X0416902Y0335894D01*
X0416979Y0336020D01*
X0417060Y0336144D01*
X0417144Y0336266D01*
X0417231Y0336385D01*
X0417322Y0336502D01*
X0417416Y0336617D01*
X0417512Y0336729D01*
X0417612Y0336839D01*
X0417714Y0336945D01*
X0417820Y0337049D01*
X0417928Y0337150D01*
X0418039Y0337248D01*
X0418152Y0337344D01*
X0418268Y0337436D01*
X0418386Y0337525D01*
X0418507Y0337610D01*
X0418630Y0337693D01*
X0418755Y0337772D01*
X0418882Y0337848D01*
X0419011Y0337920D01*
X0419142Y0337989D01*
X0419275Y0338054D01*
X0419410Y0338115D01*
X0419546Y0338173D01*
X0419683Y0338228D01*
X0419822Y0338278D01*
X0419963Y0338325D01*
X0420104Y0338368D01*
X0420247Y0338408D01*
X0420391Y0338443D01*
X0420535Y0338475D01*
X0420681Y0338502D01*
X0420827Y0338526D01*
X0420974Y0338546D01*
X0421121Y0338562D01*
X0421268Y0338574D01*
X0421416Y0338582D01*
X0421564Y0338586D01*
X0421712Y0338586D01*
X0421860Y0338582D01*
X0422008Y0338574D01*
X0422155Y0338562D01*
X0422302Y0338546D01*
X0422449Y0338526D01*
X0422595Y0338502D01*
X0422741Y0338475D01*
X0422885Y0338443D01*
X0423029Y0338408D01*
X0423172Y0338368D01*
X0423313Y0338325D01*
X0423454Y0338278D01*
X0423593Y0338228D01*
X0423730Y0338173D01*
X0423866Y0338115D01*
X0424001Y0338054D01*
X0424134Y0337989D01*
X0424265Y0337920D01*
X0424394Y0337848D01*
X0424521Y0337772D01*
X0424646Y0337693D01*
X0424769Y0337610D01*
X0424890Y0337525D01*
X0425008Y0337436D01*
X0425124Y0337344D01*
X0425237Y0337248D01*
X0425348Y0337150D01*
X0425456Y0337049D01*
X0425562Y0336945D01*
X0425664Y0336839D01*
X0425764Y0336729D01*
X0425860Y0336617D01*
X0425954Y0336502D01*
X0426045Y0336385D01*
X0426132Y0336266D01*
X0426216Y0336144D01*
X0426297Y0336020D01*
X0426374Y0335894D01*
X0426448Y0335766D01*
X0426519Y0335636D01*
X0426586Y0335504D01*
X0426649Y0335370D01*
X0426709Y0335235D01*
X0426765Y0335098D01*
X0426818Y0334959D01*
X0426866Y0334819D01*
X0426911Y0334678D01*
X0426952Y0334536D01*
X0426990Y0334393D01*
X0427023Y0334249D01*
X0427053Y0334104D01*
X0427079Y0333958D01*
X0427100Y0333812D01*
X0427118Y0333665D01*
X0427132Y0333518D01*
X0427142Y0333370D01*
X0427148Y0333222D01*
X0427150Y0333074D01*
X0427148Y0332926D01*
X0427142Y0332778D01*
X0427132Y0332630D01*
X0427118Y0332483D01*
X0427100Y0332336D01*
X0427079Y0332190D01*
X0427053Y0332044D01*
X0427023Y0331899D01*
X0426990Y0331755D01*
X0426952Y0331612D01*
X0426911Y0331470D01*
X0426866Y0331329D01*
X0426818Y0331189D01*
X0426765Y0331050D01*
X0426709Y0330913D01*
X0426649Y0330778D01*
X0426586Y0330644D01*
X0426519Y0330512D01*
X0426448Y0330382D01*
X0426374Y0330254D01*
X0426297Y0330128D01*
X0426216Y0330004D01*
X0426132Y0329882D01*
X0426045Y0329763D01*
X0425954Y0329646D01*
X0425860Y0329531D01*
X0425764Y0329419D01*
X0425664Y0329309D01*
X0425562Y0329203D01*
X0425456Y0329099D01*
X0425348Y0328998D01*
X0425237Y0328900D01*
X0425124Y0328804D01*
X0425008Y0328712D01*
X0424890Y0328623D01*
X0424769Y0328538D01*
X0424646Y0328455D01*
X0424521Y0328376D01*
X0424394Y0328300D01*
X0424265Y0328228D01*
X0424134Y0328159D01*
X0424001Y0328094D01*
X0423866Y0328033D01*
X0423730Y0327975D01*
X0423593Y0327920D01*
X0423454Y0327870D01*
X0423313Y0327823D01*
X0423172Y0327780D01*
X0423029Y0327740D01*
X0422885Y0327705D01*
X0422741Y0327673D01*
X0422595Y0327646D01*
X0422449Y0327622D01*
X0422302Y0327602D01*
X0422155Y0327586D01*
X0422008Y0327574D01*
X0421860Y0327566D01*
X0421712Y0327562D01*
X0421564Y0327562D01*
X0421416Y0327566D01*
X0421268Y0327574D01*
X0421121Y0327586D01*
X0420974Y0327602D01*
X0420827Y0327622D01*
X0420681Y0327646D01*
X0420535Y0327673D01*
X0420391Y0327705D01*
X0420247Y0327740D01*
X0420104Y0327780D01*
X0419963Y0327823D01*
X0419822Y0327870D01*
X0419683Y0327920D01*
X0419546Y0327975D01*
X0419410Y0328033D01*
X0419275Y0328094D01*
X0419142Y0328159D01*
X0419011Y0328228D01*
X0418882Y0328300D01*
X0418755Y0328376D01*
X0418630Y0328455D01*
X0418507Y0328538D01*
X0418386Y0328623D01*
X0418268Y0328712D01*
X0418152Y0328804D01*
X0418039Y0328900D01*
X0417928Y0328998D01*
X0417820Y0329099D01*
X0417714Y0329203D01*
X0417612Y0329309D01*
X0417512Y0329419D01*
X0417416Y0329531D01*
X0417322Y0329646D01*
X0417231Y0329763D01*
X0417144Y0329882D01*
X0417060Y0330004D01*
X0416979Y0330128D01*
X0416902Y0330254D01*
X0416828Y0330382D01*
X0416757Y0330512D01*
X0416690Y0330644D01*
X0416627Y0330778D01*
X0416567Y0330913D01*
X0416511Y0331050D01*
X0416458Y0331189D01*
X0416410Y0331329D01*
X0416365Y0331470D01*
X0416324Y0331612D01*
X0416286Y0331755D01*
X0416253Y0331899D01*
X0416223Y0332044D01*
X0416197Y0332190D01*
X0416176Y0332336D01*
X0416158Y0332483D01*
X0416144Y0332630D01*
X0416134Y0332778D01*
X0416128Y0332926D01*
X0416126Y0333074D01*
X0464300Y0340300D02*
X0464303Y0340545D01*
X0464312Y0340791D01*
X0464327Y0341036D01*
X0464348Y0341280D01*
X0464375Y0341524D01*
X0464408Y0341767D01*
X0464447Y0342010D01*
X0464492Y0342251D01*
X0464543Y0342491D01*
X0464600Y0342730D01*
X0464662Y0342967D01*
X0464731Y0343203D01*
X0464805Y0343437D01*
X0464885Y0343669D01*
X0464970Y0343899D01*
X0465061Y0344127D01*
X0465158Y0344352D01*
X0465260Y0344576D01*
X0465368Y0344796D01*
X0465481Y0345014D01*
X0465599Y0345229D01*
X0465723Y0345441D01*
X0465851Y0345650D01*
X0465985Y0345856D01*
X0466124Y0346058D01*
X0466268Y0346257D01*
X0466417Y0346452D01*
X0466570Y0346644D01*
X0466728Y0346832D01*
X0466890Y0347016D01*
X0467058Y0347195D01*
X0467229Y0347371D01*
X0467405Y0347542D01*
X0467584Y0347710D01*
X0467768Y0347872D01*
X0467956Y0348030D01*
X0468148Y0348183D01*
X0468343Y0348332D01*
X0468542Y0348476D01*
X0468744Y0348615D01*
X0468950Y0348749D01*
X0469159Y0348877D01*
X0469371Y0349001D01*
X0469586Y0349119D01*
X0469804Y0349232D01*
X0470024Y0349340D01*
X0470248Y0349442D01*
X0470473Y0349539D01*
X0470701Y0349630D01*
X0470931Y0349715D01*
X0471163Y0349795D01*
X0471397Y0349869D01*
X0471633Y0349938D01*
X0471870Y0350000D01*
X0472109Y0350057D01*
X0472349Y0350108D01*
X0472590Y0350153D01*
X0472833Y0350192D01*
X0473076Y0350225D01*
X0473320Y0350252D01*
X0473564Y0350273D01*
X0473809Y0350288D01*
X0474055Y0350297D01*
X0474300Y0350300D01*
X0474545Y0350297D01*
X0474791Y0350288D01*
X0475036Y0350273D01*
X0475280Y0350252D01*
X0475524Y0350225D01*
X0475767Y0350192D01*
X0476010Y0350153D01*
X0476251Y0350108D01*
X0476491Y0350057D01*
X0476730Y0350000D01*
X0476967Y0349938D01*
X0477203Y0349869D01*
X0477437Y0349795D01*
X0477669Y0349715D01*
X0477899Y0349630D01*
X0478127Y0349539D01*
X0478352Y0349442D01*
X0478576Y0349340D01*
X0478796Y0349232D01*
X0479014Y0349119D01*
X0479229Y0349001D01*
X0479441Y0348877D01*
X0479650Y0348749D01*
X0479856Y0348615D01*
X0480058Y0348476D01*
X0480257Y0348332D01*
X0480452Y0348183D01*
X0480644Y0348030D01*
X0480832Y0347872D01*
X0481016Y0347710D01*
X0481195Y0347542D01*
X0481371Y0347371D01*
X0481542Y0347195D01*
X0481710Y0347016D01*
X0481872Y0346832D01*
X0482030Y0346644D01*
X0482183Y0346452D01*
X0482332Y0346257D01*
X0482476Y0346058D01*
X0482615Y0345856D01*
X0482749Y0345650D01*
X0482877Y0345441D01*
X0483001Y0345229D01*
X0483119Y0345014D01*
X0483232Y0344796D01*
X0483340Y0344576D01*
X0483442Y0344352D01*
X0483539Y0344127D01*
X0483630Y0343899D01*
X0483715Y0343669D01*
X0483795Y0343437D01*
X0483869Y0343203D01*
X0483938Y0342967D01*
X0484000Y0342730D01*
X0484057Y0342491D01*
X0484108Y0342251D01*
X0484153Y0342010D01*
X0484192Y0341767D01*
X0484225Y0341524D01*
X0484252Y0341280D01*
X0484273Y0341036D01*
X0484288Y0340791D01*
X0484297Y0340545D01*
X0484300Y0340300D01*
X0484297Y0340055D01*
X0484288Y0339809D01*
X0484273Y0339564D01*
X0484252Y0339320D01*
X0484225Y0339076D01*
X0484192Y0338833D01*
X0484153Y0338590D01*
X0484108Y0338349D01*
X0484057Y0338109D01*
X0484000Y0337870D01*
X0483938Y0337633D01*
X0483869Y0337397D01*
X0483795Y0337163D01*
X0483715Y0336931D01*
X0483630Y0336701D01*
X0483539Y0336473D01*
X0483442Y0336248D01*
X0483340Y0336024D01*
X0483232Y0335804D01*
X0483119Y0335586D01*
X0483001Y0335371D01*
X0482877Y0335159D01*
X0482749Y0334950D01*
X0482615Y0334744D01*
X0482476Y0334542D01*
X0482332Y0334343D01*
X0482183Y0334148D01*
X0482030Y0333956D01*
X0481872Y0333768D01*
X0481710Y0333584D01*
X0481542Y0333405D01*
X0481371Y0333229D01*
X0481195Y0333058D01*
X0481016Y0332890D01*
X0480832Y0332728D01*
X0480644Y0332570D01*
X0480452Y0332417D01*
X0480257Y0332268D01*
X0480058Y0332124D01*
X0479856Y0331985D01*
X0479650Y0331851D01*
X0479441Y0331723D01*
X0479229Y0331599D01*
X0479014Y0331481D01*
X0478796Y0331368D01*
X0478576Y0331260D01*
X0478352Y0331158D01*
X0478127Y0331061D01*
X0477899Y0330970D01*
X0477669Y0330885D01*
X0477437Y0330805D01*
X0477203Y0330731D01*
X0476967Y0330662D01*
X0476730Y0330600D01*
X0476491Y0330543D01*
X0476251Y0330492D01*
X0476010Y0330447D01*
X0475767Y0330408D01*
X0475524Y0330375D01*
X0475280Y0330348D01*
X0475036Y0330327D01*
X0474791Y0330312D01*
X0474545Y0330303D01*
X0474300Y0330300D01*
X0474055Y0330303D01*
X0473809Y0330312D01*
X0473564Y0330327D01*
X0473320Y0330348D01*
X0473076Y0330375D01*
X0472833Y0330408D01*
X0472590Y0330447D01*
X0472349Y0330492D01*
X0472109Y0330543D01*
X0471870Y0330600D01*
X0471633Y0330662D01*
X0471397Y0330731D01*
X0471163Y0330805D01*
X0470931Y0330885D01*
X0470701Y0330970D01*
X0470473Y0331061D01*
X0470248Y0331158D01*
X0470024Y0331260D01*
X0469804Y0331368D01*
X0469586Y0331481D01*
X0469371Y0331599D01*
X0469159Y0331723D01*
X0468950Y0331851D01*
X0468744Y0331985D01*
X0468542Y0332124D01*
X0468343Y0332268D01*
X0468148Y0332417D01*
X0467956Y0332570D01*
X0467768Y0332728D01*
X0467584Y0332890D01*
X0467405Y0333058D01*
X0467229Y0333229D01*
X0467058Y0333405D01*
X0466890Y0333584D01*
X0466728Y0333768D01*
X0466570Y0333956D01*
X0466417Y0334148D01*
X0466268Y0334343D01*
X0466124Y0334542D01*
X0465985Y0334744D01*
X0465851Y0334950D01*
X0465723Y0335159D01*
X0465599Y0335371D01*
X0465481Y0335586D01*
X0465368Y0335804D01*
X0465260Y0336024D01*
X0465158Y0336248D01*
X0465061Y0336473D01*
X0464970Y0336701D01*
X0464885Y0336931D01*
X0464805Y0337163D01*
X0464731Y0337397D01*
X0464662Y0337633D01*
X0464600Y0337870D01*
X0464543Y0338109D01*
X0464492Y0338349D01*
X0464447Y0338590D01*
X0464408Y0338833D01*
X0464375Y0339076D01*
X0464348Y0339320D01*
X0464327Y0339564D01*
X0464312Y0339809D01*
X0464303Y0340055D01*
X0464300Y0340300D01*
X0416126Y0211026D02*
X0416128Y0211174D01*
X0416134Y0211322D01*
X0416144Y0211470D01*
X0416158Y0211617D01*
X0416176Y0211764D01*
X0416197Y0211910D01*
X0416223Y0212056D01*
X0416253Y0212201D01*
X0416286Y0212345D01*
X0416324Y0212488D01*
X0416365Y0212630D01*
X0416410Y0212771D01*
X0416458Y0212911D01*
X0416511Y0213050D01*
X0416567Y0213187D01*
X0416627Y0213322D01*
X0416690Y0213456D01*
X0416757Y0213588D01*
X0416828Y0213718D01*
X0416902Y0213846D01*
X0416979Y0213972D01*
X0417060Y0214096D01*
X0417144Y0214218D01*
X0417231Y0214337D01*
X0417322Y0214454D01*
X0417416Y0214569D01*
X0417512Y0214681D01*
X0417612Y0214791D01*
X0417714Y0214897D01*
X0417820Y0215001D01*
X0417928Y0215102D01*
X0418039Y0215200D01*
X0418152Y0215296D01*
X0418268Y0215388D01*
X0418386Y0215477D01*
X0418507Y0215562D01*
X0418630Y0215645D01*
X0418755Y0215724D01*
X0418882Y0215800D01*
X0419011Y0215872D01*
X0419142Y0215941D01*
X0419275Y0216006D01*
X0419410Y0216067D01*
X0419546Y0216125D01*
X0419683Y0216180D01*
X0419822Y0216230D01*
X0419963Y0216277D01*
X0420104Y0216320D01*
X0420247Y0216360D01*
X0420391Y0216395D01*
X0420535Y0216427D01*
X0420681Y0216454D01*
X0420827Y0216478D01*
X0420974Y0216498D01*
X0421121Y0216514D01*
X0421268Y0216526D01*
X0421416Y0216534D01*
X0421564Y0216538D01*
X0421712Y0216538D01*
X0421860Y0216534D01*
X0422008Y0216526D01*
X0422155Y0216514D01*
X0422302Y0216498D01*
X0422449Y0216478D01*
X0422595Y0216454D01*
X0422741Y0216427D01*
X0422885Y0216395D01*
X0423029Y0216360D01*
X0423172Y0216320D01*
X0423313Y0216277D01*
X0423454Y0216230D01*
X0423593Y0216180D01*
X0423730Y0216125D01*
X0423866Y0216067D01*
X0424001Y0216006D01*
X0424134Y0215941D01*
X0424265Y0215872D01*
X0424394Y0215800D01*
X0424521Y0215724D01*
X0424646Y0215645D01*
X0424769Y0215562D01*
X0424890Y0215477D01*
X0425008Y0215388D01*
X0425124Y0215296D01*
X0425237Y0215200D01*
X0425348Y0215102D01*
X0425456Y0215001D01*
X0425562Y0214897D01*
X0425664Y0214791D01*
X0425764Y0214681D01*
X0425860Y0214569D01*
X0425954Y0214454D01*
X0426045Y0214337D01*
X0426132Y0214218D01*
X0426216Y0214096D01*
X0426297Y0213972D01*
X0426374Y0213846D01*
X0426448Y0213718D01*
X0426519Y0213588D01*
X0426586Y0213456D01*
X0426649Y0213322D01*
X0426709Y0213187D01*
X0426765Y0213050D01*
X0426818Y0212911D01*
X0426866Y0212771D01*
X0426911Y0212630D01*
X0426952Y0212488D01*
X0426990Y0212345D01*
X0427023Y0212201D01*
X0427053Y0212056D01*
X0427079Y0211910D01*
X0427100Y0211764D01*
X0427118Y0211617D01*
X0427132Y0211470D01*
X0427142Y0211322D01*
X0427148Y0211174D01*
X0427150Y0211026D01*
X0427148Y0210878D01*
X0427142Y0210730D01*
X0427132Y0210582D01*
X0427118Y0210435D01*
X0427100Y0210288D01*
X0427079Y0210142D01*
X0427053Y0209996D01*
X0427023Y0209851D01*
X0426990Y0209707D01*
X0426952Y0209564D01*
X0426911Y0209422D01*
X0426866Y0209281D01*
X0426818Y0209141D01*
X0426765Y0209002D01*
X0426709Y0208865D01*
X0426649Y0208730D01*
X0426586Y0208596D01*
X0426519Y0208464D01*
X0426448Y0208334D01*
X0426374Y0208206D01*
X0426297Y0208080D01*
X0426216Y0207956D01*
X0426132Y0207834D01*
X0426045Y0207715D01*
X0425954Y0207598D01*
X0425860Y0207483D01*
X0425764Y0207371D01*
X0425664Y0207261D01*
X0425562Y0207155D01*
X0425456Y0207051D01*
X0425348Y0206950D01*
X0425237Y0206852D01*
X0425124Y0206756D01*
X0425008Y0206664D01*
X0424890Y0206575D01*
X0424769Y0206490D01*
X0424646Y0206407D01*
X0424521Y0206328D01*
X0424394Y0206252D01*
X0424265Y0206180D01*
X0424134Y0206111D01*
X0424001Y0206046D01*
X0423866Y0205985D01*
X0423730Y0205927D01*
X0423593Y0205872D01*
X0423454Y0205822D01*
X0423313Y0205775D01*
X0423172Y0205732D01*
X0423029Y0205692D01*
X0422885Y0205657D01*
X0422741Y0205625D01*
X0422595Y0205598D01*
X0422449Y0205574D01*
X0422302Y0205554D01*
X0422155Y0205538D01*
X0422008Y0205526D01*
X0421860Y0205518D01*
X0421712Y0205514D01*
X0421564Y0205514D01*
X0421416Y0205518D01*
X0421268Y0205526D01*
X0421121Y0205538D01*
X0420974Y0205554D01*
X0420827Y0205574D01*
X0420681Y0205598D01*
X0420535Y0205625D01*
X0420391Y0205657D01*
X0420247Y0205692D01*
X0420104Y0205732D01*
X0419963Y0205775D01*
X0419822Y0205822D01*
X0419683Y0205872D01*
X0419546Y0205927D01*
X0419410Y0205985D01*
X0419275Y0206046D01*
X0419142Y0206111D01*
X0419011Y0206180D01*
X0418882Y0206252D01*
X0418755Y0206328D01*
X0418630Y0206407D01*
X0418507Y0206490D01*
X0418386Y0206575D01*
X0418268Y0206664D01*
X0418152Y0206756D01*
X0418039Y0206852D01*
X0417928Y0206950D01*
X0417820Y0207051D01*
X0417714Y0207155D01*
X0417612Y0207261D01*
X0417512Y0207371D01*
X0417416Y0207483D01*
X0417322Y0207598D01*
X0417231Y0207715D01*
X0417144Y0207834D01*
X0417060Y0207956D01*
X0416979Y0208080D01*
X0416902Y0208206D01*
X0416828Y0208334D01*
X0416757Y0208464D01*
X0416690Y0208596D01*
X0416627Y0208730D01*
X0416567Y0208865D01*
X0416511Y0209002D01*
X0416458Y0209141D01*
X0416410Y0209281D01*
X0416365Y0209422D01*
X0416324Y0209564D01*
X0416286Y0209707D01*
X0416253Y0209851D01*
X0416223Y0209996D01*
X0416197Y0210142D01*
X0416176Y0210288D01*
X0416158Y0210435D01*
X0416144Y0210582D01*
X0416134Y0210730D01*
X0416128Y0210878D01*
X0416126Y0211026D01*
X0369797Y0065431D02*
X0369799Y0065512D01*
X0369805Y0065594D01*
X0369815Y0065675D01*
X0369829Y0065755D01*
X0369846Y0065834D01*
X0369868Y0065913D01*
X0369893Y0065990D01*
X0369922Y0066067D01*
X0369955Y0066141D01*
X0369992Y0066214D01*
X0370031Y0066285D01*
X0370075Y0066354D01*
X0370121Y0066421D01*
X0370171Y0066485D01*
X0370224Y0066547D01*
X0370280Y0066607D01*
X0370338Y0066663D01*
X0370400Y0066717D01*
X0370464Y0066768D01*
X0370530Y0066815D01*
X0370598Y0066859D01*
X0370669Y0066900D01*
X0370741Y0066937D01*
X0370816Y0066971D01*
X0370891Y0067001D01*
X0370969Y0067027D01*
X0371047Y0067050D01*
X0371126Y0067068D01*
X0371206Y0067083D01*
X0371287Y0067094D01*
X0371368Y0067101D01*
X0371450Y0067104D01*
X0371531Y0067103D01*
X0371612Y0067098D01*
X0371693Y0067089D01*
X0371774Y0067076D01*
X0371854Y0067059D01*
X0371932Y0067039D01*
X0372010Y0067014D01*
X0372087Y0066986D01*
X0372162Y0066954D01*
X0372235Y0066919D01*
X0372306Y0066880D01*
X0372376Y0066837D01*
X0372443Y0066792D01*
X0372509Y0066743D01*
X0372571Y0066691D01*
X0372631Y0066635D01*
X0372688Y0066577D01*
X0372743Y0066517D01*
X0372794Y0066453D01*
X0372842Y0066388D01*
X0372887Y0066320D01*
X0372929Y0066250D01*
X0372967Y0066178D01*
X0373002Y0066104D01*
X0373033Y0066029D01*
X0373060Y0065952D01*
X0373083Y0065874D01*
X0373103Y0065795D01*
X0373119Y0065715D01*
X0373131Y0065634D01*
X0373139Y0065553D01*
X0373143Y0065472D01*
X0373143Y0065390D01*
X0373139Y0065309D01*
X0373131Y0065228D01*
X0373119Y0065147D01*
X0373103Y0065067D01*
X0373083Y0064988D01*
X0373060Y0064910D01*
X0373033Y0064833D01*
X0373002Y0064758D01*
X0372967Y0064684D01*
X0372929Y0064612D01*
X0372887Y0064542D01*
X0372842Y0064474D01*
X0372794Y0064409D01*
X0372743Y0064345D01*
X0372688Y0064285D01*
X0372631Y0064227D01*
X0372571Y0064171D01*
X0372509Y0064119D01*
X0372443Y0064070D01*
X0372376Y0064025D01*
X0372307Y0063982D01*
X0372235Y0063943D01*
X0372162Y0063908D01*
X0372087Y0063876D01*
X0372010Y0063848D01*
X0371932Y0063823D01*
X0371854Y0063803D01*
X0371774Y0063786D01*
X0371693Y0063773D01*
X0371612Y0063764D01*
X0371531Y0063759D01*
X0371450Y0063758D01*
X0371368Y0063761D01*
X0371287Y0063768D01*
X0371206Y0063779D01*
X0371126Y0063794D01*
X0371047Y0063812D01*
X0370969Y0063835D01*
X0370891Y0063861D01*
X0370816Y0063891D01*
X0370741Y0063925D01*
X0370669Y0063962D01*
X0370598Y0064003D01*
X0370530Y0064047D01*
X0370464Y0064094D01*
X0370400Y0064145D01*
X0370338Y0064199D01*
X0370280Y0064255D01*
X0370224Y0064315D01*
X0370171Y0064377D01*
X0370121Y0064441D01*
X0370075Y0064508D01*
X0370031Y0064577D01*
X0369992Y0064648D01*
X0369955Y0064721D01*
X0369922Y0064795D01*
X0369893Y0064872D01*
X0369868Y0064949D01*
X0369846Y0065028D01*
X0369829Y0065107D01*
X0369815Y0065187D01*
X0369805Y0065268D01*
X0369799Y0065350D01*
X0369797Y0065431D01*
X0354837Y0065431D02*
X0354839Y0065512D01*
X0354845Y0065594D01*
X0354855Y0065675D01*
X0354869Y0065755D01*
X0354886Y0065834D01*
X0354908Y0065913D01*
X0354933Y0065990D01*
X0354962Y0066067D01*
X0354995Y0066141D01*
X0355032Y0066214D01*
X0355071Y0066285D01*
X0355115Y0066354D01*
X0355161Y0066421D01*
X0355211Y0066485D01*
X0355264Y0066547D01*
X0355320Y0066607D01*
X0355378Y0066663D01*
X0355440Y0066717D01*
X0355504Y0066768D01*
X0355570Y0066815D01*
X0355638Y0066859D01*
X0355709Y0066900D01*
X0355781Y0066937D01*
X0355856Y0066971D01*
X0355931Y0067001D01*
X0356009Y0067027D01*
X0356087Y0067050D01*
X0356166Y0067068D01*
X0356246Y0067083D01*
X0356327Y0067094D01*
X0356408Y0067101D01*
X0356490Y0067104D01*
X0356571Y0067103D01*
X0356652Y0067098D01*
X0356733Y0067089D01*
X0356814Y0067076D01*
X0356894Y0067059D01*
X0356972Y0067039D01*
X0357050Y0067014D01*
X0357127Y0066986D01*
X0357202Y0066954D01*
X0357275Y0066919D01*
X0357346Y0066880D01*
X0357416Y0066837D01*
X0357483Y0066792D01*
X0357549Y0066743D01*
X0357611Y0066691D01*
X0357671Y0066635D01*
X0357728Y0066577D01*
X0357783Y0066517D01*
X0357834Y0066453D01*
X0357882Y0066388D01*
X0357927Y0066320D01*
X0357969Y0066250D01*
X0358007Y0066178D01*
X0358042Y0066104D01*
X0358073Y0066029D01*
X0358100Y0065952D01*
X0358123Y0065874D01*
X0358143Y0065795D01*
X0358159Y0065715D01*
X0358171Y0065634D01*
X0358179Y0065553D01*
X0358183Y0065472D01*
X0358183Y0065390D01*
X0358179Y0065309D01*
X0358171Y0065228D01*
X0358159Y0065147D01*
X0358143Y0065067D01*
X0358123Y0064988D01*
X0358100Y0064910D01*
X0358073Y0064833D01*
X0358042Y0064758D01*
X0358007Y0064684D01*
X0357969Y0064612D01*
X0357927Y0064542D01*
X0357882Y0064474D01*
X0357834Y0064409D01*
X0357783Y0064345D01*
X0357728Y0064285D01*
X0357671Y0064227D01*
X0357611Y0064171D01*
X0357549Y0064119D01*
X0357483Y0064070D01*
X0357416Y0064025D01*
X0357347Y0063982D01*
X0357275Y0063943D01*
X0357202Y0063908D01*
X0357127Y0063876D01*
X0357050Y0063848D01*
X0356972Y0063823D01*
X0356894Y0063803D01*
X0356814Y0063786D01*
X0356733Y0063773D01*
X0356652Y0063764D01*
X0356571Y0063759D01*
X0356490Y0063758D01*
X0356408Y0063761D01*
X0356327Y0063768D01*
X0356246Y0063779D01*
X0356166Y0063794D01*
X0356087Y0063812D01*
X0356009Y0063835D01*
X0355931Y0063861D01*
X0355856Y0063891D01*
X0355781Y0063925D01*
X0355709Y0063962D01*
X0355638Y0064003D01*
X0355570Y0064047D01*
X0355504Y0064094D01*
X0355440Y0064145D01*
X0355378Y0064199D01*
X0355320Y0064255D01*
X0355264Y0064315D01*
X0355211Y0064377D01*
X0355161Y0064441D01*
X0355115Y0064508D01*
X0355071Y0064577D01*
X0355032Y0064648D01*
X0354995Y0064721D01*
X0354962Y0064795D01*
X0354933Y0064872D01*
X0354908Y0064949D01*
X0354886Y0065028D01*
X0354869Y0065107D01*
X0354855Y0065187D01*
X0354845Y0065268D01*
X0354839Y0065350D01*
X0354837Y0065431D01*
X0464300Y0066300D02*
X0464303Y0066545D01*
X0464312Y0066791D01*
X0464327Y0067036D01*
X0464348Y0067280D01*
X0464375Y0067524D01*
X0464408Y0067767D01*
X0464447Y0068010D01*
X0464492Y0068251D01*
X0464543Y0068491D01*
X0464600Y0068730D01*
X0464662Y0068967D01*
X0464731Y0069203D01*
X0464805Y0069437D01*
X0464885Y0069669D01*
X0464970Y0069899D01*
X0465061Y0070127D01*
X0465158Y0070352D01*
X0465260Y0070576D01*
X0465368Y0070796D01*
X0465481Y0071014D01*
X0465599Y0071229D01*
X0465723Y0071441D01*
X0465851Y0071650D01*
X0465985Y0071856D01*
X0466124Y0072058D01*
X0466268Y0072257D01*
X0466417Y0072452D01*
X0466570Y0072644D01*
X0466728Y0072832D01*
X0466890Y0073016D01*
X0467058Y0073195D01*
X0467229Y0073371D01*
X0467405Y0073542D01*
X0467584Y0073710D01*
X0467768Y0073872D01*
X0467956Y0074030D01*
X0468148Y0074183D01*
X0468343Y0074332D01*
X0468542Y0074476D01*
X0468744Y0074615D01*
X0468950Y0074749D01*
X0469159Y0074877D01*
X0469371Y0075001D01*
X0469586Y0075119D01*
X0469804Y0075232D01*
X0470024Y0075340D01*
X0470248Y0075442D01*
X0470473Y0075539D01*
X0470701Y0075630D01*
X0470931Y0075715D01*
X0471163Y0075795D01*
X0471397Y0075869D01*
X0471633Y0075938D01*
X0471870Y0076000D01*
X0472109Y0076057D01*
X0472349Y0076108D01*
X0472590Y0076153D01*
X0472833Y0076192D01*
X0473076Y0076225D01*
X0473320Y0076252D01*
X0473564Y0076273D01*
X0473809Y0076288D01*
X0474055Y0076297D01*
X0474300Y0076300D01*
X0474545Y0076297D01*
X0474791Y0076288D01*
X0475036Y0076273D01*
X0475280Y0076252D01*
X0475524Y0076225D01*
X0475767Y0076192D01*
X0476010Y0076153D01*
X0476251Y0076108D01*
X0476491Y0076057D01*
X0476730Y0076000D01*
X0476967Y0075938D01*
X0477203Y0075869D01*
X0477437Y0075795D01*
X0477669Y0075715D01*
X0477899Y0075630D01*
X0478127Y0075539D01*
X0478352Y0075442D01*
X0478576Y0075340D01*
X0478796Y0075232D01*
X0479014Y0075119D01*
X0479229Y0075001D01*
X0479441Y0074877D01*
X0479650Y0074749D01*
X0479856Y0074615D01*
X0480058Y0074476D01*
X0480257Y0074332D01*
X0480452Y0074183D01*
X0480644Y0074030D01*
X0480832Y0073872D01*
X0481016Y0073710D01*
X0481195Y0073542D01*
X0481371Y0073371D01*
X0481542Y0073195D01*
X0481710Y0073016D01*
X0481872Y0072832D01*
X0482030Y0072644D01*
X0482183Y0072452D01*
X0482332Y0072257D01*
X0482476Y0072058D01*
X0482615Y0071856D01*
X0482749Y0071650D01*
X0482877Y0071441D01*
X0483001Y0071229D01*
X0483119Y0071014D01*
X0483232Y0070796D01*
X0483340Y0070576D01*
X0483442Y0070352D01*
X0483539Y0070127D01*
X0483630Y0069899D01*
X0483715Y0069669D01*
X0483795Y0069437D01*
X0483869Y0069203D01*
X0483938Y0068967D01*
X0484000Y0068730D01*
X0484057Y0068491D01*
X0484108Y0068251D01*
X0484153Y0068010D01*
X0484192Y0067767D01*
X0484225Y0067524D01*
X0484252Y0067280D01*
X0484273Y0067036D01*
X0484288Y0066791D01*
X0484297Y0066545D01*
X0484300Y0066300D01*
X0484297Y0066055D01*
X0484288Y0065809D01*
X0484273Y0065564D01*
X0484252Y0065320D01*
X0484225Y0065076D01*
X0484192Y0064833D01*
X0484153Y0064590D01*
X0484108Y0064349D01*
X0484057Y0064109D01*
X0484000Y0063870D01*
X0483938Y0063633D01*
X0483869Y0063397D01*
X0483795Y0063163D01*
X0483715Y0062931D01*
X0483630Y0062701D01*
X0483539Y0062473D01*
X0483442Y0062248D01*
X0483340Y0062024D01*
X0483232Y0061804D01*
X0483119Y0061586D01*
X0483001Y0061371D01*
X0482877Y0061159D01*
X0482749Y0060950D01*
X0482615Y0060744D01*
X0482476Y0060542D01*
X0482332Y0060343D01*
X0482183Y0060148D01*
X0482030Y0059956D01*
X0481872Y0059768D01*
X0481710Y0059584D01*
X0481542Y0059405D01*
X0481371Y0059229D01*
X0481195Y0059058D01*
X0481016Y0058890D01*
X0480832Y0058728D01*
X0480644Y0058570D01*
X0480452Y0058417D01*
X0480257Y0058268D01*
X0480058Y0058124D01*
X0479856Y0057985D01*
X0479650Y0057851D01*
X0479441Y0057723D01*
X0479229Y0057599D01*
X0479014Y0057481D01*
X0478796Y0057368D01*
X0478576Y0057260D01*
X0478352Y0057158D01*
X0478127Y0057061D01*
X0477899Y0056970D01*
X0477669Y0056885D01*
X0477437Y0056805D01*
X0477203Y0056731D01*
X0476967Y0056662D01*
X0476730Y0056600D01*
X0476491Y0056543D01*
X0476251Y0056492D01*
X0476010Y0056447D01*
X0475767Y0056408D01*
X0475524Y0056375D01*
X0475280Y0056348D01*
X0475036Y0056327D01*
X0474791Y0056312D01*
X0474545Y0056303D01*
X0474300Y0056300D01*
X0474055Y0056303D01*
X0473809Y0056312D01*
X0473564Y0056327D01*
X0473320Y0056348D01*
X0473076Y0056375D01*
X0472833Y0056408D01*
X0472590Y0056447D01*
X0472349Y0056492D01*
X0472109Y0056543D01*
X0471870Y0056600D01*
X0471633Y0056662D01*
X0471397Y0056731D01*
X0471163Y0056805D01*
X0470931Y0056885D01*
X0470701Y0056970D01*
X0470473Y0057061D01*
X0470248Y0057158D01*
X0470024Y0057260D01*
X0469804Y0057368D01*
X0469586Y0057481D01*
X0469371Y0057599D01*
X0469159Y0057723D01*
X0468950Y0057851D01*
X0468744Y0057985D01*
X0468542Y0058124D01*
X0468343Y0058268D01*
X0468148Y0058417D01*
X0467956Y0058570D01*
X0467768Y0058728D01*
X0467584Y0058890D01*
X0467405Y0059058D01*
X0467229Y0059229D01*
X0467058Y0059405D01*
X0466890Y0059584D01*
X0466728Y0059768D01*
X0466570Y0059956D01*
X0466417Y0060148D01*
X0466268Y0060343D01*
X0466124Y0060542D01*
X0465985Y0060744D01*
X0465851Y0060950D01*
X0465723Y0061159D01*
X0465599Y0061371D01*
X0465481Y0061586D01*
X0465368Y0061804D01*
X0465260Y0062024D01*
X0465158Y0062248D01*
X0465061Y0062473D01*
X0464970Y0062701D01*
X0464885Y0062931D01*
X0464805Y0063163D01*
X0464731Y0063397D01*
X0464662Y0063633D01*
X0464600Y0063870D01*
X0464543Y0064109D01*
X0464492Y0064349D01*
X0464447Y0064590D01*
X0464408Y0064833D01*
X0464375Y0065076D01*
X0464348Y0065320D01*
X0464327Y0065564D01*
X0464312Y0065809D01*
X0464303Y0066055D01*
X0464300Y0066300D01*
D11*
X0215000Y0251050D02*
X0204000Y0240050D01*
X0174000Y0240050D01*
X0163000Y0251050D01*
X0163000Y0259050D01*
X0149000Y0259050D01*
X0149000Y0273050D01*
X0163000Y0273050D01*
X0163000Y0292050D01*
X0215000Y0292050D02*
X0215000Y0273050D01*
X0229000Y0273050D01*
X0229000Y0259050D01*
X0215000Y0259050D01*
X0215000Y0251050D01*
X0199480Y0232499D02*
X0184520Y0232499D01*
X0167142Y0223924D02*
X0167142Y0208176D01*
X0165567Y0208176D01*
X0158087Y0208176D02*
X0143913Y0208176D01*
X0136433Y0208176D02*
X0134858Y0208176D01*
X0134858Y0223924D01*
X0136433Y0223924D01*
X0143913Y0223924D02*
X0158087Y0223924D01*
X0165567Y0223924D02*
X0167142Y0223924D01*
X0184520Y0213601D02*
X0199480Y0213601D01*
X0187500Y0215450D02*
X0187502Y0215513D01*
X0187508Y0215575D01*
X0187518Y0215637D01*
X0187531Y0215699D01*
X0187549Y0215759D01*
X0187570Y0215818D01*
X0187595Y0215876D01*
X0187624Y0215932D01*
X0187656Y0215986D01*
X0187691Y0216038D01*
X0187729Y0216087D01*
X0187771Y0216135D01*
X0187815Y0216179D01*
X0187863Y0216221D01*
X0187912Y0216259D01*
X0187964Y0216294D01*
X0188018Y0216326D01*
X0188074Y0216355D01*
X0188132Y0216380D01*
X0188191Y0216401D01*
X0188251Y0216419D01*
X0188313Y0216432D01*
X0188375Y0216442D01*
X0188437Y0216448D01*
X0188500Y0216450D01*
X0188563Y0216448D01*
X0188625Y0216442D01*
X0188687Y0216432D01*
X0188749Y0216419D01*
X0188809Y0216401D01*
X0188868Y0216380D01*
X0188926Y0216355D01*
X0188982Y0216326D01*
X0189036Y0216294D01*
X0189088Y0216259D01*
X0189137Y0216221D01*
X0189185Y0216179D01*
X0189229Y0216135D01*
X0189271Y0216087D01*
X0189309Y0216038D01*
X0189344Y0215986D01*
X0189376Y0215932D01*
X0189405Y0215876D01*
X0189430Y0215818D01*
X0189451Y0215759D01*
X0189469Y0215699D01*
X0189482Y0215637D01*
X0189492Y0215575D01*
X0189498Y0215513D01*
X0189500Y0215450D01*
X0189498Y0215387D01*
X0189492Y0215325D01*
X0189482Y0215263D01*
X0189469Y0215201D01*
X0189451Y0215141D01*
X0189430Y0215082D01*
X0189405Y0215024D01*
X0189376Y0214968D01*
X0189344Y0214914D01*
X0189309Y0214862D01*
X0189271Y0214813D01*
X0189229Y0214765D01*
X0189185Y0214721D01*
X0189137Y0214679D01*
X0189088Y0214641D01*
X0189036Y0214606D01*
X0188982Y0214574D01*
X0188926Y0214545D01*
X0188868Y0214520D01*
X0188809Y0214499D01*
X0188749Y0214481D01*
X0188687Y0214468D01*
X0188625Y0214458D01*
X0188563Y0214452D01*
X0188500Y0214450D01*
X0188437Y0214452D01*
X0188375Y0214458D01*
X0188313Y0214468D01*
X0188251Y0214481D01*
X0188191Y0214499D01*
X0188132Y0214520D01*
X0188074Y0214545D01*
X0188018Y0214574D01*
X0187964Y0214606D01*
X0187912Y0214641D01*
X0187863Y0214679D01*
X0187815Y0214721D01*
X0187771Y0214765D01*
X0187729Y0214813D01*
X0187691Y0214862D01*
X0187656Y0214914D01*
X0187624Y0214968D01*
X0187595Y0215024D01*
X0187570Y0215082D01*
X0187549Y0215141D01*
X0187531Y0215201D01*
X0187518Y0215263D01*
X0187508Y0215325D01*
X0187502Y0215387D01*
X0187500Y0215450D01*
X0082295Y0272240D02*
X0082295Y0277240D01*
D12*
X0153499Y0229755D02*
X0153933Y0230188D01*
X0154800Y0230188D01*
X0155234Y0229755D01*
X0156446Y0229755D02*
X0156446Y0228020D01*
X0156879Y0227586D01*
X0157747Y0227586D01*
X0158180Y0228020D01*
X0158180Y0229755D01*
X0157747Y0230188D01*
X0156879Y0230188D01*
X0156446Y0229755D01*
X0157313Y0228454D02*
X0156446Y0227586D01*
X0155234Y0227586D02*
X0153499Y0229321D01*
X0153499Y0229755D01*
X0153499Y0227586D02*
X0155234Y0227586D01*
X0193800Y0222062D02*
X0196402Y0222062D01*
X0195101Y0220761D01*
X0195101Y0222496D01*
X0194234Y0219549D02*
X0193800Y0219115D01*
X0193800Y0218248D01*
X0194234Y0217814D01*
X0195969Y0217814D01*
X0196402Y0218248D01*
X0196402Y0219115D01*
X0195969Y0219549D01*
X0196402Y0216717D02*
X0196402Y0215850D01*
X0196402Y0216284D02*
X0193800Y0216284D01*
X0193800Y0216717D02*
X0193800Y0215850D01*
X0197019Y0235405D02*
X0198753Y0235405D01*
X0197019Y0237140D01*
X0197019Y0237574D01*
X0197452Y0238007D01*
X0198320Y0238007D01*
X0198753Y0237574D01*
X0199965Y0237574D02*
X0199965Y0237140D01*
X0200399Y0236706D01*
X0201700Y0236706D01*
X0201700Y0235405D02*
X0200399Y0235405D01*
X0199965Y0235839D01*
X0199965Y0236273D01*
X0200399Y0236706D01*
X0199965Y0237574D02*
X0200399Y0238007D01*
X0201700Y0238007D01*
X0201700Y0235405D01*
D13*
X0136427Y0216150D02*
X0136429Y0216221D01*
X0136435Y0216291D01*
X0136445Y0216361D01*
X0136458Y0216431D01*
X0136476Y0216499D01*
X0136497Y0216567D01*
X0136522Y0216633D01*
X0136551Y0216698D01*
X0136583Y0216761D01*
X0136619Y0216822D01*
X0136658Y0216881D01*
X0136700Y0216938D01*
X0136745Y0216992D01*
X0136794Y0217044D01*
X0136845Y0217093D01*
X0136898Y0217139D01*
X0136955Y0217182D01*
X0137013Y0217222D01*
X0137074Y0217258D01*
X0137136Y0217291D01*
X0137201Y0217321D01*
X0137266Y0217347D01*
X0137334Y0217369D01*
X0137402Y0217388D01*
X0137471Y0217402D01*
X0137541Y0217413D01*
X0137612Y0217420D01*
X0137682Y0217423D01*
X0137753Y0217422D01*
X0137824Y0217417D01*
X0137894Y0217408D01*
X0137964Y0217395D01*
X0138032Y0217379D01*
X0138100Y0217358D01*
X0138167Y0217334D01*
X0138232Y0217307D01*
X0138295Y0217275D01*
X0138357Y0217240D01*
X0138416Y0217202D01*
X0138474Y0217161D01*
X0138529Y0217116D01*
X0138581Y0217069D01*
X0138631Y0217018D01*
X0138678Y0216965D01*
X0138721Y0216910D01*
X0138762Y0216852D01*
X0138799Y0216792D01*
X0138833Y0216730D01*
X0138864Y0216666D01*
X0138891Y0216600D01*
X0138914Y0216533D01*
X0138933Y0216465D01*
X0138949Y0216396D01*
X0138961Y0216326D01*
X0138969Y0216256D01*
X0138973Y0216185D01*
X0138973Y0216115D01*
X0138969Y0216044D01*
X0138961Y0215974D01*
X0138949Y0215904D01*
X0138933Y0215835D01*
X0138914Y0215767D01*
X0138891Y0215700D01*
X0138864Y0215634D01*
X0138833Y0215570D01*
X0138799Y0215508D01*
X0138762Y0215448D01*
X0138721Y0215390D01*
X0138678Y0215335D01*
X0138631Y0215282D01*
X0138581Y0215231D01*
X0138529Y0215184D01*
X0138474Y0215139D01*
X0138416Y0215098D01*
X0138357Y0215060D01*
X0138295Y0215025D01*
X0138232Y0214993D01*
X0138167Y0214966D01*
X0138100Y0214942D01*
X0138032Y0214921D01*
X0137964Y0214905D01*
X0137894Y0214892D01*
X0137824Y0214883D01*
X0137753Y0214878D01*
X0137682Y0214877D01*
X0137612Y0214880D01*
X0137541Y0214887D01*
X0137471Y0214898D01*
X0137402Y0214912D01*
X0137334Y0214931D01*
X0137266Y0214953D01*
X0137201Y0214979D01*
X0137136Y0215009D01*
X0137074Y0215042D01*
X0137013Y0215078D01*
X0136955Y0215118D01*
X0136898Y0215161D01*
X0136845Y0215207D01*
X0136794Y0215256D01*
X0136745Y0215308D01*
X0136700Y0215362D01*
X0136658Y0215419D01*
X0136619Y0215478D01*
X0136583Y0215539D01*
X0136551Y0215602D01*
X0136522Y0215667D01*
X0136497Y0215733D01*
X0136476Y0215801D01*
X0136458Y0215869D01*
X0136445Y0215939D01*
X0136435Y0216009D01*
X0136429Y0216079D01*
X0136427Y0216150D01*
M02*
