%
M48
M72
T01C0.01378
T02C0.01400
T03C0.02600
T04C0.03200
T05C0.03346
T06C0.03400
T07C0.03740
T08C0.04000
T09C0.09100
T10C0.11024
T11C0.20000
%
T01
X173600Y140550
X249090Y185420
X257710Y190850
X273050Y177450
X235860Y203510
X257560Y218280
X274020Y240350
X263360Y250700
X311600Y230650
X332800Y219050
X336800Y219050
X334400Y229850
X343200Y246250
X340400Y263450
X343200Y270250
X343200Y276650
X320150Y281010
X317200Y293050
X276400Y300650
X264800Y312250
X264800Y318650
X370000Y241450
X423080Y232080
X356400Y168650
X206900Y205350
X209150Y223800
X209150Y230100
T02
X273280Y234200
X320250Y217590
T03
X353600Y193200
X321200Y129300
X319400Y95550
X387350Y102300
X201950Y126600
X246950Y253500
T04
X188680Y167940
X183680Y160440
X193680Y160440
X450000Y172050
X450000Y182050
X450000Y192050
X450000Y202050
X450000Y212050
X450000Y222050
X450000Y232050
X450000Y242050
X450000Y252050
X450000Y262050
X450000Y272050
X450000Y282050
X450000Y292050
X450000Y302050
X450000Y312050
X450000Y322050
X450000Y332050
X450000Y342050
T05
X426000Y174050
X426000Y164050
X426000Y154050
X426000Y144050
X426000Y134050
X426000Y124050
X426000Y114050
X426000Y104050
X371470Y65431
X356510Y65431
X227000Y90050
X217000Y90050
X207000Y90050
X197000Y90050
X187000Y90050
X177000Y90050
X167000Y90050
X157000Y90050
T06
X375460Y97170
T07
X387000Y151050
X397000Y151050
X397000Y161050
X387000Y161050
X387000Y171050
X397000Y171050
T08
X298016Y333074
X288016Y333074
X278016Y333074
X268016Y333074
X258016Y333074
X248016Y333074
X238016Y333074
X228016Y333074
X218016Y333074
X208016Y333074
X198016Y333074
X188016Y333074
X178016Y333074
X168016Y333074
X158016Y333074
X148016Y333074
X98370Y274740
X88370Y274740
X88370Y264740
X88370Y254740
X98370Y254740
X98370Y264740
X98370Y244740
X98370Y234740
X88370Y234740
X88370Y244740
X88370Y224740
X98370Y224740
X98370Y214740
X98370Y204740
X88370Y204740
X88370Y214740
X88370Y194740
X98370Y194740
X98370Y184740
X98370Y174740
X88370Y174740
X88370Y184740
X88370Y164740
X98370Y164740
X98370Y154740
X98370Y144740
X88370Y144740
X88370Y154740
X88370Y134740
X98370Y134740
X98370Y124740
X98370Y114740
X88370Y114740
X88370Y124740
X88370Y104740
X88370Y94740
X98370Y94740
X98370Y104740
X98370Y84740
X88370Y84740
X134000Y137050
X154000Y137050
X144000Y177050
T09
X248150Y67001
X299850Y67001
T10
X421638Y211026
X421638Y333074
X126362Y333074
X126362Y211026
T11
X59300Y66300
X59300Y340300
X474300Y340300
X474300Y66300
M30
