G75*
%MOIN*%
%OFA0B0*%
%FSLAX25Y25*%
%IPPOS*%
%LPD*%
%AMOC8*
5,1,8,0,0,1.08239X$1,22.5*
%
%ADD10C,0.20800*%
%ADD11OC8,0.06800*%
%ADD12C,0.06000*%
%ADD13C,0.13900*%
%ADD14C,0.04146*%
%ADD15R,0.08200X0.08200*%
%ADD16C,0.08200*%
%ADD17C,0.11824*%
%ADD18OC8,0.07800*%
%ADD19OC8,0.06000*%
%ADD20C,0.06400*%
%ADD21C,0.06800*%
%ADD22C,0.05000*%
%ADD23C,0.05900*%
%ADD24C,0.03778*%
D10*
X0299300Y0057300D03*
X0468300Y0057300D03*
X0468300Y0333300D03*
X0052300Y0333300D03*
D11*
X0260990Y0190410D03*
X0270990Y0190410D03*
X0280990Y0190410D03*
X0280990Y0180410D03*
X0270990Y0180410D03*
X0260990Y0180410D03*
D12*
X0445310Y0179820D02*
X0450510Y0179820D01*
X0450510Y0189820D02*
X0445310Y0189820D01*
X0445310Y0199820D02*
X0450510Y0199820D01*
X0450510Y0209820D02*
X0445310Y0209820D01*
X0445310Y0219820D02*
X0450510Y0219820D01*
X0450510Y0229820D02*
X0445310Y0229820D01*
X0445310Y0239820D02*
X0450510Y0239820D01*
X0450510Y0249820D02*
X0445310Y0249820D01*
X0445310Y0169820D02*
X0450510Y0169820D01*
X0450510Y0159820D02*
X0445310Y0159820D01*
X0445310Y0149820D02*
X0450510Y0149820D01*
X0450510Y0139820D02*
X0445310Y0139820D01*
X0445310Y0129820D02*
X0450510Y0129820D01*
X0450510Y0119820D02*
X0445310Y0119820D01*
X0445310Y0109820D02*
X0450510Y0109820D01*
X0450510Y0099820D02*
X0445310Y0099820D01*
X0445310Y0089820D02*
X0450510Y0089820D01*
X0450510Y0079820D02*
X0445310Y0079820D01*
D13*
X0377150Y0063111D03*
X0325450Y0063111D03*
D14*
X0123780Y0059961D03*
X0108820Y0059961D03*
D15*
X0135316Y0332324D03*
D16*
X0061950Y0067220D03*
X0061950Y0077220D03*
X0071950Y0077220D03*
X0071950Y0067220D03*
X0071950Y0087220D03*
X0061950Y0087220D03*
X0061950Y0097220D03*
X0061950Y0107220D03*
X0071950Y0107220D03*
X0071950Y0097220D03*
X0071950Y0117220D03*
X0071950Y0127220D03*
X0061950Y0127220D03*
X0061950Y0117220D03*
X0061950Y0137220D03*
X0061950Y0147220D03*
X0071950Y0147220D03*
X0071950Y0137220D03*
X0071950Y0157220D03*
X0061950Y0157220D03*
X0061950Y0167220D03*
X0061950Y0177220D03*
X0071950Y0177220D03*
X0071950Y0167220D03*
X0071950Y0187220D03*
X0071950Y0197220D03*
X0061950Y0197220D03*
X0061950Y0187220D03*
X0061950Y0207220D03*
X0071950Y0207220D03*
X0071950Y0217220D03*
X0071950Y0227220D03*
X0061950Y0227220D03*
X0061950Y0217220D03*
X0061950Y0237220D03*
X0061950Y0247220D03*
X0071950Y0247220D03*
X0071950Y0237220D03*
X0071950Y0257220D03*
X0061950Y0257220D03*
X0145316Y0332324D03*
X0155316Y0332324D03*
X0165316Y0332324D03*
X0175316Y0332324D03*
X0185316Y0332324D03*
X0195316Y0332324D03*
X0205316Y0332324D03*
X0215316Y0332324D03*
X0225316Y0332324D03*
X0235316Y0332324D03*
X0245316Y0332324D03*
X0255316Y0332324D03*
X0265316Y0332324D03*
X0275316Y0332324D03*
X0285316Y0332324D03*
D17*
X0408938Y0332324D03*
X0408938Y0210276D03*
X0113662Y0210276D03*
X0113662Y0332324D03*
D18*
X0161300Y0186300D03*
X0151300Y0146300D03*
X0171300Y0146300D03*
D19*
X0214930Y0183300D03*
X0219930Y0190800D03*
X0224930Y0183300D03*
D20*
X0445680Y0268780D02*
X0451280Y0268780D01*
X0451280Y0278780D02*
X0445680Y0278780D01*
X0445680Y0288780D02*
X0451280Y0288780D01*
X0451280Y0298780D02*
X0445680Y0298780D01*
X0445680Y0308780D02*
X0451280Y0308780D01*
X0451280Y0318780D02*
X0445680Y0318780D01*
X0445680Y0328780D02*
X0451280Y0328780D01*
X0451280Y0338780D02*
X0445680Y0338780D01*
D21*
X0241300Y0064300D02*
X0241300Y0058300D01*
X0231300Y0058300D02*
X0231300Y0064300D01*
X0221300Y0064300D02*
X0221300Y0058300D01*
D22*
X0295900Y0170500D03*
X0257510Y0202810D03*
X0239950Y0185240D03*
X0209670Y0231790D03*
X0190350Y0251460D03*
X0286280Y0252270D03*
X0303560Y0252170D03*
X0285900Y0239700D03*
X0378300Y0248100D03*
X0391500Y0162900D03*
D23*
X0279830Y0202930D03*
X0291639Y0288959D03*
X0305690Y0309990D03*
X0125720Y0069450D03*
D24*
X0175050Y0207070D03*
X0180440Y0216110D03*
X0185900Y0210900D03*
X0190560Y0215860D03*
X0175160Y0223660D03*
X0158320Y0234520D03*
X0186770Y0242500D03*
X0216910Y0223970D03*
X0271130Y0227140D03*
X0314760Y0241730D03*
X0338300Y0237700D03*
X0343500Y0242900D03*
X0329120Y0263630D03*
X0314300Y0266900D03*
X0307500Y0279700D03*
X0339900Y0279720D03*
X0362280Y0284790D03*
X0320970Y0308630D03*
X0313850Y0315750D03*
X0270700Y0291700D03*
X0261840Y0282960D03*
X0244700Y0279700D03*
X0270920Y0262790D03*
X0260300Y0306100D03*
X0424520Y0191730D03*
X0439500Y0293300D03*
M02*
