G75*
%MOIN*%
%OFA0B0*%
%FSLAX25Y25*%
%IPPOS*%
%LPD*%
%AMOC8*
5,1,8,0,0,1.08239X$1,22.5*
%
%ADD10C,0.00000*%
%ADD11C,0.00400*%
%ADD12C,0.01200*%
%ADD13C,0.00600*%
%ADD14C,0.00800*%
%ADD15R,0.02400X0.06200*%
%ADD16C,0.01000*%
%ADD17C,0.00500*%
%ADD18C,0.00700*%
%ADD19R,0.00591X0.01181*%
%ADD20R,0.01181X0.01181*%
%ADD21R,0.01181X0.00591*%
%ADD22C,0.00300*%
%ADD23C,0.00200*%
%ADD24C,0.00866*%
%ADD25C,0.00100*%
D10*
X0044300Y0048300D02*
X0044300Y0358300D01*
X0489300Y0358300D01*
X0489300Y0048300D01*
X0044300Y0048300D01*
X0049300Y0066300D02*
X0049303Y0066545D01*
X0049312Y0066791D01*
X0049327Y0067036D01*
X0049348Y0067280D01*
X0049375Y0067524D01*
X0049408Y0067767D01*
X0049447Y0068010D01*
X0049492Y0068251D01*
X0049543Y0068491D01*
X0049600Y0068730D01*
X0049662Y0068967D01*
X0049731Y0069203D01*
X0049805Y0069437D01*
X0049885Y0069669D01*
X0049970Y0069899D01*
X0050061Y0070127D01*
X0050158Y0070352D01*
X0050260Y0070576D01*
X0050368Y0070796D01*
X0050481Y0071014D01*
X0050599Y0071229D01*
X0050723Y0071441D01*
X0050851Y0071650D01*
X0050985Y0071856D01*
X0051124Y0072058D01*
X0051268Y0072257D01*
X0051417Y0072452D01*
X0051570Y0072644D01*
X0051728Y0072832D01*
X0051890Y0073016D01*
X0052058Y0073195D01*
X0052229Y0073371D01*
X0052405Y0073542D01*
X0052584Y0073710D01*
X0052768Y0073872D01*
X0052956Y0074030D01*
X0053148Y0074183D01*
X0053343Y0074332D01*
X0053542Y0074476D01*
X0053744Y0074615D01*
X0053950Y0074749D01*
X0054159Y0074877D01*
X0054371Y0075001D01*
X0054586Y0075119D01*
X0054804Y0075232D01*
X0055024Y0075340D01*
X0055248Y0075442D01*
X0055473Y0075539D01*
X0055701Y0075630D01*
X0055931Y0075715D01*
X0056163Y0075795D01*
X0056397Y0075869D01*
X0056633Y0075938D01*
X0056870Y0076000D01*
X0057109Y0076057D01*
X0057349Y0076108D01*
X0057590Y0076153D01*
X0057833Y0076192D01*
X0058076Y0076225D01*
X0058320Y0076252D01*
X0058564Y0076273D01*
X0058809Y0076288D01*
X0059055Y0076297D01*
X0059300Y0076300D01*
X0059545Y0076297D01*
X0059791Y0076288D01*
X0060036Y0076273D01*
X0060280Y0076252D01*
X0060524Y0076225D01*
X0060767Y0076192D01*
X0061010Y0076153D01*
X0061251Y0076108D01*
X0061491Y0076057D01*
X0061730Y0076000D01*
X0061967Y0075938D01*
X0062203Y0075869D01*
X0062437Y0075795D01*
X0062669Y0075715D01*
X0062899Y0075630D01*
X0063127Y0075539D01*
X0063352Y0075442D01*
X0063576Y0075340D01*
X0063796Y0075232D01*
X0064014Y0075119D01*
X0064229Y0075001D01*
X0064441Y0074877D01*
X0064650Y0074749D01*
X0064856Y0074615D01*
X0065058Y0074476D01*
X0065257Y0074332D01*
X0065452Y0074183D01*
X0065644Y0074030D01*
X0065832Y0073872D01*
X0066016Y0073710D01*
X0066195Y0073542D01*
X0066371Y0073371D01*
X0066542Y0073195D01*
X0066710Y0073016D01*
X0066872Y0072832D01*
X0067030Y0072644D01*
X0067183Y0072452D01*
X0067332Y0072257D01*
X0067476Y0072058D01*
X0067615Y0071856D01*
X0067749Y0071650D01*
X0067877Y0071441D01*
X0068001Y0071229D01*
X0068119Y0071014D01*
X0068232Y0070796D01*
X0068340Y0070576D01*
X0068442Y0070352D01*
X0068539Y0070127D01*
X0068630Y0069899D01*
X0068715Y0069669D01*
X0068795Y0069437D01*
X0068869Y0069203D01*
X0068938Y0068967D01*
X0069000Y0068730D01*
X0069057Y0068491D01*
X0069108Y0068251D01*
X0069153Y0068010D01*
X0069192Y0067767D01*
X0069225Y0067524D01*
X0069252Y0067280D01*
X0069273Y0067036D01*
X0069288Y0066791D01*
X0069297Y0066545D01*
X0069300Y0066300D01*
X0069297Y0066055D01*
X0069288Y0065809D01*
X0069273Y0065564D01*
X0069252Y0065320D01*
X0069225Y0065076D01*
X0069192Y0064833D01*
X0069153Y0064590D01*
X0069108Y0064349D01*
X0069057Y0064109D01*
X0069000Y0063870D01*
X0068938Y0063633D01*
X0068869Y0063397D01*
X0068795Y0063163D01*
X0068715Y0062931D01*
X0068630Y0062701D01*
X0068539Y0062473D01*
X0068442Y0062248D01*
X0068340Y0062024D01*
X0068232Y0061804D01*
X0068119Y0061586D01*
X0068001Y0061371D01*
X0067877Y0061159D01*
X0067749Y0060950D01*
X0067615Y0060744D01*
X0067476Y0060542D01*
X0067332Y0060343D01*
X0067183Y0060148D01*
X0067030Y0059956D01*
X0066872Y0059768D01*
X0066710Y0059584D01*
X0066542Y0059405D01*
X0066371Y0059229D01*
X0066195Y0059058D01*
X0066016Y0058890D01*
X0065832Y0058728D01*
X0065644Y0058570D01*
X0065452Y0058417D01*
X0065257Y0058268D01*
X0065058Y0058124D01*
X0064856Y0057985D01*
X0064650Y0057851D01*
X0064441Y0057723D01*
X0064229Y0057599D01*
X0064014Y0057481D01*
X0063796Y0057368D01*
X0063576Y0057260D01*
X0063352Y0057158D01*
X0063127Y0057061D01*
X0062899Y0056970D01*
X0062669Y0056885D01*
X0062437Y0056805D01*
X0062203Y0056731D01*
X0061967Y0056662D01*
X0061730Y0056600D01*
X0061491Y0056543D01*
X0061251Y0056492D01*
X0061010Y0056447D01*
X0060767Y0056408D01*
X0060524Y0056375D01*
X0060280Y0056348D01*
X0060036Y0056327D01*
X0059791Y0056312D01*
X0059545Y0056303D01*
X0059300Y0056300D01*
X0059055Y0056303D01*
X0058809Y0056312D01*
X0058564Y0056327D01*
X0058320Y0056348D01*
X0058076Y0056375D01*
X0057833Y0056408D01*
X0057590Y0056447D01*
X0057349Y0056492D01*
X0057109Y0056543D01*
X0056870Y0056600D01*
X0056633Y0056662D01*
X0056397Y0056731D01*
X0056163Y0056805D01*
X0055931Y0056885D01*
X0055701Y0056970D01*
X0055473Y0057061D01*
X0055248Y0057158D01*
X0055024Y0057260D01*
X0054804Y0057368D01*
X0054586Y0057481D01*
X0054371Y0057599D01*
X0054159Y0057723D01*
X0053950Y0057851D01*
X0053744Y0057985D01*
X0053542Y0058124D01*
X0053343Y0058268D01*
X0053148Y0058417D01*
X0052956Y0058570D01*
X0052768Y0058728D01*
X0052584Y0058890D01*
X0052405Y0059058D01*
X0052229Y0059229D01*
X0052058Y0059405D01*
X0051890Y0059584D01*
X0051728Y0059768D01*
X0051570Y0059956D01*
X0051417Y0060148D01*
X0051268Y0060343D01*
X0051124Y0060542D01*
X0050985Y0060744D01*
X0050851Y0060950D01*
X0050723Y0061159D01*
X0050599Y0061371D01*
X0050481Y0061586D01*
X0050368Y0061804D01*
X0050260Y0062024D01*
X0050158Y0062248D01*
X0050061Y0062473D01*
X0049970Y0062701D01*
X0049885Y0062931D01*
X0049805Y0063163D01*
X0049731Y0063397D01*
X0049662Y0063633D01*
X0049600Y0063870D01*
X0049543Y0064109D01*
X0049492Y0064349D01*
X0049447Y0064590D01*
X0049408Y0064833D01*
X0049375Y0065076D01*
X0049348Y0065320D01*
X0049327Y0065564D01*
X0049312Y0065809D01*
X0049303Y0066055D01*
X0049300Y0066300D01*
X0120850Y0211026D02*
X0120852Y0211174D01*
X0120858Y0211322D01*
X0120868Y0211470D01*
X0120882Y0211617D01*
X0120900Y0211764D01*
X0120921Y0211910D01*
X0120947Y0212056D01*
X0120977Y0212201D01*
X0121010Y0212345D01*
X0121048Y0212488D01*
X0121089Y0212630D01*
X0121134Y0212771D01*
X0121182Y0212911D01*
X0121235Y0213050D01*
X0121291Y0213187D01*
X0121351Y0213322D01*
X0121414Y0213456D01*
X0121481Y0213588D01*
X0121552Y0213718D01*
X0121626Y0213846D01*
X0121703Y0213972D01*
X0121784Y0214096D01*
X0121868Y0214218D01*
X0121955Y0214337D01*
X0122046Y0214454D01*
X0122140Y0214569D01*
X0122236Y0214681D01*
X0122336Y0214791D01*
X0122438Y0214897D01*
X0122544Y0215001D01*
X0122652Y0215102D01*
X0122763Y0215200D01*
X0122876Y0215296D01*
X0122992Y0215388D01*
X0123110Y0215477D01*
X0123231Y0215562D01*
X0123354Y0215645D01*
X0123479Y0215724D01*
X0123606Y0215800D01*
X0123735Y0215872D01*
X0123866Y0215941D01*
X0123999Y0216006D01*
X0124134Y0216067D01*
X0124270Y0216125D01*
X0124407Y0216180D01*
X0124546Y0216230D01*
X0124687Y0216277D01*
X0124828Y0216320D01*
X0124971Y0216360D01*
X0125115Y0216395D01*
X0125259Y0216427D01*
X0125405Y0216454D01*
X0125551Y0216478D01*
X0125698Y0216498D01*
X0125845Y0216514D01*
X0125992Y0216526D01*
X0126140Y0216534D01*
X0126288Y0216538D01*
X0126436Y0216538D01*
X0126584Y0216534D01*
X0126732Y0216526D01*
X0126879Y0216514D01*
X0127026Y0216498D01*
X0127173Y0216478D01*
X0127319Y0216454D01*
X0127465Y0216427D01*
X0127609Y0216395D01*
X0127753Y0216360D01*
X0127896Y0216320D01*
X0128037Y0216277D01*
X0128178Y0216230D01*
X0128317Y0216180D01*
X0128454Y0216125D01*
X0128590Y0216067D01*
X0128725Y0216006D01*
X0128858Y0215941D01*
X0128989Y0215872D01*
X0129118Y0215800D01*
X0129245Y0215724D01*
X0129370Y0215645D01*
X0129493Y0215562D01*
X0129614Y0215477D01*
X0129732Y0215388D01*
X0129848Y0215296D01*
X0129961Y0215200D01*
X0130072Y0215102D01*
X0130180Y0215001D01*
X0130286Y0214897D01*
X0130388Y0214791D01*
X0130488Y0214681D01*
X0130584Y0214569D01*
X0130678Y0214454D01*
X0130769Y0214337D01*
X0130856Y0214218D01*
X0130940Y0214096D01*
X0131021Y0213972D01*
X0131098Y0213846D01*
X0131172Y0213718D01*
X0131243Y0213588D01*
X0131310Y0213456D01*
X0131373Y0213322D01*
X0131433Y0213187D01*
X0131489Y0213050D01*
X0131542Y0212911D01*
X0131590Y0212771D01*
X0131635Y0212630D01*
X0131676Y0212488D01*
X0131714Y0212345D01*
X0131747Y0212201D01*
X0131777Y0212056D01*
X0131803Y0211910D01*
X0131824Y0211764D01*
X0131842Y0211617D01*
X0131856Y0211470D01*
X0131866Y0211322D01*
X0131872Y0211174D01*
X0131874Y0211026D01*
X0131872Y0210878D01*
X0131866Y0210730D01*
X0131856Y0210582D01*
X0131842Y0210435D01*
X0131824Y0210288D01*
X0131803Y0210142D01*
X0131777Y0209996D01*
X0131747Y0209851D01*
X0131714Y0209707D01*
X0131676Y0209564D01*
X0131635Y0209422D01*
X0131590Y0209281D01*
X0131542Y0209141D01*
X0131489Y0209002D01*
X0131433Y0208865D01*
X0131373Y0208730D01*
X0131310Y0208596D01*
X0131243Y0208464D01*
X0131172Y0208334D01*
X0131098Y0208206D01*
X0131021Y0208080D01*
X0130940Y0207956D01*
X0130856Y0207834D01*
X0130769Y0207715D01*
X0130678Y0207598D01*
X0130584Y0207483D01*
X0130488Y0207371D01*
X0130388Y0207261D01*
X0130286Y0207155D01*
X0130180Y0207051D01*
X0130072Y0206950D01*
X0129961Y0206852D01*
X0129848Y0206756D01*
X0129732Y0206664D01*
X0129614Y0206575D01*
X0129493Y0206490D01*
X0129370Y0206407D01*
X0129245Y0206328D01*
X0129118Y0206252D01*
X0128989Y0206180D01*
X0128858Y0206111D01*
X0128725Y0206046D01*
X0128590Y0205985D01*
X0128454Y0205927D01*
X0128317Y0205872D01*
X0128178Y0205822D01*
X0128037Y0205775D01*
X0127896Y0205732D01*
X0127753Y0205692D01*
X0127609Y0205657D01*
X0127465Y0205625D01*
X0127319Y0205598D01*
X0127173Y0205574D01*
X0127026Y0205554D01*
X0126879Y0205538D01*
X0126732Y0205526D01*
X0126584Y0205518D01*
X0126436Y0205514D01*
X0126288Y0205514D01*
X0126140Y0205518D01*
X0125992Y0205526D01*
X0125845Y0205538D01*
X0125698Y0205554D01*
X0125551Y0205574D01*
X0125405Y0205598D01*
X0125259Y0205625D01*
X0125115Y0205657D01*
X0124971Y0205692D01*
X0124828Y0205732D01*
X0124687Y0205775D01*
X0124546Y0205822D01*
X0124407Y0205872D01*
X0124270Y0205927D01*
X0124134Y0205985D01*
X0123999Y0206046D01*
X0123866Y0206111D01*
X0123735Y0206180D01*
X0123606Y0206252D01*
X0123479Y0206328D01*
X0123354Y0206407D01*
X0123231Y0206490D01*
X0123110Y0206575D01*
X0122992Y0206664D01*
X0122876Y0206756D01*
X0122763Y0206852D01*
X0122652Y0206950D01*
X0122544Y0207051D01*
X0122438Y0207155D01*
X0122336Y0207261D01*
X0122236Y0207371D01*
X0122140Y0207483D01*
X0122046Y0207598D01*
X0121955Y0207715D01*
X0121868Y0207834D01*
X0121784Y0207956D01*
X0121703Y0208080D01*
X0121626Y0208206D01*
X0121552Y0208334D01*
X0121481Y0208464D01*
X0121414Y0208596D01*
X0121351Y0208730D01*
X0121291Y0208865D01*
X0121235Y0209002D01*
X0121182Y0209141D01*
X0121134Y0209281D01*
X0121089Y0209422D01*
X0121048Y0209564D01*
X0121010Y0209707D01*
X0120977Y0209851D01*
X0120947Y0209996D01*
X0120921Y0210142D01*
X0120900Y0210288D01*
X0120882Y0210435D01*
X0120868Y0210582D01*
X0120858Y0210730D01*
X0120852Y0210878D01*
X0120850Y0211026D01*
X0120850Y0333074D02*
X0120852Y0333222D01*
X0120858Y0333370D01*
X0120868Y0333518D01*
X0120882Y0333665D01*
X0120900Y0333812D01*
X0120921Y0333958D01*
X0120947Y0334104D01*
X0120977Y0334249D01*
X0121010Y0334393D01*
X0121048Y0334536D01*
X0121089Y0334678D01*
X0121134Y0334819D01*
X0121182Y0334959D01*
X0121235Y0335098D01*
X0121291Y0335235D01*
X0121351Y0335370D01*
X0121414Y0335504D01*
X0121481Y0335636D01*
X0121552Y0335766D01*
X0121626Y0335894D01*
X0121703Y0336020D01*
X0121784Y0336144D01*
X0121868Y0336266D01*
X0121955Y0336385D01*
X0122046Y0336502D01*
X0122140Y0336617D01*
X0122236Y0336729D01*
X0122336Y0336839D01*
X0122438Y0336945D01*
X0122544Y0337049D01*
X0122652Y0337150D01*
X0122763Y0337248D01*
X0122876Y0337344D01*
X0122992Y0337436D01*
X0123110Y0337525D01*
X0123231Y0337610D01*
X0123354Y0337693D01*
X0123479Y0337772D01*
X0123606Y0337848D01*
X0123735Y0337920D01*
X0123866Y0337989D01*
X0123999Y0338054D01*
X0124134Y0338115D01*
X0124270Y0338173D01*
X0124407Y0338228D01*
X0124546Y0338278D01*
X0124687Y0338325D01*
X0124828Y0338368D01*
X0124971Y0338408D01*
X0125115Y0338443D01*
X0125259Y0338475D01*
X0125405Y0338502D01*
X0125551Y0338526D01*
X0125698Y0338546D01*
X0125845Y0338562D01*
X0125992Y0338574D01*
X0126140Y0338582D01*
X0126288Y0338586D01*
X0126436Y0338586D01*
X0126584Y0338582D01*
X0126732Y0338574D01*
X0126879Y0338562D01*
X0127026Y0338546D01*
X0127173Y0338526D01*
X0127319Y0338502D01*
X0127465Y0338475D01*
X0127609Y0338443D01*
X0127753Y0338408D01*
X0127896Y0338368D01*
X0128037Y0338325D01*
X0128178Y0338278D01*
X0128317Y0338228D01*
X0128454Y0338173D01*
X0128590Y0338115D01*
X0128725Y0338054D01*
X0128858Y0337989D01*
X0128989Y0337920D01*
X0129118Y0337848D01*
X0129245Y0337772D01*
X0129370Y0337693D01*
X0129493Y0337610D01*
X0129614Y0337525D01*
X0129732Y0337436D01*
X0129848Y0337344D01*
X0129961Y0337248D01*
X0130072Y0337150D01*
X0130180Y0337049D01*
X0130286Y0336945D01*
X0130388Y0336839D01*
X0130488Y0336729D01*
X0130584Y0336617D01*
X0130678Y0336502D01*
X0130769Y0336385D01*
X0130856Y0336266D01*
X0130940Y0336144D01*
X0131021Y0336020D01*
X0131098Y0335894D01*
X0131172Y0335766D01*
X0131243Y0335636D01*
X0131310Y0335504D01*
X0131373Y0335370D01*
X0131433Y0335235D01*
X0131489Y0335098D01*
X0131542Y0334959D01*
X0131590Y0334819D01*
X0131635Y0334678D01*
X0131676Y0334536D01*
X0131714Y0334393D01*
X0131747Y0334249D01*
X0131777Y0334104D01*
X0131803Y0333958D01*
X0131824Y0333812D01*
X0131842Y0333665D01*
X0131856Y0333518D01*
X0131866Y0333370D01*
X0131872Y0333222D01*
X0131874Y0333074D01*
X0131872Y0332926D01*
X0131866Y0332778D01*
X0131856Y0332630D01*
X0131842Y0332483D01*
X0131824Y0332336D01*
X0131803Y0332190D01*
X0131777Y0332044D01*
X0131747Y0331899D01*
X0131714Y0331755D01*
X0131676Y0331612D01*
X0131635Y0331470D01*
X0131590Y0331329D01*
X0131542Y0331189D01*
X0131489Y0331050D01*
X0131433Y0330913D01*
X0131373Y0330778D01*
X0131310Y0330644D01*
X0131243Y0330512D01*
X0131172Y0330382D01*
X0131098Y0330254D01*
X0131021Y0330128D01*
X0130940Y0330004D01*
X0130856Y0329882D01*
X0130769Y0329763D01*
X0130678Y0329646D01*
X0130584Y0329531D01*
X0130488Y0329419D01*
X0130388Y0329309D01*
X0130286Y0329203D01*
X0130180Y0329099D01*
X0130072Y0328998D01*
X0129961Y0328900D01*
X0129848Y0328804D01*
X0129732Y0328712D01*
X0129614Y0328623D01*
X0129493Y0328538D01*
X0129370Y0328455D01*
X0129245Y0328376D01*
X0129118Y0328300D01*
X0128989Y0328228D01*
X0128858Y0328159D01*
X0128725Y0328094D01*
X0128590Y0328033D01*
X0128454Y0327975D01*
X0128317Y0327920D01*
X0128178Y0327870D01*
X0128037Y0327823D01*
X0127896Y0327780D01*
X0127753Y0327740D01*
X0127609Y0327705D01*
X0127465Y0327673D01*
X0127319Y0327646D01*
X0127173Y0327622D01*
X0127026Y0327602D01*
X0126879Y0327586D01*
X0126732Y0327574D01*
X0126584Y0327566D01*
X0126436Y0327562D01*
X0126288Y0327562D01*
X0126140Y0327566D01*
X0125992Y0327574D01*
X0125845Y0327586D01*
X0125698Y0327602D01*
X0125551Y0327622D01*
X0125405Y0327646D01*
X0125259Y0327673D01*
X0125115Y0327705D01*
X0124971Y0327740D01*
X0124828Y0327780D01*
X0124687Y0327823D01*
X0124546Y0327870D01*
X0124407Y0327920D01*
X0124270Y0327975D01*
X0124134Y0328033D01*
X0123999Y0328094D01*
X0123866Y0328159D01*
X0123735Y0328228D01*
X0123606Y0328300D01*
X0123479Y0328376D01*
X0123354Y0328455D01*
X0123231Y0328538D01*
X0123110Y0328623D01*
X0122992Y0328712D01*
X0122876Y0328804D01*
X0122763Y0328900D01*
X0122652Y0328998D01*
X0122544Y0329099D01*
X0122438Y0329203D01*
X0122336Y0329309D01*
X0122236Y0329419D01*
X0122140Y0329531D01*
X0122046Y0329646D01*
X0121955Y0329763D01*
X0121868Y0329882D01*
X0121784Y0330004D01*
X0121703Y0330128D01*
X0121626Y0330254D01*
X0121552Y0330382D01*
X0121481Y0330512D01*
X0121414Y0330644D01*
X0121351Y0330778D01*
X0121291Y0330913D01*
X0121235Y0331050D01*
X0121182Y0331189D01*
X0121134Y0331329D01*
X0121089Y0331470D01*
X0121048Y0331612D01*
X0121010Y0331755D01*
X0120977Y0331899D01*
X0120947Y0332044D01*
X0120921Y0332190D01*
X0120900Y0332336D01*
X0120882Y0332483D01*
X0120868Y0332630D01*
X0120858Y0332778D01*
X0120852Y0332926D01*
X0120850Y0333074D01*
X0049300Y0340300D02*
X0049303Y0340545D01*
X0049312Y0340791D01*
X0049327Y0341036D01*
X0049348Y0341280D01*
X0049375Y0341524D01*
X0049408Y0341767D01*
X0049447Y0342010D01*
X0049492Y0342251D01*
X0049543Y0342491D01*
X0049600Y0342730D01*
X0049662Y0342967D01*
X0049731Y0343203D01*
X0049805Y0343437D01*
X0049885Y0343669D01*
X0049970Y0343899D01*
X0050061Y0344127D01*
X0050158Y0344352D01*
X0050260Y0344576D01*
X0050368Y0344796D01*
X0050481Y0345014D01*
X0050599Y0345229D01*
X0050723Y0345441D01*
X0050851Y0345650D01*
X0050985Y0345856D01*
X0051124Y0346058D01*
X0051268Y0346257D01*
X0051417Y0346452D01*
X0051570Y0346644D01*
X0051728Y0346832D01*
X0051890Y0347016D01*
X0052058Y0347195D01*
X0052229Y0347371D01*
X0052405Y0347542D01*
X0052584Y0347710D01*
X0052768Y0347872D01*
X0052956Y0348030D01*
X0053148Y0348183D01*
X0053343Y0348332D01*
X0053542Y0348476D01*
X0053744Y0348615D01*
X0053950Y0348749D01*
X0054159Y0348877D01*
X0054371Y0349001D01*
X0054586Y0349119D01*
X0054804Y0349232D01*
X0055024Y0349340D01*
X0055248Y0349442D01*
X0055473Y0349539D01*
X0055701Y0349630D01*
X0055931Y0349715D01*
X0056163Y0349795D01*
X0056397Y0349869D01*
X0056633Y0349938D01*
X0056870Y0350000D01*
X0057109Y0350057D01*
X0057349Y0350108D01*
X0057590Y0350153D01*
X0057833Y0350192D01*
X0058076Y0350225D01*
X0058320Y0350252D01*
X0058564Y0350273D01*
X0058809Y0350288D01*
X0059055Y0350297D01*
X0059300Y0350300D01*
X0059545Y0350297D01*
X0059791Y0350288D01*
X0060036Y0350273D01*
X0060280Y0350252D01*
X0060524Y0350225D01*
X0060767Y0350192D01*
X0061010Y0350153D01*
X0061251Y0350108D01*
X0061491Y0350057D01*
X0061730Y0350000D01*
X0061967Y0349938D01*
X0062203Y0349869D01*
X0062437Y0349795D01*
X0062669Y0349715D01*
X0062899Y0349630D01*
X0063127Y0349539D01*
X0063352Y0349442D01*
X0063576Y0349340D01*
X0063796Y0349232D01*
X0064014Y0349119D01*
X0064229Y0349001D01*
X0064441Y0348877D01*
X0064650Y0348749D01*
X0064856Y0348615D01*
X0065058Y0348476D01*
X0065257Y0348332D01*
X0065452Y0348183D01*
X0065644Y0348030D01*
X0065832Y0347872D01*
X0066016Y0347710D01*
X0066195Y0347542D01*
X0066371Y0347371D01*
X0066542Y0347195D01*
X0066710Y0347016D01*
X0066872Y0346832D01*
X0067030Y0346644D01*
X0067183Y0346452D01*
X0067332Y0346257D01*
X0067476Y0346058D01*
X0067615Y0345856D01*
X0067749Y0345650D01*
X0067877Y0345441D01*
X0068001Y0345229D01*
X0068119Y0345014D01*
X0068232Y0344796D01*
X0068340Y0344576D01*
X0068442Y0344352D01*
X0068539Y0344127D01*
X0068630Y0343899D01*
X0068715Y0343669D01*
X0068795Y0343437D01*
X0068869Y0343203D01*
X0068938Y0342967D01*
X0069000Y0342730D01*
X0069057Y0342491D01*
X0069108Y0342251D01*
X0069153Y0342010D01*
X0069192Y0341767D01*
X0069225Y0341524D01*
X0069252Y0341280D01*
X0069273Y0341036D01*
X0069288Y0340791D01*
X0069297Y0340545D01*
X0069300Y0340300D01*
X0069297Y0340055D01*
X0069288Y0339809D01*
X0069273Y0339564D01*
X0069252Y0339320D01*
X0069225Y0339076D01*
X0069192Y0338833D01*
X0069153Y0338590D01*
X0069108Y0338349D01*
X0069057Y0338109D01*
X0069000Y0337870D01*
X0068938Y0337633D01*
X0068869Y0337397D01*
X0068795Y0337163D01*
X0068715Y0336931D01*
X0068630Y0336701D01*
X0068539Y0336473D01*
X0068442Y0336248D01*
X0068340Y0336024D01*
X0068232Y0335804D01*
X0068119Y0335586D01*
X0068001Y0335371D01*
X0067877Y0335159D01*
X0067749Y0334950D01*
X0067615Y0334744D01*
X0067476Y0334542D01*
X0067332Y0334343D01*
X0067183Y0334148D01*
X0067030Y0333956D01*
X0066872Y0333768D01*
X0066710Y0333584D01*
X0066542Y0333405D01*
X0066371Y0333229D01*
X0066195Y0333058D01*
X0066016Y0332890D01*
X0065832Y0332728D01*
X0065644Y0332570D01*
X0065452Y0332417D01*
X0065257Y0332268D01*
X0065058Y0332124D01*
X0064856Y0331985D01*
X0064650Y0331851D01*
X0064441Y0331723D01*
X0064229Y0331599D01*
X0064014Y0331481D01*
X0063796Y0331368D01*
X0063576Y0331260D01*
X0063352Y0331158D01*
X0063127Y0331061D01*
X0062899Y0330970D01*
X0062669Y0330885D01*
X0062437Y0330805D01*
X0062203Y0330731D01*
X0061967Y0330662D01*
X0061730Y0330600D01*
X0061491Y0330543D01*
X0061251Y0330492D01*
X0061010Y0330447D01*
X0060767Y0330408D01*
X0060524Y0330375D01*
X0060280Y0330348D01*
X0060036Y0330327D01*
X0059791Y0330312D01*
X0059545Y0330303D01*
X0059300Y0330300D01*
X0059055Y0330303D01*
X0058809Y0330312D01*
X0058564Y0330327D01*
X0058320Y0330348D01*
X0058076Y0330375D01*
X0057833Y0330408D01*
X0057590Y0330447D01*
X0057349Y0330492D01*
X0057109Y0330543D01*
X0056870Y0330600D01*
X0056633Y0330662D01*
X0056397Y0330731D01*
X0056163Y0330805D01*
X0055931Y0330885D01*
X0055701Y0330970D01*
X0055473Y0331061D01*
X0055248Y0331158D01*
X0055024Y0331260D01*
X0054804Y0331368D01*
X0054586Y0331481D01*
X0054371Y0331599D01*
X0054159Y0331723D01*
X0053950Y0331851D01*
X0053744Y0331985D01*
X0053542Y0332124D01*
X0053343Y0332268D01*
X0053148Y0332417D01*
X0052956Y0332570D01*
X0052768Y0332728D01*
X0052584Y0332890D01*
X0052405Y0333058D01*
X0052229Y0333229D01*
X0052058Y0333405D01*
X0051890Y0333584D01*
X0051728Y0333768D01*
X0051570Y0333956D01*
X0051417Y0334148D01*
X0051268Y0334343D01*
X0051124Y0334542D01*
X0050985Y0334744D01*
X0050851Y0334950D01*
X0050723Y0335159D01*
X0050599Y0335371D01*
X0050481Y0335586D01*
X0050368Y0335804D01*
X0050260Y0336024D01*
X0050158Y0336248D01*
X0050061Y0336473D01*
X0049970Y0336701D01*
X0049885Y0336931D01*
X0049805Y0337163D01*
X0049731Y0337397D01*
X0049662Y0337633D01*
X0049600Y0337870D01*
X0049543Y0338109D01*
X0049492Y0338349D01*
X0049447Y0338590D01*
X0049408Y0338833D01*
X0049375Y0339076D01*
X0049348Y0339320D01*
X0049327Y0339564D01*
X0049312Y0339809D01*
X0049303Y0340055D01*
X0049300Y0340300D01*
X0416126Y0333074D02*
X0416128Y0333222D01*
X0416134Y0333370D01*
X0416144Y0333518D01*
X0416158Y0333665D01*
X0416176Y0333812D01*
X0416197Y0333958D01*
X0416223Y0334104D01*
X0416253Y0334249D01*
X0416286Y0334393D01*
X0416324Y0334536D01*
X0416365Y0334678D01*
X0416410Y0334819D01*
X0416458Y0334959D01*
X0416511Y0335098D01*
X0416567Y0335235D01*
X0416627Y0335370D01*
X0416690Y0335504D01*
X0416757Y0335636D01*
X0416828Y0335766D01*
X0416902Y0335894D01*
X0416979Y0336020D01*
X0417060Y0336144D01*
X0417144Y0336266D01*
X0417231Y0336385D01*
X0417322Y0336502D01*
X0417416Y0336617D01*
X0417512Y0336729D01*
X0417612Y0336839D01*
X0417714Y0336945D01*
X0417820Y0337049D01*
X0417928Y0337150D01*
X0418039Y0337248D01*
X0418152Y0337344D01*
X0418268Y0337436D01*
X0418386Y0337525D01*
X0418507Y0337610D01*
X0418630Y0337693D01*
X0418755Y0337772D01*
X0418882Y0337848D01*
X0419011Y0337920D01*
X0419142Y0337989D01*
X0419275Y0338054D01*
X0419410Y0338115D01*
X0419546Y0338173D01*
X0419683Y0338228D01*
X0419822Y0338278D01*
X0419963Y0338325D01*
X0420104Y0338368D01*
X0420247Y0338408D01*
X0420391Y0338443D01*
X0420535Y0338475D01*
X0420681Y0338502D01*
X0420827Y0338526D01*
X0420974Y0338546D01*
X0421121Y0338562D01*
X0421268Y0338574D01*
X0421416Y0338582D01*
X0421564Y0338586D01*
X0421712Y0338586D01*
X0421860Y0338582D01*
X0422008Y0338574D01*
X0422155Y0338562D01*
X0422302Y0338546D01*
X0422449Y0338526D01*
X0422595Y0338502D01*
X0422741Y0338475D01*
X0422885Y0338443D01*
X0423029Y0338408D01*
X0423172Y0338368D01*
X0423313Y0338325D01*
X0423454Y0338278D01*
X0423593Y0338228D01*
X0423730Y0338173D01*
X0423866Y0338115D01*
X0424001Y0338054D01*
X0424134Y0337989D01*
X0424265Y0337920D01*
X0424394Y0337848D01*
X0424521Y0337772D01*
X0424646Y0337693D01*
X0424769Y0337610D01*
X0424890Y0337525D01*
X0425008Y0337436D01*
X0425124Y0337344D01*
X0425237Y0337248D01*
X0425348Y0337150D01*
X0425456Y0337049D01*
X0425562Y0336945D01*
X0425664Y0336839D01*
X0425764Y0336729D01*
X0425860Y0336617D01*
X0425954Y0336502D01*
X0426045Y0336385D01*
X0426132Y0336266D01*
X0426216Y0336144D01*
X0426297Y0336020D01*
X0426374Y0335894D01*
X0426448Y0335766D01*
X0426519Y0335636D01*
X0426586Y0335504D01*
X0426649Y0335370D01*
X0426709Y0335235D01*
X0426765Y0335098D01*
X0426818Y0334959D01*
X0426866Y0334819D01*
X0426911Y0334678D01*
X0426952Y0334536D01*
X0426990Y0334393D01*
X0427023Y0334249D01*
X0427053Y0334104D01*
X0427079Y0333958D01*
X0427100Y0333812D01*
X0427118Y0333665D01*
X0427132Y0333518D01*
X0427142Y0333370D01*
X0427148Y0333222D01*
X0427150Y0333074D01*
X0427148Y0332926D01*
X0427142Y0332778D01*
X0427132Y0332630D01*
X0427118Y0332483D01*
X0427100Y0332336D01*
X0427079Y0332190D01*
X0427053Y0332044D01*
X0427023Y0331899D01*
X0426990Y0331755D01*
X0426952Y0331612D01*
X0426911Y0331470D01*
X0426866Y0331329D01*
X0426818Y0331189D01*
X0426765Y0331050D01*
X0426709Y0330913D01*
X0426649Y0330778D01*
X0426586Y0330644D01*
X0426519Y0330512D01*
X0426448Y0330382D01*
X0426374Y0330254D01*
X0426297Y0330128D01*
X0426216Y0330004D01*
X0426132Y0329882D01*
X0426045Y0329763D01*
X0425954Y0329646D01*
X0425860Y0329531D01*
X0425764Y0329419D01*
X0425664Y0329309D01*
X0425562Y0329203D01*
X0425456Y0329099D01*
X0425348Y0328998D01*
X0425237Y0328900D01*
X0425124Y0328804D01*
X0425008Y0328712D01*
X0424890Y0328623D01*
X0424769Y0328538D01*
X0424646Y0328455D01*
X0424521Y0328376D01*
X0424394Y0328300D01*
X0424265Y0328228D01*
X0424134Y0328159D01*
X0424001Y0328094D01*
X0423866Y0328033D01*
X0423730Y0327975D01*
X0423593Y0327920D01*
X0423454Y0327870D01*
X0423313Y0327823D01*
X0423172Y0327780D01*
X0423029Y0327740D01*
X0422885Y0327705D01*
X0422741Y0327673D01*
X0422595Y0327646D01*
X0422449Y0327622D01*
X0422302Y0327602D01*
X0422155Y0327586D01*
X0422008Y0327574D01*
X0421860Y0327566D01*
X0421712Y0327562D01*
X0421564Y0327562D01*
X0421416Y0327566D01*
X0421268Y0327574D01*
X0421121Y0327586D01*
X0420974Y0327602D01*
X0420827Y0327622D01*
X0420681Y0327646D01*
X0420535Y0327673D01*
X0420391Y0327705D01*
X0420247Y0327740D01*
X0420104Y0327780D01*
X0419963Y0327823D01*
X0419822Y0327870D01*
X0419683Y0327920D01*
X0419546Y0327975D01*
X0419410Y0328033D01*
X0419275Y0328094D01*
X0419142Y0328159D01*
X0419011Y0328228D01*
X0418882Y0328300D01*
X0418755Y0328376D01*
X0418630Y0328455D01*
X0418507Y0328538D01*
X0418386Y0328623D01*
X0418268Y0328712D01*
X0418152Y0328804D01*
X0418039Y0328900D01*
X0417928Y0328998D01*
X0417820Y0329099D01*
X0417714Y0329203D01*
X0417612Y0329309D01*
X0417512Y0329419D01*
X0417416Y0329531D01*
X0417322Y0329646D01*
X0417231Y0329763D01*
X0417144Y0329882D01*
X0417060Y0330004D01*
X0416979Y0330128D01*
X0416902Y0330254D01*
X0416828Y0330382D01*
X0416757Y0330512D01*
X0416690Y0330644D01*
X0416627Y0330778D01*
X0416567Y0330913D01*
X0416511Y0331050D01*
X0416458Y0331189D01*
X0416410Y0331329D01*
X0416365Y0331470D01*
X0416324Y0331612D01*
X0416286Y0331755D01*
X0416253Y0331899D01*
X0416223Y0332044D01*
X0416197Y0332190D01*
X0416176Y0332336D01*
X0416158Y0332483D01*
X0416144Y0332630D01*
X0416134Y0332778D01*
X0416128Y0332926D01*
X0416126Y0333074D01*
X0464300Y0340300D02*
X0464303Y0340545D01*
X0464312Y0340791D01*
X0464327Y0341036D01*
X0464348Y0341280D01*
X0464375Y0341524D01*
X0464408Y0341767D01*
X0464447Y0342010D01*
X0464492Y0342251D01*
X0464543Y0342491D01*
X0464600Y0342730D01*
X0464662Y0342967D01*
X0464731Y0343203D01*
X0464805Y0343437D01*
X0464885Y0343669D01*
X0464970Y0343899D01*
X0465061Y0344127D01*
X0465158Y0344352D01*
X0465260Y0344576D01*
X0465368Y0344796D01*
X0465481Y0345014D01*
X0465599Y0345229D01*
X0465723Y0345441D01*
X0465851Y0345650D01*
X0465985Y0345856D01*
X0466124Y0346058D01*
X0466268Y0346257D01*
X0466417Y0346452D01*
X0466570Y0346644D01*
X0466728Y0346832D01*
X0466890Y0347016D01*
X0467058Y0347195D01*
X0467229Y0347371D01*
X0467405Y0347542D01*
X0467584Y0347710D01*
X0467768Y0347872D01*
X0467956Y0348030D01*
X0468148Y0348183D01*
X0468343Y0348332D01*
X0468542Y0348476D01*
X0468744Y0348615D01*
X0468950Y0348749D01*
X0469159Y0348877D01*
X0469371Y0349001D01*
X0469586Y0349119D01*
X0469804Y0349232D01*
X0470024Y0349340D01*
X0470248Y0349442D01*
X0470473Y0349539D01*
X0470701Y0349630D01*
X0470931Y0349715D01*
X0471163Y0349795D01*
X0471397Y0349869D01*
X0471633Y0349938D01*
X0471870Y0350000D01*
X0472109Y0350057D01*
X0472349Y0350108D01*
X0472590Y0350153D01*
X0472833Y0350192D01*
X0473076Y0350225D01*
X0473320Y0350252D01*
X0473564Y0350273D01*
X0473809Y0350288D01*
X0474055Y0350297D01*
X0474300Y0350300D01*
X0474545Y0350297D01*
X0474791Y0350288D01*
X0475036Y0350273D01*
X0475280Y0350252D01*
X0475524Y0350225D01*
X0475767Y0350192D01*
X0476010Y0350153D01*
X0476251Y0350108D01*
X0476491Y0350057D01*
X0476730Y0350000D01*
X0476967Y0349938D01*
X0477203Y0349869D01*
X0477437Y0349795D01*
X0477669Y0349715D01*
X0477899Y0349630D01*
X0478127Y0349539D01*
X0478352Y0349442D01*
X0478576Y0349340D01*
X0478796Y0349232D01*
X0479014Y0349119D01*
X0479229Y0349001D01*
X0479441Y0348877D01*
X0479650Y0348749D01*
X0479856Y0348615D01*
X0480058Y0348476D01*
X0480257Y0348332D01*
X0480452Y0348183D01*
X0480644Y0348030D01*
X0480832Y0347872D01*
X0481016Y0347710D01*
X0481195Y0347542D01*
X0481371Y0347371D01*
X0481542Y0347195D01*
X0481710Y0347016D01*
X0481872Y0346832D01*
X0482030Y0346644D01*
X0482183Y0346452D01*
X0482332Y0346257D01*
X0482476Y0346058D01*
X0482615Y0345856D01*
X0482749Y0345650D01*
X0482877Y0345441D01*
X0483001Y0345229D01*
X0483119Y0345014D01*
X0483232Y0344796D01*
X0483340Y0344576D01*
X0483442Y0344352D01*
X0483539Y0344127D01*
X0483630Y0343899D01*
X0483715Y0343669D01*
X0483795Y0343437D01*
X0483869Y0343203D01*
X0483938Y0342967D01*
X0484000Y0342730D01*
X0484057Y0342491D01*
X0484108Y0342251D01*
X0484153Y0342010D01*
X0484192Y0341767D01*
X0484225Y0341524D01*
X0484252Y0341280D01*
X0484273Y0341036D01*
X0484288Y0340791D01*
X0484297Y0340545D01*
X0484300Y0340300D01*
X0484297Y0340055D01*
X0484288Y0339809D01*
X0484273Y0339564D01*
X0484252Y0339320D01*
X0484225Y0339076D01*
X0484192Y0338833D01*
X0484153Y0338590D01*
X0484108Y0338349D01*
X0484057Y0338109D01*
X0484000Y0337870D01*
X0483938Y0337633D01*
X0483869Y0337397D01*
X0483795Y0337163D01*
X0483715Y0336931D01*
X0483630Y0336701D01*
X0483539Y0336473D01*
X0483442Y0336248D01*
X0483340Y0336024D01*
X0483232Y0335804D01*
X0483119Y0335586D01*
X0483001Y0335371D01*
X0482877Y0335159D01*
X0482749Y0334950D01*
X0482615Y0334744D01*
X0482476Y0334542D01*
X0482332Y0334343D01*
X0482183Y0334148D01*
X0482030Y0333956D01*
X0481872Y0333768D01*
X0481710Y0333584D01*
X0481542Y0333405D01*
X0481371Y0333229D01*
X0481195Y0333058D01*
X0481016Y0332890D01*
X0480832Y0332728D01*
X0480644Y0332570D01*
X0480452Y0332417D01*
X0480257Y0332268D01*
X0480058Y0332124D01*
X0479856Y0331985D01*
X0479650Y0331851D01*
X0479441Y0331723D01*
X0479229Y0331599D01*
X0479014Y0331481D01*
X0478796Y0331368D01*
X0478576Y0331260D01*
X0478352Y0331158D01*
X0478127Y0331061D01*
X0477899Y0330970D01*
X0477669Y0330885D01*
X0477437Y0330805D01*
X0477203Y0330731D01*
X0476967Y0330662D01*
X0476730Y0330600D01*
X0476491Y0330543D01*
X0476251Y0330492D01*
X0476010Y0330447D01*
X0475767Y0330408D01*
X0475524Y0330375D01*
X0475280Y0330348D01*
X0475036Y0330327D01*
X0474791Y0330312D01*
X0474545Y0330303D01*
X0474300Y0330300D01*
X0474055Y0330303D01*
X0473809Y0330312D01*
X0473564Y0330327D01*
X0473320Y0330348D01*
X0473076Y0330375D01*
X0472833Y0330408D01*
X0472590Y0330447D01*
X0472349Y0330492D01*
X0472109Y0330543D01*
X0471870Y0330600D01*
X0471633Y0330662D01*
X0471397Y0330731D01*
X0471163Y0330805D01*
X0470931Y0330885D01*
X0470701Y0330970D01*
X0470473Y0331061D01*
X0470248Y0331158D01*
X0470024Y0331260D01*
X0469804Y0331368D01*
X0469586Y0331481D01*
X0469371Y0331599D01*
X0469159Y0331723D01*
X0468950Y0331851D01*
X0468744Y0331985D01*
X0468542Y0332124D01*
X0468343Y0332268D01*
X0468148Y0332417D01*
X0467956Y0332570D01*
X0467768Y0332728D01*
X0467584Y0332890D01*
X0467405Y0333058D01*
X0467229Y0333229D01*
X0467058Y0333405D01*
X0466890Y0333584D01*
X0466728Y0333768D01*
X0466570Y0333956D01*
X0466417Y0334148D01*
X0466268Y0334343D01*
X0466124Y0334542D01*
X0465985Y0334744D01*
X0465851Y0334950D01*
X0465723Y0335159D01*
X0465599Y0335371D01*
X0465481Y0335586D01*
X0465368Y0335804D01*
X0465260Y0336024D01*
X0465158Y0336248D01*
X0465061Y0336473D01*
X0464970Y0336701D01*
X0464885Y0336931D01*
X0464805Y0337163D01*
X0464731Y0337397D01*
X0464662Y0337633D01*
X0464600Y0337870D01*
X0464543Y0338109D01*
X0464492Y0338349D01*
X0464447Y0338590D01*
X0464408Y0338833D01*
X0464375Y0339076D01*
X0464348Y0339320D01*
X0464327Y0339564D01*
X0464312Y0339809D01*
X0464303Y0340055D01*
X0464300Y0340300D01*
X0416126Y0211026D02*
X0416128Y0211174D01*
X0416134Y0211322D01*
X0416144Y0211470D01*
X0416158Y0211617D01*
X0416176Y0211764D01*
X0416197Y0211910D01*
X0416223Y0212056D01*
X0416253Y0212201D01*
X0416286Y0212345D01*
X0416324Y0212488D01*
X0416365Y0212630D01*
X0416410Y0212771D01*
X0416458Y0212911D01*
X0416511Y0213050D01*
X0416567Y0213187D01*
X0416627Y0213322D01*
X0416690Y0213456D01*
X0416757Y0213588D01*
X0416828Y0213718D01*
X0416902Y0213846D01*
X0416979Y0213972D01*
X0417060Y0214096D01*
X0417144Y0214218D01*
X0417231Y0214337D01*
X0417322Y0214454D01*
X0417416Y0214569D01*
X0417512Y0214681D01*
X0417612Y0214791D01*
X0417714Y0214897D01*
X0417820Y0215001D01*
X0417928Y0215102D01*
X0418039Y0215200D01*
X0418152Y0215296D01*
X0418268Y0215388D01*
X0418386Y0215477D01*
X0418507Y0215562D01*
X0418630Y0215645D01*
X0418755Y0215724D01*
X0418882Y0215800D01*
X0419011Y0215872D01*
X0419142Y0215941D01*
X0419275Y0216006D01*
X0419410Y0216067D01*
X0419546Y0216125D01*
X0419683Y0216180D01*
X0419822Y0216230D01*
X0419963Y0216277D01*
X0420104Y0216320D01*
X0420247Y0216360D01*
X0420391Y0216395D01*
X0420535Y0216427D01*
X0420681Y0216454D01*
X0420827Y0216478D01*
X0420974Y0216498D01*
X0421121Y0216514D01*
X0421268Y0216526D01*
X0421416Y0216534D01*
X0421564Y0216538D01*
X0421712Y0216538D01*
X0421860Y0216534D01*
X0422008Y0216526D01*
X0422155Y0216514D01*
X0422302Y0216498D01*
X0422449Y0216478D01*
X0422595Y0216454D01*
X0422741Y0216427D01*
X0422885Y0216395D01*
X0423029Y0216360D01*
X0423172Y0216320D01*
X0423313Y0216277D01*
X0423454Y0216230D01*
X0423593Y0216180D01*
X0423730Y0216125D01*
X0423866Y0216067D01*
X0424001Y0216006D01*
X0424134Y0215941D01*
X0424265Y0215872D01*
X0424394Y0215800D01*
X0424521Y0215724D01*
X0424646Y0215645D01*
X0424769Y0215562D01*
X0424890Y0215477D01*
X0425008Y0215388D01*
X0425124Y0215296D01*
X0425237Y0215200D01*
X0425348Y0215102D01*
X0425456Y0215001D01*
X0425562Y0214897D01*
X0425664Y0214791D01*
X0425764Y0214681D01*
X0425860Y0214569D01*
X0425954Y0214454D01*
X0426045Y0214337D01*
X0426132Y0214218D01*
X0426216Y0214096D01*
X0426297Y0213972D01*
X0426374Y0213846D01*
X0426448Y0213718D01*
X0426519Y0213588D01*
X0426586Y0213456D01*
X0426649Y0213322D01*
X0426709Y0213187D01*
X0426765Y0213050D01*
X0426818Y0212911D01*
X0426866Y0212771D01*
X0426911Y0212630D01*
X0426952Y0212488D01*
X0426990Y0212345D01*
X0427023Y0212201D01*
X0427053Y0212056D01*
X0427079Y0211910D01*
X0427100Y0211764D01*
X0427118Y0211617D01*
X0427132Y0211470D01*
X0427142Y0211322D01*
X0427148Y0211174D01*
X0427150Y0211026D01*
X0427148Y0210878D01*
X0427142Y0210730D01*
X0427132Y0210582D01*
X0427118Y0210435D01*
X0427100Y0210288D01*
X0427079Y0210142D01*
X0427053Y0209996D01*
X0427023Y0209851D01*
X0426990Y0209707D01*
X0426952Y0209564D01*
X0426911Y0209422D01*
X0426866Y0209281D01*
X0426818Y0209141D01*
X0426765Y0209002D01*
X0426709Y0208865D01*
X0426649Y0208730D01*
X0426586Y0208596D01*
X0426519Y0208464D01*
X0426448Y0208334D01*
X0426374Y0208206D01*
X0426297Y0208080D01*
X0426216Y0207956D01*
X0426132Y0207834D01*
X0426045Y0207715D01*
X0425954Y0207598D01*
X0425860Y0207483D01*
X0425764Y0207371D01*
X0425664Y0207261D01*
X0425562Y0207155D01*
X0425456Y0207051D01*
X0425348Y0206950D01*
X0425237Y0206852D01*
X0425124Y0206756D01*
X0425008Y0206664D01*
X0424890Y0206575D01*
X0424769Y0206490D01*
X0424646Y0206407D01*
X0424521Y0206328D01*
X0424394Y0206252D01*
X0424265Y0206180D01*
X0424134Y0206111D01*
X0424001Y0206046D01*
X0423866Y0205985D01*
X0423730Y0205927D01*
X0423593Y0205872D01*
X0423454Y0205822D01*
X0423313Y0205775D01*
X0423172Y0205732D01*
X0423029Y0205692D01*
X0422885Y0205657D01*
X0422741Y0205625D01*
X0422595Y0205598D01*
X0422449Y0205574D01*
X0422302Y0205554D01*
X0422155Y0205538D01*
X0422008Y0205526D01*
X0421860Y0205518D01*
X0421712Y0205514D01*
X0421564Y0205514D01*
X0421416Y0205518D01*
X0421268Y0205526D01*
X0421121Y0205538D01*
X0420974Y0205554D01*
X0420827Y0205574D01*
X0420681Y0205598D01*
X0420535Y0205625D01*
X0420391Y0205657D01*
X0420247Y0205692D01*
X0420104Y0205732D01*
X0419963Y0205775D01*
X0419822Y0205822D01*
X0419683Y0205872D01*
X0419546Y0205927D01*
X0419410Y0205985D01*
X0419275Y0206046D01*
X0419142Y0206111D01*
X0419011Y0206180D01*
X0418882Y0206252D01*
X0418755Y0206328D01*
X0418630Y0206407D01*
X0418507Y0206490D01*
X0418386Y0206575D01*
X0418268Y0206664D01*
X0418152Y0206756D01*
X0418039Y0206852D01*
X0417928Y0206950D01*
X0417820Y0207051D01*
X0417714Y0207155D01*
X0417612Y0207261D01*
X0417512Y0207371D01*
X0417416Y0207483D01*
X0417322Y0207598D01*
X0417231Y0207715D01*
X0417144Y0207834D01*
X0417060Y0207956D01*
X0416979Y0208080D01*
X0416902Y0208206D01*
X0416828Y0208334D01*
X0416757Y0208464D01*
X0416690Y0208596D01*
X0416627Y0208730D01*
X0416567Y0208865D01*
X0416511Y0209002D01*
X0416458Y0209141D01*
X0416410Y0209281D01*
X0416365Y0209422D01*
X0416324Y0209564D01*
X0416286Y0209707D01*
X0416253Y0209851D01*
X0416223Y0209996D01*
X0416197Y0210142D01*
X0416176Y0210288D01*
X0416158Y0210435D01*
X0416144Y0210582D01*
X0416134Y0210730D01*
X0416128Y0210878D01*
X0416126Y0211026D01*
X0369797Y0065431D02*
X0369799Y0065512D01*
X0369805Y0065594D01*
X0369815Y0065675D01*
X0369829Y0065755D01*
X0369846Y0065834D01*
X0369868Y0065913D01*
X0369893Y0065990D01*
X0369922Y0066067D01*
X0369955Y0066141D01*
X0369992Y0066214D01*
X0370031Y0066285D01*
X0370075Y0066354D01*
X0370121Y0066421D01*
X0370171Y0066485D01*
X0370224Y0066547D01*
X0370280Y0066607D01*
X0370338Y0066663D01*
X0370400Y0066717D01*
X0370464Y0066768D01*
X0370530Y0066815D01*
X0370598Y0066859D01*
X0370669Y0066900D01*
X0370741Y0066937D01*
X0370816Y0066971D01*
X0370891Y0067001D01*
X0370969Y0067027D01*
X0371047Y0067050D01*
X0371126Y0067068D01*
X0371206Y0067083D01*
X0371287Y0067094D01*
X0371368Y0067101D01*
X0371450Y0067104D01*
X0371531Y0067103D01*
X0371612Y0067098D01*
X0371693Y0067089D01*
X0371774Y0067076D01*
X0371854Y0067059D01*
X0371932Y0067039D01*
X0372010Y0067014D01*
X0372087Y0066986D01*
X0372162Y0066954D01*
X0372235Y0066919D01*
X0372306Y0066880D01*
X0372376Y0066837D01*
X0372443Y0066792D01*
X0372509Y0066743D01*
X0372571Y0066691D01*
X0372631Y0066635D01*
X0372688Y0066577D01*
X0372743Y0066517D01*
X0372794Y0066453D01*
X0372842Y0066388D01*
X0372887Y0066320D01*
X0372929Y0066250D01*
X0372967Y0066178D01*
X0373002Y0066104D01*
X0373033Y0066029D01*
X0373060Y0065952D01*
X0373083Y0065874D01*
X0373103Y0065795D01*
X0373119Y0065715D01*
X0373131Y0065634D01*
X0373139Y0065553D01*
X0373143Y0065472D01*
X0373143Y0065390D01*
X0373139Y0065309D01*
X0373131Y0065228D01*
X0373119Y0065147D01*
X0373103Y0065067D01*
X0373083Y0064988D01*
X0373060Y0064910D01*
X0373033Y0064833D01*
X0373002Y0064758D01*
X0372967Y0064684D01*
X0372929Y0064612D01*
X0372887Y0064542D01*
X0372842Y0064474D01*
X0372794Y0064409D01*
X0372743Y0064345D01*
X0372688Y0064285D01*
X0372631Y0064227D01*
X0372571Y0064171D01*
X0372509Y0064119D01*
X0372443Y0064070D01*
X0372376Y0064025D01*
X0372307Y0063982D01*
X0372235Y0063943D01*
X0372162Y0063908D01*
X0372087Y0063876D01*
X0372010Y0063848D01*
X0371932Y0063823D01*
X0371854Y0063803D01*
X0371774Y0063786D01*
X0371693Y0063773D01*
X0371612Y0063764D01*
X0371531Y0063759D01*
X0371450Y0063758D01*
X0371368Y0063761D01*
X0371287Y0063768D01*
X0371206Y0063779D01*
X0371126Y0063794D01*
X0371047Y0063812D01*
X0370969Y0063835D01*
X0370891Y0063861D01*
X0370816Y0063891D01*
X0370741Y0063925D01*
X0370669Y0063962D01*
X0370598Y0064003D01*
X0370530Y0064047D01*
X0370464Y0064094D01*
X0370400Y0064145D01*
X0370338Y0064199D01*
X0370280Y0064255D01*
X0370224Y0064315D01*
X0370171Y0064377D01*
X0370121Y0064441D01*
X0370075Y0064508D01*
X0370031Y0064577D01*
X0369992Y0064648D01*
X0369955Y0064721D01*
X0369922Y0064795D01*
X0369893Y0064872D01*
X0369868Y0064949D01*
X0369846Y0065028D01*
X0369829Y0065107D01*
X0369815Y0065187D01*
X0369805Y0065268D01*
X0369799Y0065350D01*
X0369797Y0065431D01*
X0354837Y0065431D02*
X0354839Y0065512D01*
X0354845Y0065594D01*
X0354855Y0065675D01*
X0354869Y0065755D01*
X0354886Y0065834D01*
X0354908Y0065913D01*
X0354933Y0065990D01*
X0354962Y0066067D01*
X0354995Y0066141D01*
X0355032Y0066214D01*
X0355071Y0066285D01*
X0355115Y0066354D01*
X0355161Y0066421D01*
X0355211Y0066485D01*
X0355264Y0066547D01*
X0355320Y0066607D01*
X0355378Y0066663D01*
X0355440Y0066717D01*
X0355504Y0066768D01*
X0355570Y0066815D01*
X0355638Y0066859D01*
X0355709Y0066900D01*
X0355781Y0066937D01*
X0355856Y0066971D01*
X0355931Y0067001D01*
X0356009Y0067027D01*
X0356087Y0067050D01*
X0356166Y0067068D01*
X0356246Y0067083D01*
X0356327Y0067094D01*
X0356408Y0067101D01*
X0356490Y0067104D01*
X0356571Y0067103D01*
X0356652Y0067098D01*
X0356733Y0067089D01*
X0356814Y0067076D01*
X0356894Y0067059D01*
X0356972Y0067039D01*
X0357050Y0067014D01*
X0357127Y0066986D01*
X0357202Y0066954D01*
X0357275Y0066919D01*
X0357346Y0066880D01*
X0357416Y0066837D01*
X0357483Y0066792D01*
X0357549Y0066743D01*
X0357611Y0066691D01*
X0357671Y0066635D01*
X0357728Y0066577D01*
X0357783Y0066517D01*
X0357834Y0066453D01*
X0357882Y0066388D01*
X0357927Y0066320D01*
X0357969Y0066250D01*
X0358007Y0066178D01*
X0358042Y0066104D01*
X0358073Y0066029D01*
X0358100Y0065952D01*
X0358123Y0065874D01*
X0358143Y0065795D01*
X0358159Y0065715D01*
X0358171Y0065634D01*
X0358179Y0065553D01*
X0358183Y0065472D01*
X0358183Y0065390D01*
X0358179Y0065309D01*
X0358171Y0065228D01*
X0358159Y0065147D01*
X0358143Y0065067D01*
X0358123Y0064988D01*
X0358100Y0064910D01*
X0358073Y0064833D01*
X0358042Y0064758D01*
X0358007Y0064684D01*
X0357969Y0064612D01*
X0357927Y0064542D01*
X0357882Y0064474D01*
X0357834Y0064409D01*
X0357783Y0064345D01*
X0357728Y0064285D01*
X0357671Y0064227D01*
X0357611Y0064171D01*
X0357549Y0064119D01*
X0357483Y0064070D01*
X0357416Y0064025D01*
X0357347Y0063982D01*
X0357275Y0063943D01*
X0357202Y0063908D01*
X0357127Y0063876D01*
X0357050Y0063848D01*
X0356972Y0063823D01*
X0356894Y0063803D01*
X0356814Y0063786D01*
X0356733Y0063773D01*
X0356652Y0063764D01*
X0356571Y0063759D01*
X0356490Y0063758D01*
X0356408Y0063761D01*
X0356327Y0063768D01*
X0356246Y0063779D01*
X0356166Y0063794D01*
X0356087Y0063812D01*
X0356009Y0063835D01*
X0355931Y0063861D01*
X0355856Y0063891D01*
X0355781Y0063925D01*
X0355709Y0063962D01*
X0355638Y0064003D01*
X0355570Y0064047D01*
X0355504Y0064094D01*
X0355440Y0064145D01*
X0355378Y0064199D01*
X0355320Y0064255D01*
X0355264Y0064315D01*
X0355211Y0064377D01*
X0355161Y0064441D01*
X0355115Y0064508D01*
X0355071Y0064577D01*
X0355032Y0064648D01*
X0354995Y0064721D01*
X0354962Y0064795D01*
X0354933Y0064872D01*
X0354908Y0064949D01*
X0354886Y0065028D01*
X0354869Y0065107D01*
X0354855Y0065187D01*
X0354845Y0065268D01*
X0354839Y0065350D01*
X0354837Y0065431D01*
X0464300Y0066300D02*
X0464303Y0066545D01*
X0464312Y0066791D01*
X0464327Y0067036D01*
X0464348Y0067280D01*
X0464375Y0067524D01*
X0464408Y0067767D01*
X0464447Y0068010D01*
X0464492Y0068251D01*
X0464543Y0068491D01*
X0464600Y0068730D01*
X0464662Y0068967D01*
X0464731Y0069203D01*
X0464805Y0069437D01*
X0464885Y0069669D01*
X0464970Y0069899D01*
X0465061Y0070127D01*
X0465158Y0070352D01*
X0465260Y0070576D01*
X0465368Y0070796D01*
X0465481Y0071014D01*
X0465599Y0071229D01*
X0465723Y0071441D01*
X0465851Y0071650D01*
X0465985Y0071856D01*
X0466124Y0072058D01*
X0466268Y0072257D01*
X0466417Y0072452D01*
X0466570Y0072644D01*
X0466728Y0072832D01*
X0466890Y0073016D01*
X0467058Y0073195D01*
X0467229Y0073371D01*
X0467405Y0073542D01*
X0467584Y0073710D01*
X0467768Y0073872D01*
X0467956Y0074030D01*
X0468148Y0074183D01*
X0468343Y0074332D01*
X0468542Y0074476D01*
X0468744Y0074615D01*
X0468950Y0074749D01*
X0469159Y0074877D01*
X0469371Y0075001D01*
X0469586Y0075119D01*
X0469804Y0075232D01*
X0470024Y0075340D01*
X0470248Y0075442D01*
X0470473Y0075539D01*
X0470701Y0075630D01*
X0470931Y0075715D01*
X0471163Y0075795D01*
X0471397Y0075869D01*
X0471633Y0075938D01*
X0471870Y0076000D01*
X0472109Y0076057D01*
X0472349Y0076108D01*
X0472590Y0076153D01*
X0472833Y0076192D01*
X0473076Y0076225D01*
X0473320Y0076252D01*
X0473564Y0076273D01*
X0473809Y0076288D01*
X0474055Y0076297D01*
X0474300Y0076300D01*
X0474545Y0076297D01*
X0474791Y0076288D01*
X0475036Y0076273D01*
X0475280Y0076252D01*
X0475524Y0076225D01*
X0475767Y0076192D01*
X0476010Y0076153D01*
X0476251Y0076108D01*
X0476491Y0076057D01*
X0476730Y0076000D01*
X0476967Y0075938D01*
X0477203Y0075869D01*
X0477437Y0075795D01*
X0477669Y0075715D01*
X0477899Y0075630D01*
X0478127Y0075539D01*
X0478352Y0075442D01*
X0478576Y0075340D01*
X0478796Y0075232D01*
X0479014Y0075119D01*
X0479229Y0075001D01*
X0479441Y0074877D01*
X0479650Y0074749D01*
X0479856Y0074615D01*
X0480058Y0074476D01*
X0480257Y0074332D01*
X0480452Y0074183D01*
X0480644Y0074030D01*
X0480832Y0073872D01*
X0481016Y0073710D01*
X0481195Y0073542D01*
X0481371Y0073371D01*
X0481542Y0073195D01*
X0481710Y0073016D01*
X0481872Y0072832D01*
X0482030Y0072644D01*
X0482183Y0072452D01*
X0482332Y0072257D01*
X0482476Y0072058D01*
X0482615Y0071856D01*
X0482749Y0071650D01*
X0482877Y0071441D01*
X0483001Y0071229D01*
X0483119Y0071014D01*
X0483232Y0070796D01*
X0483340Y0070576D01*
X0483442Y0070352D01*
X0483539Y0070127D01*
X0483630Y0069899D01*
X0483715Y0069669D01*
X0483795Y0069437D01*
X0483869Y0069203D01*
X0483938Y0068967D01*
X0484000Y0068730D01*
X0484057Y0068491D01*
X0484108Y0068251D01*
X0484153Y0068010D01*
X0484192Y0067767D01*
X0484225Y0067524D01*
X0484252Y0067280D01*
X0484273Y0067036D01*
X0484288Y0066791D01*
X0484297Y0066545D01*
X0484300Y0066300D01*
X0484297Y0066055D01*
X0484288Y0065809D01*
X0484273Y0065564D01*
X0484252Y0065320D01*
X0484225Y0065076D01*
X0484192Y0064833D01*
X0484153Y0064590D01*
X0484108Y0064349D01*
X0484057Y0064109D01*
X0484000Y0063870D01*
X0483938Y0063633D01*
X0483869Y0063397D01*
X0483795Y0063163D01*
X0483715Y0062931D01*
X0483630Y0062701D01*
X0483539Y0062473D01*
X0483442Y0062248D01*
X0483340Y0062024D01*
X0483232Y0061804D01*
X0483119Y0061586D01*
X0483001Y0061371D01*
X0482877Y0061159D01*
X0482749Y0060950D01*
X0482615Y0060744D01*
X0482476Y0060542D01*
X0482332Y0060343D01*
X0482183Y0060148D01*
X0482030Y0059956D01*
X0481872Y0059768D01*
X0481710Y0059584D01*
X0481542Y0059405D01*
X0481371Y0059229D01*
X0481195Y0059058D01*
X0481016Y0058890D01*
X0480832Y0058728D01*
X0480644Y0058570D01*
X0480452Y0058417D01*
X0480257Y0058268D01*
X0480058Y0058124D01*
X0479856Y0057985D01*
X0479650Y0057851D01*
X0479441Y0057723D01*
X0479229Y0057599D01*
X0479014Y0057481D01*
X0478796Y0057368D01*
X0478576Y0057260D01*
X0478352Y0057158D01*
X0478127Y0057061D01*
X0477899Y0056970D01*
X0477669Y0056885D01*
X0477437Y0056805D01*
X0477203Y0056731D01*
X0476967Y0056662D01*
X0476730Y0056600D01*
X0476491Y0056543D01*
X0476251Y0056492D01*
X0476010Y0056447D01*
X0475767Y0056408D01*
X0475524Y0056375D01*
X0475280Y0056348D01*
X0475036Y0056327D01*
X0474791Y0056312D01*
X0474545Y0056303D01*
X0474300Y0056300D01*
X0474055Y0056303D01*
X0473809Y0056312D01*
X0473564Y0056327D01*
X0473320Y0056348D01*
X0473076Y0056375D01*
X0472833Y0056408D01*
X0472590Y0056447D01*
X0472349Y0056492D01*
X0472109Y0056543D01*
X0471870Y0056600D01*
X0471633Y0056662D01*
X0471397Y0056731D01*
X0471163Y0056805D01*
X0470931Y0056885D01*
X0470701Y0056970D01*
X0470473Y0057061D01*
X0470248Y0057158D01*
X0470024Y0057260D01*
X0469804Y0057368D01*
X0469586Y0057481D01*
X0469371Y0057599D01*
X0469159Y0057723D01*
X0468950Y0057851D01*
X0468744Y0057985D01*
X0468542Y0058124D01*
X0468343Y0058268D01*
X0468148Y0058417D01*
X0467956Y0058570D01*
X0467768Y0058728D01*
X0467584Y0058890D01*
X0467405Y0059058D01*
X0467229Y0059229D01*
X0467058Y0059405D01*
X0466890Y0059584D01*
X0466728Y0059768D01*
X0466570Y0059956D01*
X0466417Y0060148D01*
X0466268Y0060343D01*
X0466124Y0060542D01*
X0465985Y0060744D01*
X0465851Y0060950D01*
X0465723Y0061159D01*
X0465599Y0061371D01*
X0465481Y0061586D01*
X0465368Y0061804D01*
X0465260Y0062024D01*
X0465158Y0062248D01*
X0465061Y0062473D01*
X0464970Y0062701D01*
X0464885Y0062931D01*
X0464805Y0063163D01*
X0464731Y0063397D01*
X0464662Y0063633D01*
X0464600Y0063870D01*
X0464543Y0064109D01*
X0464492Y0064349D01*
X0464447Y0064590D01*
X0464408Y0064833D01*
X0464375Y0065076D01*
X0464348Y0065320D01*
X0464327Y0065564D01*
X0464312Y0065809D01*
X0464303Y0066055D01*
X0464300Y0066300D01*
D11*
X0453300Y0097938D02*
X0448696Y0097938D01*
X0448696Y0100240D01*
X0449463Y0101007D01*
X0450998Y0101007D01*
X0451765Y0100240D01*
X0451765Y0097938D01*
X0451765Y0099473D02*
X0453300Y0101007D01*
X0453300Y0102542D02*
X0453300Y0105611D01*
X0453300Y0104077D02*
X0448696Y0104077D01*
X0450231Y0102542D01*
X0450231Y0107146D02*
X0448696Y0108681D01*
X0453300Y0108681D01*
X0453300Y0110215D02*
X0453300Y0107146D01*
X0453300Y0114938D02*
X0448696Y0114938D01*
X0448696Y0117240D01*
X0449463Y0118007D01*
X0450998Y0118007D01*
X0451765Y0117240D01*
X0451765Y0114938D01*
X0451765Y0116473D02*
X0453300Y0118007D01*
X0453300Y0119542D02*
X0453300Y0122611D01*
X0453300Y0121077D02*
X0448696Y0121077D01*
X0450231Y0119542D01*
X0449463Y0124146D02*
X0448696Y0124913D01*
X0448696Y0126448D01*
X0449463Y0127215D01*
X0450231Y0127215D01*
X0453300Y0124146D01*
X0453300Y0127215D01*
X0411015Y0109264D02*
X0411015Y0104660D01*
X0407946Y0109264D01*
X0407946Y0104660D01*
X0406411Y0105427D02*
X0406411Y0108497D01*
X0405644Y0109264D01*
X0404109Y0109264D01*
X0403342Y0108497D01*
X0403342Y0105427D01*
X0404109Y0104660D01*
X0405644Y0104660D01*
X0406411Y0105427D01*
X0387988Y0110350D02*
X0387988Y0114954D01*
X0385686Y0112652D01*
X0388755Y0112652D01*
X0384151Y0112652D02*
X0384151Y0114187D01*
X0383384Y0114954D01*
X0381082Y0114954D01*
X0381082Y0110350D01*
X0381082Y0111885D02*
X0383384Y0111885D01*
X0384151Y0112652D01*
X0382617Y0111885D02*
X0384151Y0110350D01*
X0373900Y0125550D02*
X0356100Y0125550D01*
X0344795Y0121152D02*
X0344795Y0118790D01*
X0344795Y0121152D02*
X0338102Y0127845D01*
X0319205Y0127845D01*
X0319205Y0118790D01*
X0319205Y0111310D02*
X0319205Y0102255D01*
X0338102Y0102255D01*
X0344795Y0108948D01*
X0344795Y0111310D01*
X0343615Y0111310D02*
X0343520Y0111027D01*
X0343418Y0110746D01*
X0343309Y0110469D01*
X0343194Y0110193D01*
X0343072Y0109921D01*
X0342943Y0109652D01*
X0342808Y0109386D01*
X0342666Y0109124D01*
X0342518Y0108865D01*
X0342364Y0108609D01*
X0342203Y0108358D01*
X0342036Y0108110D01*
X0341864Y0107867D01*
X0341685Y0107628D01*
X0341501Y0107393D01*
X0341311Y0107163D01*
X0341115Y0106938D01*
X0340914Y0106718D01*
X0340708Y0106502D01*
X0340496Y0106292D01*
X0340280Y0106087D01*
X0340058Y0105887D01*
X0339831Y0105693D01*
X0339600Y0105504D01*
X0339365Y0105321D01*
X0339125Y0105144D01*
X0338880Y0104973D01*
X0338632Y0104808D01*
X0338379Y0104649D01*
X0338123Y0104496D01*
X0337863Y0104349D01*
X0337600Y0104209D01*
X0337333Y0104075D01*
X0337063Y0103948D01*
X0336790Y0103828D01*
X0336515Y0103714D01*
X0336236Y0103607D01*
X0335955Y0103507D01*
X0335672Y0103414D01*
X0335386Y0103327D01*
X0335098Y0103248D01*
X0334809Y0103176D01*
X0334518Y0103111D01*
X0334225Y0103053D01*
X0333931Y0103002D01*
X0333636Y0102958D01*
X0333340Y0102922D01*
X0333043Y0102893D01*
X0332745Y0102871D01*
X0332447Y0102856D01*
X0332149Y0102849D01*
X0331851Y0102849D01*
X0331553Y0102856D01*
X0331255Y0102871D01*
X0330957Y0102893D01*
X0330660Y0102922D01*
X0330364Y0102958D01*
X0330069Y0103002D01*
X0329775Y0103053D01*
X0329482Y0103111D01*
X0329191Y0103176D01*
X0328902Y0103248D01*
X0328614Y0103327D01*
X0328328Y0103414D01*
X0328045Y0103507D01*
X0327764Y0103607D01*
X0327485Y0103714D01*
X0327210Y0103828D01*
X0326937Y0103948D01*
X0326667Y0104075D01*
X0326400Y0104209D01*
X0326137Y0104349D01*
X0325877Y0104496D01*
X0325621Y0104649D01*
X0325368Y0104808D01*
X0325120Y0104973D01*
X0324875Y0105144D01*
X0324635Y0105321D01*
X0324400Y0105504D01*
X0324169Y0105693D01*
X0323942Y0105887D01*
X0323720Y0106087D01*
X0323504Y0106292D01*
X0323292Y0106502D01*
X0323086Y0106718D01*
X0322885Y0106938D01*
X0322689Y0107163D01*
X0322499Y0107393D01*
X0322315Y0107628D01*
X0322136Y0107867D01*
X0321964Y0108110D01*
X0321797Y0108358D01*
X0321636Y0108609D01*
X0321482Y0108865D01*
X0321334Y0109124D01*
X0321192Y0109386D01*
X0321057Y0109652D01*
X0320928Y0109921D01*
X0320806Y0110193D01*
X0320691Y0110469D01*
X0320582Y0110746D01*
X0320480Y0111027D01*
X0320385Y0111310D01*
X0320385Y0118790D02*
X0320480Y0119073D01*
X0320582Y0119354D01*
X0320691Y0119631D01*
X0320806Y0119907D01*
X0320928Y0120179D01*
X0321057Y0120448D01*
X0321192Y0120714D01*
X0321334Y0120976D01*
X0321482Y0121235D01*
X0321636Y0121491D01*
X0321797Y0121742D01*
X0321964Y0121990D01*
X0322136Y0122233D01*
X0322315Y0122472D01*
X0322499Y0122707D01*
X0322689Y0122937D01*
X0322885Y0123162D01*
X0323086Y0123382D01*
X0323292Y0123598D01*
X0323504Y0123808D01*
X0323720Y0124013D01*
X0323942Y0124213D01*
X0324169Y0124407D01*
X0324400Y0124596D01*
X0324635Y0124779D01*
X0324875Y0124956D01*
X0325120Y0125127D01*
X0325368Y0125292D01*
X0325621Y0125451D01*
X0325877Y0125604D01*
X0326137Y0125751D01*
X0326400Y0125891D01*
X0326667Y0126025D01*
X0326937Y0126152D01*
X0327210Y0126272D01*
X0327485Y0126386D01*
X0327764Y0126493D01*
X0328045Y0126593D01*
X0328328Y0126686D01*
X0328614Y0126773D01*
X0328902Y0126852D01*
X0329191Y0126924D01*
X0329482Y0126989D01*
X0329775Y0127047D01*
X0330069Y0127098D01*
X0330364Y0127142D01*
X0330660Y0127178D01*
X0330957Y0127207D01*
X0331255Y0127229D01*
X0331553Y0127244D01*
X0331851Y0127251D01*
X0332149Y0127251D01*
X0332447Y0127244D01*
X0332745Y0127229D01*
X0333043Y0127207D01*
X0333340Y0127178D01*
X0333636Y0127142D01*
X0333931Y0127098D01*
X0334225Y0127047D01*
X0334518Y0126989D01*
X0334809Y0126924D01*
X0335098Y0126852D01*
X0335386Y0126773D01*
X0335672Y0126686D01*
X0335955Y0126593D01*
X0336236Y0126493D01*
X0336515Y0126386D01*
X0336790Y0126272D01*
X0337063Y0126152D01*
X0337333Y0126025D01*
X0337600Y0125891D01*
X0337863Y0125751D01*
X0338123Y0125604D01*
X0338379Y0125451D01*
X0338632Y0125292D01*
X0338880Y0125127D01*
X0339125Y0124956D01*
X0339365Y0124779D01*
X0339600Y0124596D01*
X0339831Y0124407D01*
X0340058Y0124213D01*
X0340280Y0124013D01*
X0340496Y0123808D01*
X0340708Y0123598D01*
X0340914Y0123382D01*
X0341115Y0123162D01*
X0341311Y0122937D01*
X0341501Y0122707D01*
X0341685Y0122472D01*
X0341864Y0122233D01*
X0342036Y0121990D01*
X0342203Y0121742D01*
X0342364Y0121491D01*
X0342518Y0121235D01*
X0342666Y0120976D01*
X0342808Y0120714D01*
X0342943Y0120448D01*
X0343072Y0120179D01*
X0343194Y0119907D01*
X0343309Y0119631D01*
X0343418Y0119354D01*
X0343520Y0119073D01*
X0343615Y0118790D01*
X0335620Y0137250D02*
X0334686Y0137250D01*
X0334219Y0137717D01*
X0335153Y0138651D02*
X0335620Y0138651D01*
X0336087Y0138184D01*
X0336087Y0137717D01*
X0335620Y0137250D01*
X0335620Y0138651D02*
X0336087Y0139118D01*
X0336087Y0139585D01*
X0335620Y0140052D01*
X0334686Y0140052D01*
X0334219Y0139585D01*
X0326987Y0139548D02*
X0326520Y0140015D01*
X0325586Y0140015D01*
X0325119Y0139548D01*
X0326987Y0139548D02*
X0326987Y0139081D01*
X0325119Y0137213D01*
X0326987Y0137213D01*
X0318475Y0137250D02*
X0316607Y0137250D01*
X0317541Y0137250D02*
X0317541Y0140052D01*
X0316607Y0139118D01*
X0301795Y0140255D02*
X0292740Y0140255D01*
X0301795Y0140255D02*
X0301795Y0159152D01*
X0295102Y0165845D01*
X0292740Y0165845D01*
X0285260Y0165845D02*
X0282898Y0165845D01*
X0276205Y0159152D01*
X0276205Y0140255D01*
X0285260Y0140255D01*
X0292740Y0141435D02*
X0293023Y0141530D01*
X0293304Y0141632D01*
X0293581Y0141741D01*
X0293857Y0141856D01*
X0294129Y0141978D01*
X0294398Y0142107D01*
X0294664Y0142242D01*
X0294926Y0142384D01*
X0295185Y0142532D01*
X0295441Y0142686D01*
X0295692Y0142847D01*
X0295940Y0143014D01*
X0296183Y0143186D01*
X0296422Y0143365D01*
X0296657Y0143549D01*
X0296887Y0143739D01*
X0297112Y0143935D01*
X0297332Y0144136D01*
X0297548Y0144342D01*
X0297758Y0144554D01*
X0297963Y0144770D01*
X0298163Y0144992D01*
X0298357Y0145219D01*
X0298546Y0145450D01*
X0298729Y0145685D01*
X0298906Y0145925D01*
X0299077Y0146170D01*
X0299242Y0146418D01*
X0299401Y0146671D01*
X0299554Y0146927D01*
X0299701Y0147187D01*
X0299841Y0147450D01*
X0299975Y0147717D01*
X0300102Y0147987D01*
X0300222Y0148260D01*
X0300336Y0148535D01*
X0300443Y0148814D01*
X0300543Y0149095D01*
X0300636Y0149378D01*
X0300723Y0149664D01*
X0300802Y0149952D01*
X0300874Y0150241D01*
X0300939Y0150532D01*
X0300997Y0150825D01*
X0301048Y0151119D01*
X0301092Y0151414D01*
X0301128Y0151710D01*
X0301157Y0152007D01*
X0301179Y0152305D01*
X0301194Y0152603D01*
X0301201Y0152901D01*
X0301201Y0153199D01*
X0301194Y0153497D01*
X0301179Y0153795D01*
X0301157Y0154093D01*
X0301128Y0154390D01*
X0301092Y0154686D01*
X0301048Y0154981D01*
X0300997Y0155275D01*
X0300939Y0155568D01*
X0300874Y0155859D01*
X0300802Y0156148D01*
X0300723Y0156436D01*
X0300636Y0156722D01*
X0300543Y0157005D01*
X0300443Y0157286D01*
X0300336Y0157565D01*
X0300222Y0157840D01*
X0300102Y0158113D01*
X0299975Y0158383D01*
X0299841Y0158650D01*
X0299701Y0158913D01*
X0299554Y0159173D01*
X0299401Y0159429D01*
X0299242Y0159682D01*
X0299077Y0159930D01*
X0298906Y0160175D01*
X0298729Y0160415D01*
X0298546Y0160650D01*
X0298357Y0160881D01*
X0298163Y0161108D01*
X0297963Y0161330D01*
X0297758Y0161546D01*
X0297548Y0161758D01*
X0297332Y0161964D01*
X0297112Y0162165D01*
X0296887Y0162361D01*
X0296657Y0162551D01*
X0296422Y0162735D01*
X0296183Y0162914D01*
X0295940Y0163086D01*
X0295692Y0163253D01*
X0295441Y0163414D01*
X0295185Y0163568D01*
X0294926Y0163716D01*
X0294664Y0163858D01*
X0294398Y0163993D01*
X0294129Y0164122D01*
X0293857Y0164244D01*
X0293581Y0164359D01*
X0293304Y0164468D01*
X0293023Y0164570D01*
X0292740Y0164665D01*
X0285260Y0164665D02*
X0284977Y0164570D01*
X0284696Y0164468D01*
X0284419Y0164359D01*
X0284143Y0164244D01*
X0283871Y0164122D01*
X0283602Y0163993D01*
X0283336Y0163858D01*
X0283074Y0163716D01*
X0282815Y0163568D01*
X0282559Y0163414D01*
X0282308Y0163253D01*
X0282060Y0163086D01*
X0281817Y0162914D01*
X0281578Y0162735D01*
X0281343Y0162551D01*
X0281113Y0162361D01*
X0280888Y0162165D01*
X0280668Y0161964D01*
X0280452Y0161758D01*
X0280242Y0161546D01*
X0280037Y0161330D01*
X0279837Y0161108D01*
X0279643Y0160881D01*
X0279454Y0160650D01*
X0279271Y0160415D01*
X0279094Y0160175D01*
X0278923Y0159930D01*
X0278758Y0159682D01*
X0278599Y0159429D01*
X0278446Y0159173D01*
X0278299Y0158913D01*
X0278159Y0158650D01*
X0278025Y0158383D01*
X0277898Y0158113D01*
X0277778Y0157840D01*
X0277664Y0157565D01*
X0277557Y0157286D01*
X0277457Y0157005D01*
X0277364Y0156722D01*
X0277277Y0156436D01*
X0277198Y0156148D01*
X0277126Y0155859D01*
X0277061Y0155568D01*
X0277003Y0155275D01*
X0276952Y0154981D01*
X0276908Y0154686D01*
X0276872Y0154390D01*
X0276843Y0154093D01*
X0276821Y0153795D01*
X0276806Y0153497D01*
X0276799Y0153199D01*
X0276799Y0152901D01*
X0276806Y0152603D01*
X0276821Y0152305D01*
X0276843Y0152007D01*
X0276872Y0151710D01*
X0276908Y0151414D01*
X0276952Y0151119D01*
X0277003Y0150825D01*
X0277061Y0150532D01*
X0277126Y0150241D01*
X0277198Y0149952D01*
X0277277Y0149664D01*
X0277364Y0149378D01*
X0277457Y0149095D01*
X0277557Y0148814D01*
X0277664Y0148535D01*
X0277778Y0148260D01*
X0277898Y0147987D01*
X0278025Y0147717D01*
X0278159Y0147450D01*
X0278299Y0147187D01*
X0278446Y0146927D01*
X0278599Y0146671D01*
X0278758Y0146418D01*
X0278923Y0146170D01*
X0279094Y0145925D01*
X0279271Y0145685D01*
X0279454Y0145450D01*
X0279643Y0145219D01*
X0279837Y0144992D01*
X0280037Y0144770D01*
X0280242Y0144554D01*
X0280452Y0144342D01*
X0280668Y0144136D01*
X0280888Y0143935D01*
X0281113Y0143739D01*
X0281343Y0143549D01*
X0281578Y0143365D01*
X0281817Y0143186D01*
X0282060Y0143014D01*
X0282308Y0142847D01*
X0282559Y0142686D01*
X0282815Y0142532D01*
X0283074Y0142384D01*
X0283336Y0142242D01*
X0283602Y0142107D01*
X0283871Y0141978D01*
X0284143Y0141856D01*
X0284419Y0141741D01*
X0284696Y0141632D01*
X0284977Y0141530D01*
X0285260Y0141435D01*
X0320200Y0154450D02*
X0321735Y0154450D01*
X0320967Y0154450D02*
X0320967Y0159054D01*
X0320200Y0159054D02*
X0321735Y0159054D01*
X0323269Y0158287D02*
X0323269Y0155217D01*
X0324037Y0154450D01*
X0325571Y0154450D01*
X0326339Y0155217D01*
X0327873Y0154450D02*
X0330942Y0154450D01*
X0329408Y0154450D02*
X0329408Y0159054D01*
X0327873Y0157519D01*
X0326339Y0158287D02*
X0325571Y0159054D01*
X0324037Y0159054D01*
X0323269Y0158287D01*
X0337700Y0165651D02*
X0339568Y0165651D01*
X0339101Y0164250D02*
X0339101Y0167052D01*
X0337700Y0165651D01*
X0338196Y0184250D02*
X0342800Y0184250D01*
X0342800Y0187319D01*
X0326300Y0188819D02*
X0324765Y0187285D01*
X0324765Y0188052D02*
X0324765Y0185750D01*
X0326300Y0185750D02*
X0321696Y0185750D01*
X0321696Y0188052D01*
X0322463Y0188819D01*
X0323998Y0188819D01*
X0324765Y0188052D01*
X0325533Y0190354D02*
X0326300Y0191121D01*
X0326300Y0192656D01*
X0325533Y0193423D01*
X0322463Y0193423D01*
X0321696Y0192656D01*
X0321696Y0191121D01*
X0322463Y0190354D01*
X0323231Y0190354D01*
X0323998Y0191121D01*
X0323998Y0193423D01*
X0316208Y0203760D02*
X0316208Y0208364D01*
X0313906Y0206062D01*
X0316975Y0206062D01*
X0312371Y0203760D02*
X0309302Y0203760D01*
X0307767Y0203760D02*
X0306233Y0205295D01*
X0307000Y0205295D02*
X0304698Y0205295D01*
X0304698Y0203760D02*
X0304698Y0208364D01*
X0307000Y0208364D01*
X0307767Y0207597D01*
X0307767Y0206062D01*
X0307000Y0205295D01*
X0309302Y0206829D02*
X0310837Y0208364D01*
X0310837Y0203760D01*
X0275433Y0189057D02*
X0275433Y0188289D01*
X0274666Y0187522D01*
X0275433Y0186755D01*
X0275433Y0185987D01*
X0274666Y0185220D01*
X0273131Y0185220D01*
X0272364Y0185987D01*
X0270829Y0185987D02*
X0270062Y0185220D01*
X0268527Y0185220D01*
X0267760Y0185987D01*
X0267760Y0189057D01*
X0268527Y0189824D01*
X0270062Y0189824D01*
X0270829Y0189057D01*
X0270829Y0185987D01*
X0270829Y0185220D02*
X0269295Y0186755D01*
X0272364Y0189057D02*
X0273131Y0189824D01*
X0274666Y0189824D01*
X0275433Y0189057D01*
X0274666Y0187522D02*
X0273899Y0187522D01*
X0262690Y0182190D02*
X0262690Y0180655D01*
X0261923Y0179888D01*
X0260388Y0179888D02*
X0259621Y0181422D01*
X0259621Y0182190D01*
X0260388Y0182957D01*
X0261923Y0182957D01*
X0262690Y0182190D01*
X0260388Y0179888D02*
X0258086Y0179888D01*
X0258086Y0182957D01*
X0262690Y0178353D02*
X0262690Y0175284D01*
X0262690Y0176819D02*
X0258086Y0176819D01*
X0259621Y0175284D01*
X0260388Y0173749D02*
X0258853Y0173749D01*
X0258086Y0172982D01*
X0258086Y0170680D01*
X0262690Y0170680D01*
X0261155Y0170680D02*
X0261155Y0172982D01*
X0260388Y0173749D01*
X0261155Y0172215D02*
X0262690Y0173749D01*
X0235650Y0189970D02*
X0231046Y0189970D01*
X0231046Y0192272D01*
X0231813Y0193039D01*
X0233348Y0193039D01*
X0234115Y0192272D01*
X0234115Y0189970D01*
X0234115Y0191505D02*
X0235650Y0193039D01*
X0234883Y0194574D02*
X0235650Y0195341D01*
X0235650Y0196876D01*
X0234883Y0197643D01*
X0234115Y0197643D01*
X0233348Y0196876D01*
X0233348Y0196109D01*
X0233348Y0196876D02*
X0232581Y0197643D01*
X0231813Y0197643D01*
X0231046Y0196876D01*
X0231046Y0195341D01*
X0231813Y0194574D01*
X0206495Y0174344D02*
X0204961Y0173577D01*
X0203426Y0172042D01*
X0205728Y0172042D01*
X0206495Y0171275D01*
X0206495Y0170507D01*
X0205728Y0169740D01*
X0204193Y0169740D01*
X0203426Y0170507D01*
X0203426Y0172042D01*
X0201891Y0169740D02*
X0198822Y0169740D01*
X0197287Y0169740D02*
X0195753Y0171275D01*
X0196520Y0171275D02*
X0194218Y0171275D01*
X0194218Y0169740D02*
X0194218Y0174344D01*
X0196520Y0174344D01*
X0197287Y0173577D01*
X0197287Y0172042D01*
X0196520Y0171275D01*
X0198822Y0172809D02*
X0200357Y0174344D01*
X0200357Y0169740D01*
X0196839Y0137854D02*
X0195304Y0136319D01*
X0193769Y0137087D02*
X0193002Y0137854D01*
X0191467Y0137854D01*
X0190700Y0137087D01*
X0190700Y0134017D01*
X0191467Y0133250D01*
X0193002Y0133250D01*
X0193769Y0134017D01*
X0195304Y0133250D02*
X0198373Y0133250D01*
X0196839Y0133250D02*
X0196839Y0137854D01*
X0179615Y0128837D02*
X0176546Y0125767D01*
X0177313Y0125000D01*
X0178848Y0125000D01*
X0179615Y0125767D01*
X0179615Y0128837D01*
X0178848Y0129604D01*
X0177313Y0129604D01*
X0176546Y0128837D01*
X0176546Y0125767D01*
X0175011Y0125000D02*
X0171942Y0125000D01*
X0170407Y0125000D02*
X0168873Y0126535D01*
X0169640Y0126535D02*
X0167338Y0126535D01*
X0167338Y0125000D02*
X0167338Y0129604D01*
X0169640Y0129604D01*
X0170407Y0128837D01*
X0170407Y0127302D01*
X0169640Y0126535D01*
X0171942Y0128069D02*
X0173477Y0129604D01*
X0173477Y0125000D01*
X0165777Y0127637D02*
X0162708Y0124567D01*
X0162708Y0123800D01*
X0161173Y0123800D02*
X0158104Y0123800D01*
X0159639Y0123800D02*
X0159639Y0128404D01*
X0158104Y0126869D01*
X0156569Y0126102D02*
X0155802Y0125335D01*
X0153500Y0125335D01*
X0155035Y0125335D02*
X0156569Y0123800D01*
X0156569Y0126102D02*
X0156569Y0127637D01*
X0155802Y0128404D01*
X0153500Y0128404D01*
X0153500Y0123800D01*
X0162708Y0128404D02*
X0165777Y0128404D01*
X0165777Y0127637D01*
X0181492Y0106354D02*
X0183794Y0106354D01*
X0184561Y0105587D01*
X0184561Y0102517D01*
X0183794Y0101750D01*
X0181492Y0101750D01*
X0181492Y0106354D01*
X0186096Y0105587D02*
X0186863Y0106354D01*
X0188398Y0106354D01*
X0189165Y0105587D01*
X0189165Y0104819D01*
X0188398Y0104052D01*
X0189165Y0103285D01*
X0189165Y0102517D01*
X0188398Y0101750D01*
X0186863Y0101750D01*
X0186096Y0102517D01*
X0187631Y0104052D02*
X0188398Y0104052D01*
X0145517Y0105320D02*
X0145517Y0102251D01*
X0140913Y0102251D01*
X0140913Y0105320D01*
X0140913Y0106855D02*
X0140913Y0109924D01*
X0140913Y0108389D02*
X0145517Y0108389D01*
X0143215Y0103785D02*
X0143215Y0102251D01*
X0143982Y0100716D02*
X0144749Y0100716D01*
X0145517Y0099949D01*
X0145517Y0098414D01*
X0144749Y0097647D01*
X0143215Y0098414D02*
X0143215Y0099949D01*
X0143982Y0100716D01*
X0141680Y0100716D02*
X0140913Y0099949D01*
X0140913Y0098414D01*
X0141680Y0097647D01*
X0142447Y0097647D01*
X0143215Y0098414D01*
X0145517Y0096112D02*
X0145517Y0093043D01*
X0140913Y0093043D01*
X0140913Y0096112D01*
X0143215Y0094578D02*
X0143215Y0093043D01*
X0143215Y0091508D02*
X0143982Y0090741D01*
X0143982Y0088439D01*
X0145517Y0088439D02*
X0140913Y0088439D01*
X0140913Y0090741D01*
X0141680Y0091508D01*
X0143215Y0091508D01*
X0143982Y0089974D02*
X0145517Y0091508D01*
X0260016Y0218060D02*
X0260016Y0220362D01*
X0260783Y0221129D01*
X0262318Y0221129D01*
X0263085Y0220362D01*
X0263085Y0218060D01*
X0263085Y0219595D02*
X0264620Y0221129D01*
X0264620Y0222664D02*
X0261551Y0225733D01*
X0260783Y0225733D01*
X0260016Y0224966D01*
X0260016Y0223431D01*
X0260783Y0222664D01*
X0264620Y0222664D02*
X0264620Y0225733D01*
X0264620Y0218060D02*
X0260016Y0218060D01*
X0275798Y0231073D02*
X0275798Y0232607D01*
X0275798Y0231840D02*
X0280402Y0231840D01*
X0280402Y0231073D02*
X0280402Y0232607D01*
X0279635Y0234142D02*
X0280402Y0234909D01*
X0280402Y0236444D01*
X0279635Y0237211D01*
X0279635Y0238746D02*
X0280402Y0239513D01*
X0280402Y0241048D01*
X0279635Y0241815D01*
X0278867Y0241815D01*
X0278100Y0241048D01*
X0278100Y0240281D01*
X0278100Y0241048D02*
X0277333Y0241815D01*
X0276565Y0241815D01*
X0275798Y0241048D01*
X0275798Y0239513D01*
X0276565Y0238746D01*
X0276565Y0237211D02*
X0275798Y0236444D01*
X0275798Y0234909D01*
X0276565Y0234142D01*
X0279635Y0234142D01*
X0262065Y0244117D02*
X0261298Y0243350D01*
X0259763Y0243350D01*
X0258996Y0244117D01*
X0257461Y0244117D02*
X0256694Y0243350D01*
X0255159Y0243350D01*
X0254392Y0244117D01*
X0254392Y0247187D01*
X0255159Y0247954D01*
X0256694Y0247954D01*
X0257461Y0247187D01*
X0258996Y0247187D02*
X0259763Y0247954D01*
X0261298Y0247954D01*
X0262065Y0247187D01*
X0262065Y0246419D01*
X0261298Y0245652D01*
X0262065Y0244885D01*
X0262065Y0244117D01*
X0261298Y0245652D02*
X0260531Y0245652D01*
X0262118Y0259730D02*
X0262118Y0264334D01*
X0259816Y0262032D01*
X0262885Y0262032D01*
X0258281Y0263567D02*
X0257514Y0264334D01*
X0255979Y0264334D01*
X0255212Y0263567D01*
X0255212Y0260497D01*
X0255979Y0259730D01*
X0257514Y0259730D01*
X0258281Y0260497D01*
X0258154Y0275110D02*
X0258921Y0275877D01*
X0258154Y0275110D02*
X0256619Y0275110D01*
X0255852Y0275877D01*
X0255852Y0278947D01*
X0256619Y0279714D01*
X0258154Y0279714D01*
X0258921Y0278947D01*
X0260456Y0279714D02*
X0260456Y0277412D01*
X0261991Y0278179D01*
X0262758Y0278179D01*
X0263525Y0277412D01*
X0263525Y0275877D01*
X0262758Y0275110D01*
X0261223Y0275110D01*
X0260456Y0275877D01*
X0260456Y0279714D02*
X0263525Y0279714D01*
X0262898Y0289070D02*
X0263665Y0289837D01*
X0263665Y0290605D01*
X0262898Y0291372D01*
X0260596Y0291372D01*
X0260596Y0289837D01*
X0261363Y0289070D01*
X0262898Y0289070D01*
X0260596Y0291372D02*
X0262131Y0292907D01*
X0263665Y0293674D01*
X0259061Y0292907D02*
X0258294Y0293674D01*
X0256759Y0293674D01*
X0255992Y0292907D01*
X0255992Y0289837D01*
X0256759Y0289070D01*
X0258294Y0289070D01*
X0259061Y0289837D01*
X0279696Y0310750D02*
X0279696Y0313052D01*
X0280463Y0313819D01*
X0281998Y0313819D01*
X0282765Y0313052D01*
X0282765Y0310750D01*
X0282765Y0312285D02*
X0284300Y0313819D01*
X0284300Y0315354D02*
X0284300Y0318423D01*
X0284300Y0316889D02*
X0279696Y0316889D01*
X0281231Y0315354D01*
X0280463Y0319958D02*
X0279696Y0320725D01*
X0279696Y0322260D01*
X0280463Y0323027D01*
X0281231Y0323027D01*
X0281998Y0322260D01*
X0282765Y0323027D01*
X0283533Y0323027D01*
X0284300Y0322260D01*
X0284300Y0320725D01*
X0283533Y0319958D01*
X0281998Y0321492D02*
X0281998Y0322260D01*
X0284300Y0310750D02*
X0279696Y0310750D01*
X0361190Y0256124D02*
X0361190Y0251520D01*
X0361190Y0253055D02*
X0363492Y0253055D01*
X0364259Y0253822D01*
X0364259Y0255357D01*
X0363492Y0256124D01*
X0361190Y0256124D01*
X0362725Y0253055D02*
X0364259Y0251520D01*
X0365794Y0251520D02*
X0368863Y0251520D01*
X0367329Y0251520D02*
X0367329Y0256124D01*
X0365794Y0254589D01*
X0362839Y0146354D02*
X0362839Y0141750D01*
X0364373Y0141750D02*
X0361304Y0141750D01*
X0359769Y0142517D02*
X0359769Y0145587D01*
X0359002Y0146354D01*
X0356700Y0146354D01*
X0356700Y0141750D01*
X0359002Y0141750D01*
X0359769Y0142517D01*
X0361304Y0144819D02*
X0362839Y0146354D01*
X0356100Y0140550D02*
X0373900Y0140550D01*
X0327278Y0085314D02*
X0325743Y0085314D01*
X0324976Y0084547D01*
X0323441Y0084547D02*
X0322674Y0085314D01*
X0321139Y0085314D01*
X0320372Y0084547D01*
X0320372Y0081477D01*
X0321139Y0080710D01*
X0322674Y0080710D01*
X0323441Y0081477D01*
X0324976Y0080710D02*
X0328045Y0083779D01*
X0328045Y0084547D01*
X0327278Y0085314D01*
X0328045Y0080710D02*
X0324976Y0080710D01*
D12*
X0348242Y0068581D02*
X0352179Y0068581D01*
X0348270Y0068510D02*
X0348270Y0064644D01*
X0348242Y0064644D01*
X0348242Y0052833D02*
X0348242Y0048896D01*
X0379738Y0048896D02*
X0379738Y0052833D01*
X0379738Y0064644D02*
X0379738Y0068581D01*
X0375801Y0068581D01*
X0198000Y0191050D02*
X0198000Y0195050D01*
X0198000Y0201050D02*
X0198000Y0205050D01*
X0221000Y0217050D02*
X0221000Y0221050D01*
X0221000Y0228050D02*
X0221000Y0232050D01*
D13*
X0229300Y0232452D02*
X0229300Y0229850D01*
X0229300Y0230717D02*
X0230601Y0230717D01*
X0231035Y0231151D01*
X0231035Y0232019D01*
X0230601Y0232452D01*
X0229300Y0232452D01*
X0230167Y0230717D02*
X0231035Y0229850D01*
X0232247Y0230284D02*
X0232680Y0229850D01*
X0233548Y0229850D01*
X0233981Y0230284D01*
X0233981Y0230717D01*
X0233548Y0231151D01*
X0232247Y0231151D01*
X0232247Y0230284D01*
X0232247Y0231151D02*
X0233114Y0232019D01*
X0233981Y0232452D01*
X0235234Y0235350D02*
X0234800Y0235784D01*
X0235234Y0235350D02*
X0236101Y0235350D01*
X0236535Y0235784D01*
X0236535Y0236217D01*
X0236101Y0236651D01*
X0235234Y0236651D01*
X0234800Y0237085D01*
X0234800Y0237519D01*
X0235234Y0237952D01*
X0236101Y0237952D01*
X0236535Y0237519D01*
X0237747Y0235784D02*
X0238180Y0235350D01*
X0238614Y0235350D01*
X0239048Y0235784D01*
X0239048Y0237952D01*
X0239481Y0237952D02*
X0238614Y0237952D01*
X0240693Y0236651D02*
X0242428Y0236651D01*
X0241994Y0235350D02*
X0241994Y0237952D01*
X0240693Y0236651D01*
X0241127Y0226952D02*
X0241994Y0226952D01*
X0242428Y0226519D01*
X0242428Y0226085D01*
X0241994Y0225651D01*
X0242428Y0225217D01*
X0242428Y0224784D01*
X0241994Y0224350D01*
X0241127Y0224350D01*
X0240693Y0224784D01*
X0241560Y0225651D02*
X0241994Y0225651D01*
X0240693Y0226519D02*
X0241127Y0226952D01*
X0239481Y0226952D02*
X0238614Y0226952D01*
X0239048Y0226952D02*
X0239048Y0224784D01*
X0238614Y0224350D01*
X0238180Y0224350D01*
X0237747Y0224784D01*
X0236535Y0224784D02*
X0236101Y0224350D01*
X0235234Y0224350D01*
X0234800Y0224784D01*
X0235234Y0225651D02*
X0236101Y0225651D01*
X0236535Y0225217D01*
X0236535Y0224784D01*
X0235234Y0225651D02*
X0234800Y0226085D01*
X0234800Y0226519D01*
X0235234Y0226952D01*
X0236101Y0226952D01*
X0236535Y0226519D01*
X0212088Y0219252D02*
X0210353Y0219252D01*
X0210353Y0217951D01*
X0211221Y0218385D01*
X0211655Y0218385D01*
X0212088Y0217951D01*
X0212088Y0217084D01*
X0211655Y0216650D01*
X0210787Y0216650D01*
X0210353Y0217084D01*
X0209142Y0216650D02*
X0208274Y0217517D01*
X0208708Y0217517D02*
X0207407Y0217517D01*
X0207407Y0216650D02*
X0207407Y0219252D01*
X0208708Y0219252D01*
X0209142Y0218819D01*
X0209142Y0217951D01*
X0208708Y0217517D01*
X0209247Y0205452D02*
X0210981Y0205452D01*
X0210981Y0205019D01*
X0209247Y0203284D01*
X0209247Y0202850D01*
X0208035Y0202850D02*
X0207167Y0203717D01*
X0207601Y0203717D02*
X0206300Y0203717D01*
X0206300Y0202850D02*
X0206300Y0205452D01*
X0207601Y0205452D01*
X0208035Y0205019D01*
X0208035Y0204151D01*
X0207601Y0203717D01*
X0189088Y0192819D02*
X0188655Y0193252D01*
X0187787Y0193252D01*
X0187353Y0192819D01*
X0187353Y0192385D01*
X0187787Y0191951D01*
X0189088Y0191951D01*
X0189088Y0191084D02*
X0189088Y0192819D01*
X0189088Y0191084D02*
X0188655Y0190650D01*
X0187787Y0190650D01*
X0187353Y0191084D01*
X0186142Y0191084D02*
X0185708Y0190650D01*
X0184841Y0190650D01*
X0184407Y0191084D01*
X0184407Y0192819D01*
X0184841Y0193252D01*
X0185708Y0193252D01*
X0186142Y0192819D01*
X0184500Y0095050D02*
X0182000Y0092550D01*
X0182000Y0087550D01*
X0184500Y0085050D01*
X0189500Y0085050D01*
X0192000Y0087550D01*
X0194500Y0085050D01*
X0199500Y0085050D01*
X0202000Y0087550D01*
X0202000Y0092550D01*
X0199500Y0095050D01*
X0194500Y0095050D01*
X0192000Y0092550D01*
X0192000Y0087550D01*
X0192000Y0092550D02*
X0189500Y0095050D01*
X0184500Y0095050D01*
X0182000Y0092550D02*
X0179500Y0095050D01*
X0174500Y0095050D01*
X0172000Y0092550D01*
X0172000Y0087550D01*
X0169500Y0085050D01*
X0164500Y0085050D01*
X0162000Y0087550D01*
X0159500Y0085050D01*
X0154500Y0085050D01*
X0152000Y0087550D01*
X0152000Y0092550D01*
X0154500Y0095050D01*
X0159500Y0095050D01*
X0162000Y0092550D01*
X0164500Y0095050D01*
X0169500Y0095050D01*
X0172000Y0092550D01*
X0172000Y0087550D02*
X0174500Y0085050D01*
X0179500Y0085050D01*
X0182000Y0087550D01*
X0202000Y0087550D02*
X0204500Y0085050D01*
X0209500Y0085050D01*
X0212000Y0087550D01*
X0214500Y0085050D01*
X0219500Y0085050D01*
X0222000Y0087550D01*
X0224500Y0085050D01*
X0229500Y0085050D01*
X0232000Y0087550D01*
X0232000Y0092550D01*
X0229500Y0095050D01*
X0224500Y0095050D01*
X0222000Y0092550D01*
X0222000Y0087550D01*
X0222000Y0092550D02*
X0219500Y0095050D01*
X0214500Y0095050D01*
X0212000Y0092550D01*
X0212000Y0087550D01*
X0212000Y0092550D02*
X0209500Y0095050D01*
X0204500Y0095050D01*
X0202000Y0092550D01*
X0162000Y0092550D02*
X0162000Y0087550D01*
X0382000Y0148550D02*
X0384500Y0146050D01*
X0399500Y0146050D01*
X0402000Y0148550D01*
X0402000Y0153550D01*
X0399500Y0156050D01*
X0384500Y0156050D01*
X0382000Y0153550D01*
X0382000Y0148550D01*
X0384500Y0156050D02*
X0382000Y0158550D01*
X0382000Y0163550D01*
X0384500Y0166050D01*
X0399500Y0166050D01*
X0402000Y0163550D01*
X0402000Y0158550D01*
X0399500Y0156050D01*
X0399500Y0166050D02*
X0402000Y0168550D01*
X0402000Y0173550D01*
X0399500Y0176050D01*
X0384500Y0176050D01*
X0382000Y0173550D01*
X0382000Y0168550D01*
X0384500Y0166050D01*
X0421000Y0166550D02*
X0421000Y0161550D01*
X0423500Y0159050D01*
X0428500Y0159050D01*
X0431000Y0161550D01*
X0431000Y0166550D01*
X0428500Y0169050D01*
X0431000Y0171550D01*
X0431000Y0176550D01*
X0428500Y0179050D01*
X0423500Y0179050D01*
X0421000Y0176550D01*
X0421000Y0171550D01*
X0423500Y0169050D01*
X0428500Y0169050D01*
X0423500Y0169050D02*
X0421000Y0166550D01*
X0423500Y0159050D02*
X0421000Y0156550D01*
X0421000Y0151550D01*
X0423500Y0149050D01*
X0428500Y0149050D01*
X0431000Y0146550D01*
X0431000Y0141550D01*
X0428500Y0139050D01*
X0431000Y0136550D01*
X0431000Y0131550D01*
X0428500Y0129050D01*
X0431000Y0126550D01*
X0431000Y0121550D01*
X0428500Y0119050D01*
X0431000Y0116550D01*
X0431000Y0111550D01*
X0428500Y0109050D01*
X0431000Y0106550D01*
X0431000Y0101550D01*
X0428500Y0099050D01*
X0423500Y0099050D01*
X0421000Y0101550D01*
X0421000Y0106550D01*
X0423500Y0109050D01*
X0421000Y0111550D01*
X0421000Y0116550D01*
X0423500Y0119050D01*
X0428500Y0119050D01*
X0423500Y0119050D02*
X0421000Y0121550D01*
X0421000Y0126550D01*
X0423500Y0129050D01*
X0421000Y0131550D01*
X0421000Y0136550D01*
X0423500Y0139050D01*
X0421000Y0141550D01*
X0421000Y0146550D01*
X0423500Y0149050D01*
X0428500Y0149050D02*
X0431000Y0151550D01*
X0431000Y0156550D01*
X0428500Y0159050D01*
X0428500Y0139050D02*
X0423500Y0139050D01*
X0423500Y0129050D02*
X0428500Y0129050D01*
X0428500Y0109050D02*
X0423500Y0109050D01*
D14*
X0365760Y0129113D02*
X0365760Y0136987D01*
X0361732Y0133050D01*
X0365760Y0129113D01*
X0342900Y0147050D02*
X0317100Y0147050D01*
X0317100Y0161050D01*
X0342900Y0161050D01*
X0342900Y0147050D01*
X0300000Y0082190D02*
X0291000Y0082190D01*
X0300000Y0082190D02*
X0300000Y0075190D01*
X0300000Y0057190D02*
X0300000Y0026190D01*
X0248000Y0026190D01*
X0248000Y0057190D01*
X0248000Y0075190D02*
X0248000Y0082190D01*
X0257000Y0082190D01*
X0185969Y0111050D02*
X0182031Y0113019D01*
X0182031Y0109081D01*
X0185969Y0111050D01*
X0111087Y0064976D02*
X0075653Y0064976D01*
X0075653Y0294504D01*
X0110693Y0294504D01*
X0111087Y0294504D02*
X0111087Y0064976D01*
X0081559Y0171079D02*
X0075653Y0171079D01*
X0081559Y0171079D02*
X0081559Y0188401D01*
X0075653Y0188401D01*
X0116520Y0201184D02*
X0116520Y0342916D01*
X0431480Y0342916D01*
X0431480Y0201184D01*
X0116520Y0201184D01*
X0133646Y0220278D02*
X0133646Y0323822D01*
X0414354Y0323822D01*
X0414354Y0220278D01*
X0133646Y0220278D01*
X0082445Y0272240D02*
X0082445Y0277240D01*
X0234500Y0233050D02*
X0234500Y0227050D01*
X0234502Y0226990D01*
X0234507Y0226929D01*
X0234516Y0226870D01*
X0234529Y0226811D01*
X0234545Y0226752D01*
X0234565Y0226695D01*
X0234588Y0226640D01*
X0234615Y0226585D01*
X0234644Y0226533D01*
X0234677Y0226482D01*
X0234713Y0226433D01*
X0234751Y0226387D01*
X0234793Y0226343D01*
X0234837Y0226301D01*
X0234883Y0226263D01*
X0234932Y0226227D01*
X0234983Y0226194D01*
X0235035Y0226165D01*
X0235090Y0226138D01*
X0235145Y0226115D01*
X0235202Y0226095D01*
X0235261Y0226079D01*
X0235320Y0226066D01*
X0235379Y0226057D01*
X0235440Y0226052D01*
X0235500Y0226050D01*
X0246500Y0226050D01*
X0246560Y0226052D01*
X0246621Y0226057D01*
X0246680Y0226066D01*
X0246739Y0226079D01*
X0246798Y0226095D01*
X0246855Y0226115D01*
X0246910Y0226138D01*
X0246965Y0226165D01*
X0247017Y0226194D01*
X0247068Y0226227D01*
X0247117Y0226263D01*
X0247163Y0226301D01*
X0247207Y0226343D01*
X0247249Y0226387D01*
X0247287Y0226433D01*
X0247323Y0226482D01*
X0247356Y0226533D01*
X0247385Y0226585D01*
X0247412Y0226640D01*
X0247435Y0226695D01*
X0247455Y0226752D01*
X0247471Y0226811D01*
X0247484Y0226870D01*
X0247493Y0226929D01*
X0247498Y0226990D01*
X0247500Y0227050D01*
X0247500Y0233050D01*
X0247498Y0233110D01*
X0247493Y0233171D01*
X0247484Y0233230D01*
X0247471Y0233289D01*
X0247455Y0233348D01*
X0247435Y0233405D01*
X0247412Y0233460D01*
X0247385Y0233515D01*
X0247356Y0233567D01*
X0247323Y0233618D01*
X0247287Y0233667D01*
X0247249Y0233713D01*
X0247207Y0233757D01*
X0247163Y0233799D01*
X0247117Y0233837D01*
X0247068Y0233873D01*
X0247017Y0233906D01*
X0246965Y0233935D01*
X0246910Y0233962D01*
X0246855Y0233985D01*
X0246798Y0234005D01*
X0246739Y0234021D01*
X0246680Y0234034D01*
X0246621Y0234043D01*
X0246560Y0234048D01*
X0246500Y0234050D01*
X0235500Y0234050D01*
X0235440Y0234048D01*
X0235379Y0234043D01*
X0235320Y0234034D01*
X0235261Y0234021D01*
X0235202Y0234005D01*
X0235145Y0233985D01*
X0235090Y0233962D01*
X0235035Y0233935D01*
X0234983Y0233906D01*
X0234932Y0233873D01*
X0234883Y0233837D01*
X0234837Y0233799D01*
X0234793Y0233757D01*
X0234751Y0233713D01*
X0234713Y0233667D01*
X0234677Y0233618D01*
X0234644Y0233567D01*
X0234615Y0233515D01*
X0234588Y0233460D01*
X0234565Y0233405D01*
X0234545Y0233348D01*
X0234529Y0233289D01*
X0234516Y0233230D01*
X0234507Y0233171D01*
X0234502Y0233110D01*
X0234500Y0233050D01*
X0235500Y0223050D02*
X0246500Y0223050D01*
X0246560Y0223048D01*
X0246621Y0223043D01*
X0246680Y0223034D01*
X0246739Y0223021D01*
X0246798Y0223005D01*
X0246855Y0222985D01*
X0246910Y0222962D01*
X0246965Y0222935D01*
X0247017Y0222906D01*
X0247068Y0222873D01*
X0247117Y0222837D01*
X0247163Y0222799D01*
X0247207Y0222757D01*
X0247249Y0222713D01*
X0247287Y0222667D01*
X0247323Y0222618D01*
X0247356Y0222567D01*
X0247385Y0222515D01*
X0247412Y0222460D01*
X0247435Y0222405D01*
X0247455Y0222348D01*
X0247471Y0222289D01*
X0247484Y0222230D01*
X0247493Y0222171D01*
X0247498Y0222110D01*
X0247500Y0222050D01*
X0247500Y0216050D01*
X0247498Y0215990D01*
X0247493Y0215929D01*
X0247484Y0215870D01*
X0247471Y0215811D01*
X0247455Y0215752D01*
X0247435Y0215695D01*
X0247412Y0215640D01*
X0247385Y0215585D01*
X0247356Y0215533D01*
X0247323Y0215482D01*
X0247287Y0215433D01*
X0247249Y0215387D01*
X0247207Y0215343D01*
X0247163Y0215301D01*
X0247117Y0215263D01*
X0247068Y0215227D01*
X0247017Y0215194D01*
X0246965Y0215165D01*
X0246910Y0215138D01*
X0246855Y0215115D01*
X0246798Y0215095D01*
X0246739Y0215079D01*
X0246680Y0215066D01*
X0246621Y0215057D01*
X0246560Y0215052D01*
X0246500Y0215050D01*
X0235500Y0215050D01*
X0235440Y0215052D01*
X0235379Y0215057D01*
X0235320Y0215066D01*
X0235261Y0215079D01*
X0235202Y0215095D01*
X0235145Y0215115D01*
X0235090Y0215138D01*
X0235035Y0215165D01*
X0234983Y0215194D01*
X0234932Y0215227D01*
X0234883Y0215263D01*
X0234837Y0215301D01*
X0234793Y0215343D01*
X0234751Y0215387D01*
X0234713Y0215433D01*
X0234677Y0215482D01*
X0234644Y0215533D01*
X0234615Y0215585D01*
X0234588Y0215640D01*
X0234565Y0215695D01*
X0234545Y0215752D01*
X0234529Y0215811D01*
X0234516Y0215870D01*
X0234507Y0215929D01*
X0234502Y0215990D01*
X0234500Y0216050D01*
X0234500Y0222050D01*
X0234502Y0222110D01*
X0234507Y0222171D01*
X0234516Y0222230D01*
X0234529Y0222289D01*
X0234545Y0222348D01*
X0234565Y0222405D01*
X0234588Y0222460D01*
X0234615Y0222515D01*
X0234644Y0222567D01*
X0234677Y0222618D01*
X0234713Y0222667D01*
X0234751Y0222713D01*
X0234793Y0222757D01*
X0234837Y0222799D01*
X0234883Y0222837D01*
X0234932Y0222873D01*
X0234983Y0222906D01*
X0235035Y0222935D01*
X0235090Y0222962D01*
X0235145Y0222985D01*
X0235202Y0223005D01*
X0235261Y0223021D01*
X0235320Y0223034D01*
X0235379Y0223043D01*
X0235440Y0223048D01*
X0235500Y0223050D01*
D15*
X0186200Y0111050D03*
D16*
X0292394Y0228491D02*
X0343575Y0228491D01*
X0344559Y0229475D01*
X0344559Y0282625D01*
X0343575Y0283609D01*
X0290425Y0283609D01*
X0289441Y0282625D01*
X0289441Y0231444D01*
X0292394Y0228491D01*
X0292394Y0232428D02*
X0292396Y0232490D01*
X0292402Y0232553D01*
X0292412Y0232614D01*
X0292426Y0232675D01*
X0292443Y0232735D01*
X0292464Y0232794D01*
X0292490Y0232851D01*
X0292518Y0232906D01*
X0292550Y0232960D01*
X0292586Y0233011D01*
X0292624Y0233061D01*
X0292666Y0233107D01*
X0292710Y0233151D01*
X0292758Y0233192D01*
X0292807Y0233230D01*
X0292859Y0233264D01*
X0292913Y0233295D01*
X0292969Y0233323D01*
X0293027Y0233347D01*
X0293086Y0233368D01*
X0293146Y0233384D01*
X0293207Y0233397D01*
X0293269Y0233406D01*
X0293331Y0233411D01*
X0293394Y0233412D01*
X0293456Y0233409D01*
X0293518Y0233402D01*
X0293580Y0233391D01*
X0293640Y0233376D01*
X0293700Y0233358D01*
X0293758Y0233336D01*
X0293815Y0233310D01*
X0293870Y0233280D01*
X0293923Y0233247D01*
X0293974Y0233211D01*
X0294022Y0233172D01*
X0294068Y0233129D01*
X0294111Y0233084D01*
X0294151Y0233036D01*
X0294188Y0232986D01*
X0294222Y0232933D01*
X0294253Y0232879D01*
X0294279Y0232823D01*
X0294303Y0232765D01*
X0294322Y0232705D01*
X0294338Y0232645D01*
X0294350Y0232583D01*
X0294358Y0232522D01*
X0294362Y0232459D01*
X0294362Y0232397D01*
X0294358Y0232334D01*
X0294350Y0232273D01*
X0294338Y0232211D01*
X0294322Y0232151D01*
X0294303Y0232091D01*
X0294279Y0232033D01*
X0294253Y0231977D01*
X0294222Y0231923D01*
X0294188Y0231870D01*
X0294151Y0231820D01*
X0294111Y0231772D01*
X0294068Y0231727D01*
X0294022Y0231684D01*
X0293974Y0231645D01*
X0293923Y0231609D01*
X0293870Y0231576D01*
X0293815Y0231546D01*
X0293758Y0231520D01*
X0293700Y0231498D01*
X0293640Y0231480D01*
X0293580Y0231465D01*
X0293518Y0231454D01*
X0293456Y0231447D01*
X0293394Y0231444D01*
X0293331Y0231445D01*
X0293269Y0231450D01*
X0293207Y0231459D01*
X0293146Y0231472D01*
X0293086Y0231488D01*
X0293027Y0231509D01*
X0292969Y0231533D01*
X0292913Y0231561D01*
X0292859Y0231592D01*
X0292807Y0231626D01*
X0292758Y0231664D01*
X0292710Y0231705D01*
X0292666Y0231749D01*
X0292624Y0231795D01*
X0292586Y0231845D01*
X0292550Y0231896D01*
X0292518Y0231950D01*
X0292490Y0232005D01*
X0292464Y0232062D01*
X0292443Y0232121D01*
X0292426Y0232181D01*
X0292412Y0232242D01*
X0292402Y0232303D01*
X0292396Y0232366D01*
X0292394Y0232428D01*
X0442500Y0177050D02*
X0442500Y0167050D01*
X0457500Y0167050D01*
X0457500Y0177050D01*
X0442500Y0177050D01*
X0442500Y0347050D01*
X0457500Y0347050D01*
X0457500Y0177050D01*
D17*
X0409250Y0171696D02*
X0404746Y0171696D01*
X0404746Y0173948D01*
X0405497Y0174699D01*
X0406998Y0174699D01*
X0407749Y0173948D01*
X0407749Y0171696D01*
X0407749Y0170095D02*
X0408499Y0170095D01*
X0409250Y0169344D01*
X0409250Y0167843D01*
X0408499Y0167092D01*
X0408499Y0165491D02*
X0409250Y0164740D01*
X0409250Y0163239D01*
X0408499Y0162488D01*
X0405497Y0162488D01*
X0404746Y0163239D01*
X0404746Y0164740D01*
X0405497Y0165491D01*
X0405497Y0167092D02*
X0406247Y0167092D01*
X0406998Y0167843D01*
X0406998Y0169344D01*
X0407749Y0170095D01*
X0405497Y0170095D02*
X0404746Y0169344D01*
X0404746Y0167843D01*
X0405497Y0167092D01*
X0404746Y0160920D02*
X0404746Y0159419D01*
X0404746Y0160170D02*
X0409250Y0160170D01*
X0409250Y0160920D02*
X0409250Y0159419D01*
X0414046Y0128091D02*
X0418550Y0128091D01*
X0414046Y0125089D01*
X0418550Y0125089D01*
X0418550Y0123521D02*
X0418550Y0122020D01*
X0418550Y0122770D02*
X0414046Y0122770D01*
X0414046Y0122020D02*
X0414046Y0123521D01*
X0414797Y0120418D02*
X0416298Y0120418D01*
X0417049Y0119668D01*
X0417049Y0117416D01*
X0418550Y0117416D02*
X0414046Y0117416D01*
X0414046Y0119668D01*
X0414797Y0120418D01*
X0414046Y0115814D02*
X0414046Y0112812D01*
X0414046Y0114313D02*
X0418550Y0114313D01*
X0417799Y0111210D02*
X0418550Y0110460D01*
X0418550Y0108958D01*
X0417799Y0108208D01*
X0416298Y0108958D02*
X0416298Y0110460D01*
X0417049Y0111210D01*
X0417799Y0111210D01*
X0416298Y0108958D02*
X0415547Y0108208D01*
X0414797Y0108208D01*
X0414046Y0108958D01*
X0414046Y0110460D01*
X0414797Y0111210D01*
X0414046Y0106606D02*
X0414046Y0103604D01*
X0418550Y0103604D01*
X0418550Y0106606D01*
X0416298Y0105105D02*
X0416298Y0103604D01*
X0414046Y0102003D02*
X0414046Y0099000D01*
X0414046Y0100501D02*
X0418550Y0100501D01*
X0345240Y0055181D02*
X0345240Y0054547D01*
X0344923Y0054230D01*
X0344289Y0054864D02*
X0344289Y0055181D01*
X0344606Y0055498D01*
X0344923Y0055498D01*
X0345240Y0055181D01*
X0344289Y0055181D02*
X0343972Y0055498D01*
X0343655Y0055498D01*
X0343338Y0055181D01*
X0343338Y0054547D01*
X0343655Y0054230D01*
X0343338Y0053288D02*
X0343338Y0052654D01*
X0343338Y0052971D02*
X0344923Y0052971D01*
X0345240Y0052654D01*
X0345240Y0052337D01*
X0344923Y0052020D01*
X0246750Y0033918D02*
X0246750Y0032650D01*
X0245482Y0033918D01*
X0245165Y0033918D01*
X0244848Y0033601D01*
X0244848Y0032967D01*
X0245165Y0032650D01*
X0244848Y0031708D02*
X0244848Y0031074D01*
X0244848Y0031391D02*
X0246433Y0031391D01*
X0246750Y0031074D01*
X0246750Y0030757D01*
X0246433Y0030440D01*
X0175368Y0076500D02*
X0173867Y0078001D01*
X0174618Y0078001D02*
X0172366Y0078001D01*
X0172366Y0076500D02*
X0172366Y0081004D01*
X0174618Y0081004D01*
X0175368Y0080253D01*
X0175368Y0078752D01*
X0174618Y0078001D01*
X0170764Y0076500D02*
X0167762Y0076500D01*
X0167762Y0081004D01*
X0170764Y0081004D01*
X0169263Y0078752D02*
X0167762Y0078752D01*
X0166160Y0076500D02*
X0166160Y0081004D01*
X0163158Y0081004D02*
X0163158Y0076500D01*
X0164659Y0078001D01*
X0166160Y0076500D01*
X0161556Y0077251D02*
X0161556Y0080253D01*
X0160806Y0081004D01*
X0159305Y0081004D01*
X0158554Y0080253D01*
X0158554Y0077251D01*
X0159305Y0076500D01*
X0160806Y0076500D01*
X0161556Y0077251D01*
X0156953Y0078752D02*
X0156953Y0080253D01*
X0156202Y0081004D01*
X0153950Y0081004D01*
X0153950Y0076500D01*
X0153950Y0078001D02*
X0156202Y0078001D01*
X0156953Y0078752D01*
X0135874Y0088830D02*
X0135874Y0096113D01*
X0136661Y0096113D01*
X0136661Y0103987D01*
X0135874Y0103987D01*
X0135874Y0111270D01*
X0120126Y0111270D01*
X0120126Y0103987D01*
X0119339Y0103987D01*
X0119339Y0096113D01*
X0120126Y0096113D01*
X0120126Y0088830D01*
X0126031Y0088830D01*
X0126031Y0087845D01*
X0129969Y0087845D01*
X0129969Y0088830D01*
X0135874Y0088830D01*
X0135874Y0096113D02*
X0135087Y0096113D01*
X0135087Y0103987D01*
X0135874Y0103987D01*
X0123276Y0100050D02*
X0123278Y0100187D01*
X0123284Y0100325D01*
X0123294Y0100462D01*
X0123308Y0100598D01*
X0123326Y0100735D01*
X0123348Y0100870D01*
X0123374Y0101005D01*
X0123403Y0101139D01*
X0123437Y0101273D01*
X0123474Y0101405D01*
X0123516Y0101536D01*
X0123561Y0101666D01*
X0123610Y0101794D01*
X0123662Y0101921D01*
X0123719Y0102046D01*
X0123778Y0102170D01*
X0123842Y0102292D01*
X0123909Y0102412D01*
X0123979Y0102530D01*
X0124053Y0102646D01*
X0124130Y0102760D01*
X0124211Y0102871D01*
X0124294Y0102980D01*
X0124381Y0103087D01*
X0124471Y0103190D01*
X0124564Y0103292D01*
X0124660Y0103390D01*
X0124758Y0103486D01*
X0124860Y0103579D01*
X0124963Y0103669D01*
X0125070Y0103756D01*
X0125179Y0103839D01*
X0125290Y0103920D01*
X0125404Y0103997D01*
X0125520Y0104071D01*
X0125638Y0104141D01*
X0125758Y0104208D01*
X0125880Y0104272D01*
X0126004Y0104331D01*
X0126129Y0104388D01*
X0126256Y0104440D01*
X0126384Y0104489D01*
X0126514Y0104534D01*
X0126645Y0104576D01*
X0126777Y0104613D01*
X0126911Y0104647D01*
X0127045Y0104676D01*
X0127180Y0104702D01*
X0127315Y0104724D01*
X0127452Y0104742D01*
X0127588Y0104756D01*
X0127725Y0104766D01*
X0127863Y0104772D01*
X0128000Y0104774D01*
X0128137Y0104772D01*
X0128275Y0104766D01*
X0128412Y0104756D01*
X0128548Y0104742D01*
X0128685Y0104724D01*
X0128820Y0104702D01*
X0128955Y0104676D01*
X0129089Y0104647D01*
X0129223Y0104613D01*
X0129355Y0104576D01*
X0129486Y0104534D01*
X0129616Y0104489D01*
X0129744Y0104440D01*
X0129871Y0104388D01*
X0129996Y0104331D01*
X0130120Y0104272D01*
X0130242Y0104208D01*
X0130362Y0104141D01*
X0130480Y0104071D01*
X0130596Y0103997D01*
X0130710Y0103920D01*
X0130821Y0103839D01*
X0130930Y0103756D01*
X0131037Y0103669D01*
X0131140Y0103579D01*
X0131242Y0103486D01*
X0131340Y0103390D01*
X0131436Y0103292D01*
X0131529Y0103190D01*
X0131619Y0103087D01*
X0131706Y0102980D01*
X0131789Y0102871D01*
X0131870Y0102760D01*
X0131947Y0102646D01*
X0132021Y0102530D01*
X0132091Y0102412D01*
X0132158Y0102292D01*
X0132222Y0102170D01*
X0132281Y0102046D01*
X0132338Y0101921D01*
X0132390Y0101794D01*
X0132439Y0101666D01*
X0132484Y0101536D01*
X0132526Y0101405D01*
X0132563Y0101273D01*
X0132597Y0101139D01*
X0132626Y0101005D01*
X0132652Y0100870D01*
X0132674Y0100735D01*
X0132692Y0100598D01*
X0132706Y0100462D01*
X0132716Y0100325D01*
X0132722Y0100187D01*
X0132724Y0100050D01*
X0132722Y0099913D01*
X0132716Y0099775D01*
X0132706Y0099638D01*
X0132692Y0099502D01*
X0132674Y0099365D01*
X0132652Y0099230D01*
X0132626Y0099095D01*
X0132597Y0098961D01*
X0132563Y0098827D01*
X0132526Y0098695D01*
X0132484Y0098564D01*
X0132439Y0098434D01*
X0132390Y0098306D01*
X0132338Y0098179D01*
X0132281Y0098054D01*
X0132222Y0097930D01*
X0132158Y0097808D01*
X0132091Y0097688D01*
X0132021Y0097570D01*
X0131947Y0097454D01*
X0131870Y0097340D01*
X0131789Y0097229D01*
X0131706Y0097120D01*
X0131619Y0097013D01*
X0131529Y0096910D01*
X0131436Y0096808D01*
X0131340Y0096710D01*
X0131242Y0096614D01*
X0131140Y0096521D01*
X0131037Y0096431D01*
X0130930Y0096344D01*
X0130821Y0096261D01*
X0130710Y0096180D01*
X0130596Y0096103D01*
X0130480Y0096029D01*
X0130362Y0095959D01*
X0130242Y0095892D01*
X0130120Y0095828D01*
X0129996Y0095769D01*
X0129871Y0095712D01*
X0129744Y0095660D01*
X0129616Y0095611D01*
X0129486Y0095566D01*
X0129355Y0095524D01*
X0129223Y0095487D01*
X0129089Y0095453D01*
X0128955Y0095424D01*
X0128820Y0095398D01*
X0128685Y0095376D01*
X0128548Y0095358D01*
X0128412Y0095344D01*
X0128275Y0095334D01*
X0128137Y0095328D01*
X0128000Y0095326D01*
X0127863Y0095328D01*
X0127725Y0095334D01*
X0127588Y0095344D01*
X0127452Y0095358D01*
X0127315Y0095376D01*
X0127180Y0095398D01*
X0127045Y0095424D01*
X0126911Y0095453D01*
X0126777Y0095487D01*
X0126645Y0095524D01*
X0126514Y0095566D01*
X0126384Y0095611D01*
X0126256Y0095660D01*
X0126129Y0095712D01*
X0126004Y0095769D01*
X0125880Y0095828D01*
X0125758Y0095892D01*
X0125638Y0095959D01*
X0125520Y0096029D01*
X0125404Y0096103D01*
X0125290Y0096180D01*
X0125179Y0096261D01*
X0125070Y0096344D01*
X0124963Y0096431D01*
X0124860Y0096521D01*
X0124758Y0096614D01*
X0124660Y0096710D01*
X0124564Y0096808D01*
X0124471Y0096910D01*
X0124381Y0097013D01*
X0124294Y0097120D01*
X0124211Y0097229D01*
X0124130Y0097340D01*
X0124053Y0097454D01*
X0123979Y0097570D01*
X0123909Y0097688D01*
X0123842Y0097808D01*
X0123778Y0097930D01*
X0123719Y0098054D01*
X0123662Y0098179D01*
X0123610Y0098306D01*
X0123561Y0098434D01*
X0123516Y0098564D01*
X0123474Y0098695D01*
X0123437Y0098827D01*
X0123403Y0098961D01*
X0123374Y0099095D01*
X0123348Y0099230D01*
X0123326Y0099365D01*
X0123308Y0099502D01*
X0123294Y0099638D01*
X0123284Y0099775D01*
X0123278Y0099913D01*
X0123276Y0100050D01*
X0120913Y0096113D02*
X0120126Y0096113D01*
X0120913Y0096113D02*
X0120913Y0103987D01*
X0120126Y0103987D01*
X0122094Y0100050D02*
X0122096Y0100203D01*
X0122102Y0100357D01*
X0122112Y0100510D01*
X0122126Y0100662D01*
X0122144Y0100815D01*
X0122166Y0100966D01*
X0122191Y0101117D01*
X0122221Y0101268D01*
X0122255Y0101418D01*
X0122292Y0101566D01*
X0122333Y0101714D01*
X0122378Y0101860D01*
X0122427Y0102006D01*
X0122480Y0102150D01*
X0122536Y0102292D01*
X0122596Y0102433D01*
X0122660Y0102573D01*
X0122727Y0102711D01*
X0122798Y0102847D01*
X0122873Y0102981D01*
X0122950Y0103113D01*
X0123032Y0103243D01*
X0123116Y0103371D01*
X0123204Y0103497D01*
X0123295Y0103620D01*
X0123389Y0103741D01*
X0123487Y0103859D01*
X0123587Y0103975D01*
X0123691Y0104088D01*
X0123797Y0104199D01*
X0123906Y0104307D01*
X0124018Y0104412D01*
X0124132Y0104513D01*
X0124250Y0104612D01*
X0124369Y0104708D01*
X0124491Y0104801D01*
X0124616Y0104890D01*
X0124743Y0104977D01*
X0124872Y0105059D01*
X0125003Y0105139D01*
X0125136Y0105215D01*
X0125271Y0105288D01*
X0125408Y0105357D01*
X0125547Y0105422D01*
X0125687Y0105484D01*
X0125829Y0105542D01*
X0125972Y0105597D01*
X0126117Y0105648D01*
X0126263Y0105695D01*
X0126410Y0105738D01*
X0126558Y0105777D01*
X0126707Y0105813D01*
X0126857Y0105844D01*
X0127008Y0105872D01*
X0127159Y0105896D01*
X0127312Y0105916D01*
X0127464Y0105932D01*
X0127617Y0105944D01*
X0127770Y0105952D01*
X0127923Y0105956D01*
X0128077Y0105956D01*
X0128230Y0105952D01*
X0128383Y0105944D01*
X0128536Y0105932D01*
X0128688Y0105916D01*
X0128841Y0105896D01*
X0128992Y0105872D01*
X0129143Y0105844D01*
X0129293Y0105813D01*
X0129442Y0105777D01*
X0129590Y0105738D01*
X0129737Y0105695D01*
X0129883Y0105648D01*
X0130028Y0105597D01*
X0130171Y0105542D01*
X0130313Y0105484D01*
X0130453Y0105422D01*
X0130592Y0105357D01*
X0130729Y0105288D01*
X0130864Y0105215D01*
X0130997Y0105139D01*
X0131128Y0105059D01*
X0131257Y0104977D01*
X0131384Y0104890D01*
X0131509Y0104801D01*
X0131631Y0104708D01*
X0131750Y0104612D01*
X0131868Y0104513D01*
X0131982Y0104412D01*
X0132094Y0104307D01*
X0132203Y0104199D01*
X0132309Y0104088D01*
X0132413Y0103975D01*
X0132513Y0103859D01*
X0132611Y0103741D01*
X0132705Y0103620D01*
X0132796Y0103497D01*
X0132884Y0103371D01*
X0132968Y0103243D01*
X0133050Y0103113D01*
X0133127Y0102981D01*
X0133202Y0102847D01*
X0133273Y0102711D01*
X0133340Y0102573D01*
X0133404Y0102433D01*
X0133464Y0102292D01*
X0133520Y0102150D01*
X0133573Y0102006D01*
X0133622Y0101860D01*
X0133667Y0101714D01*
X0133708Y0101566D01*
X0133745Y0101418D01*
X0133779Y0101268D01*
X0133809Y0101117D01*
X0133834Y0100966D01*
X0133856Y0100815D01*
X0133874Y0100662D01*
X0133888Y0100510D01*
X0133898Y0100357D01*
X0133904Y0100203D01*
X0133906Y0100050D01*
X0133904Y0099897D01*
X0133898Y0099743D01*
X0133888Y0099590D01*
X0133874Y0099438D01*
X0133856Y0099285D01*
X0133834Y0099134D01*
X0133809Y0098983D01*
X0133779Y0098832D01*
X0133745Y0098682D01*
X0133708Y0098534D01*
X0133667Y0098386D01*
X0133622Y0098240D01*
X0133573Y0098094D01*
X0133520Y0097950D01*
X0133464Y0097808D01*
X0133404Y0097667D01*
X0133340Y0097527D01*
X0133273Y0097389D01*
X0133202Y0097253D01*
X0133127Y0097119D01*
X0133050Y0096987D01*
X0132968Y0096857D01*
X0132884Y0096729D01*
X0132796Y0096603D01*
X0132705Y0096480D01*
X0132611Y0096359D01*
X0132513Y0096241D01*
X0132413Y0096125D01*
X0132309Y0096012D01*
X0132203Y0095901D01*
X0132094Y0095793D01*
X0131982Y0095688D01*
X0131868Y0095587D01*
X0131750Y0095488D01*
X0131631Y0095392D01*
X0131509Y0095299D01*
X0131384Y0095210D01*
X0131257Y0095123D01*
X0131128Y0095041D01*
X0130997Y0094961D01*
X0130864Y0094885D01*
X0130729Y0094812D01*
X0130592Y0094743D01*
X0130453Y0094678D01*
X0130313Y0094616D01*
X0130171Y0094558D01*
X0130028Y0094503D01*
X0129883Y0094452D01*
X0129737Y0094405D01*
X0129590Y0094362D01*
X0129442Y0094323D01*
X0129293Y0094287D01*
X0129143Y0094256D01*
X0128992Y0094228D01*
X0128841Y0094204D01*
X0128688Y0094184D01*
X0128536Y0094168D01*
X0128383Y0094156D01*
X0128230Y0094148D01*
X0128077Y0094144D01*
X0127923Y0094144D01*
X0127770Y0094148D01*
X0127617Y0094156D01*
X0127464Y0094168D01*
X0127312Y0094184D01*
X0127159Y0094204D01*
X0127008Y0094228D01*
X0126857Y0094256D01*
X0126707Y0094287D01*
X0126558Y0094323D01*
X0126410Y0094362D01*
X0126263Y0094405D01*
X0126117Y0094452D01*
X0125972Y0094503D01*
X0125829Y0094558D01*
X0125687Y0094616D01*
X0125547Y0094678D01*
X0125408Y0094743D01*
X0125271Y0094812D01*
X0125136Y0094885D01*
X0125003Y0094961D01*
X0124872Y0095041D01*
X0124743Y0095123D01*
X0124616Y0095210D01*
X0124491Y0095299D01*
X0124369Y0095392D01*
X0124250Y0095488D01*
X0124132Y0095587D01*
X0124018Y0095688D01*
X0123906Y0095793D01*
X0123797Y0095901D01*
X0123691Y0096012D01*
X0123587Y0096125D01*
X0123487Y0096241D01*
X0123389Y0096359D01*
X0123295Y0096480D01*
X0123204Y0096603D01*
X0123116Y0096729D01*
X0123032Y0096857D01*
X0122950Y0096987D01*
X0122873Y0097119D01*
X0122798Y0097253D01*
X0122727Y0097389D01*
X0122660Y0097527D01*
X0122596Y0097667D01*
X0122536Y0097808D01*
X0122480Y0097950D01*
X0122427Y0098094D01*
X0122378Y0098240D01*
X0122333Y0098386D01*
X0122292Y0098534D01*
X0122255Y0098682D01*
X0122221Y0098832D01*
X0122191Y0098983D01*
X0122166Y0099134D01*
X0122144Y0099285D01*
X0122126Y0099438D01*
X0122112Y0099590D01*
X0122102Y0099743D01*
X0122096Y0099897D01*
X0122094Y0100050D01*
X0139000Y0134550D02*
X0139000Y0139550D01*
X0141500Y0139550D01*
X0141500Y0144550D01*
X0136500Y0147050D01*
X0133000Y0144550D01*
X0140500Y0151550D02*
X0144000Y0155050D01*
X0147000Y0155050D01*
X0145500Y0156550D01*
X0149500Y0160550D01*
X0147500Y0162550D02*
X0143500Y0158550D01*
X0142000Y0160050D01*
X0142000Y0157050D01*
X0138500Y0153550D01*
X0136900Y0157050D02*
X0136902Y0157224D01*
X0136909Y0157398D01*
X0136919Y0157572D01*
X0136934Y0157746D01*
X0136953Y0157919D01*
X0136977Y0158092D01*
X0137005Y0158264D01*
X0137036Y0158435D01*
X0137073Y0158606D01*
X0137113Y0158775D01*
X0137157Y0158944D01*
X0137206Y0159111D01*
X0137258Y0159277D01*
X0137315Y0159442D01*
X0137376Y0159605D01*
X0137440Y0159767D01*
X0137509Y0159927D01*
X0137582Y0160086D01*
X0137658Y0160242D01*
X0137738Y0160397D01*
X0137822Y0160550D01*
X0137910Y0160700D01*
X0138002Y0160848D01*
X0138097Y0160995D01*
X0138195Y0161138D01*
X0138297Y0161279D01*
X0138403Y0161418D01*
X0138512Y0161554D01*
X0138624Y0161688D01*
X0138739Y0161818D01*
X0138858Y0161946D01*
X0138980Y0162070D01*
X0139104Y0162192D01*
X0139232Y0162311D01*
X0139362Y0162426D01*
X0139496Y0162538D01*
X0139632Y0162647D01*
X0139771Y0162753D01*
X0139912Y0162855D01*
X0140055Y0162953D01*
X0140202Y0163048D01*
X0140350Y0163140D01*
X0140500Y0163228D01*
X0140653Y0163312D01*
X0140808Y0163392D01*
X0140964Y0163468D01*
X0141123Y0163541D01*
X0141283Y0163610D01*
X0141445Y0163674D01*
X0141608Y0163735D01*
X0141773Y0163792D01*
X0141939Y0163844D01*
X0142106Y0163893D01*
X0142275Y0163937D01*
X0142444Y0163977D01*
X0142615Y0164014D01*
X0142786Y0164045D01*
X0142958Y0164073D01*
X0143131Y0164097D01*
X0143304Y0164116D01*
X0143478Y0164131D01*
X0143652Y0164141D01*
X0143826Y0164148D01*
X0144000Y0164150D01*
X0144174Y0164148D01*
X0144348Y0164141D01*
X0144522Y0164131D01*
X0144696Y0164116D01*
X0144869Y0164097D01*
X0145042Y0164073D01*
X0145214Y0164045D01*
X0145385Y0164014D01*
X0145556Y0163977D01*
X0145725Y0163937D01*
X0145894Y0163893D01*
X0146061Y0163844D01*
X0146227Y0163792D01*
X0146392Y0163735D01*
X0146555Y0163674D01*
X0146717Y0163610D01*
X0146877Y0163541D01*
X0147036Y0163468D01*
X0147192Y0163392D01*
X0147347Y0163312D01*
X0147500Y0163228D01*
X0147650Y0163140D01*
X0147798Y0163048D01*
X0147945Y0162953D01*
X0148088Y0162855D01*
X0148229Y0162753D01*
X0148368Y0162647D01*
X0148504Y0162538D01*
X0148638Y0162426D01*
X0148768Y0162311D01*
X0148896Y0162192D01*
X0149020Y0162070D01*
X0149142Y0161946D01*
X0149261Y0161818D01*
X0149376Y0161688D01*
X0149488Y0161554D01*
X0149597Y0161418D01*
X0149703Y0161279D01*
X0149805Y0161138D01*
X0149903Y0160995D01*
X0149998Y0160848D01*
X0150090Y0160700D01*
X0150178Y0160550D01*
X0150262Y0160397D01*
X0150342Y0160242D01*
X0150418Y0160086D01*
X0150491Y0159927D01*
X0150560Y0159767D01*
X0150624Y0159605D01*
X0150685Y0159442D01*
X0150742Y0159277D01*
X0150794Y0159111D01*
X0150843Y0158944D01*
X0150887Y0158775D01*
X0150927Y0158606D01*
X0150964Y0158435D01*
X0150995Y0158264D01*
X0151023Y0158092D01*
X0151047Y0157919D01*
X0151066Y0157746D01*
X0151081Y0157572D01*
X0151091Y0157398D01*
X0151098Y0157224D01*
X0151100Y0157050D01*
X0151098Y0156876D01*
X0151091Y0156702D01*
X0151081Y0156528D01*
X0151066Y0156354D01*
X0151047Y0156181D01*
X0151023Y0156008D01*
X0150995Y0155836D01*
X0150964Y0155665D01*
X0150927Y0155494D01*
X0150887Y0155325D01*
X0150843Y0155156D01*
X0150794Y0154989D01*
X0150742Y0154823D01*
X0150685Y0154658D01*
X0150624Y0154495D01*
X0150560Y0154333D01*
X0150491Y0154173D01*
X0150418Y0154014D01*
X0150342Y0153858D01*
X0150262Y0153703D01*
X0150178Y0153550D01*
X0150090Y0153400D01*
X0149998Y0153252D01*
X0149903Y0153105D01*
X0149805Y0152962D01*
X0149703Y0152821D01*
X0149597Y0152682D01*
X0149488Y0152546D01*
X0149376Y0152412D01*
X0149261Y0152282D01*
X0149142Y0152154D01*
X0149020Y0152030D01*
X0148896Y0151908D01*
X0148768Y0151789D01*
X0148638Y0151674D01*
X0148504Y0151562D01*
X0148368Y0151453D01*
X0148229Y0151347D01*
X0148088Y0151245D01*
X0147945Y0151147D01*
X0147798Y0151052D01*
X0147650Y0150960D01*
X0147500Y0150872D01*
X0147347Y0150788D01*
X0147192Y0150708D01*
X0147036Y0150632D01*
X0146877Y0150559D01*
X0146717Y0150490D01*
X0146555Y0150426D01*
X0146392Y0150365D01*
X0146227Y0150308D01*
X0146061Y0150256D01*
X0145894Y0150207D01*
X0145725Y0150163D01*
X0145556Y0150123D01*
X0145385Y0150086D01*
X0145214Y0150055D01*
X0145042Y0150027D01*
X0144869Y0150003D01*
X0144696Y0149984D01*
X0144522Y0149969D01*
X0144348Y0149959D01*
X0144174Y0149952D01*
X0144000Y0149950D01*
X0143826Y0149952D01*
X0143652Y0149959D01*
X0143478Y0149969D01*
X0143304Y0149984D01*
X0143131Y0150003D01*
X0142958Y0150027D01*
X0142786Y0150055D01*
X0142615Y0150086D01*
X0142444Y0150123D01*
X0142275Y0150163D01*
X0142106Y0150207D01*
X0141939Y0150256D01*
X0141773Y0150308D01*
X0141608Y0150365D01*
X0141445Y0150426D01*
X0141283Y0150490D01*
X0141123Y0150559D01*
X0140964Y0150632D01*
X0140808Y0150708D01*
X0140653Y0150788D01*
X0140500Y0150872D01*
X0140350Y0150960D01*
X0140202Y0151052D01*
X0140055Y0151147D01*
X0139912Y0151245D01*
X0139771Y0151347D01*
X0139632Y0151453D01*
X0139496Y0151562D01*
X0139362Y0151674D01*
X0139232Y0151789D01*
X0139104Y0151908D01*
X0138980Y0152030D01*
X0138858Y0152154D01*
X0138739Y0152282D01*
X0138624Y0152412D01*
X0138512Y0152546D01*
X0138403Y0152682D01*
X0138297Y0152821D01*
X0138195Y0152962D01*
X0138097Y0153105D01*
X0138002Y0153252D01*
X0137910Y0153400D01*
X0137822Y0153550D01*
X0137738Y0153703D01*
X0137658Y0153858D01*
X0137582Y0154014D01*
X0137509Y0154173D01*
X0137440Y0154333D01*
X0137376Y0154495D01*
X0137315Y0154658D01*
X0137258Y0154823D01*
X0137206Y0154989D01*
X0137157Y0155156D01*
X0137113Y0155325D01*
X0137073Y0155494D01*
X0137036Y0155665D01*
X0137005Y0155836D01*
X0136977Y0156008D01*
X0136953Y0156181D01*
X0136934Y0156354D01*
X0136919Y0156528D01*
X0136909Y0156702D01*
X0136902Y0156876D01*
X0136900Y0157050D01*
X0131500Y0141050D02*
X0131075Y0141361D01*
X0130658Y0141683D01*
X0130250Y0142014D01*
X0129849Y0142356D01*
X0129457Y0142707D01*
X0129073Y0143068D01*
X0128699Y0143438D01*
X0128334Y0143817D01*
X0127978Y0144205D01*
X0127631Y0144601D01*
X0127295Y0145006D01*
X0126968Y0145419D01*
X0126652Y0145840D01*
X0126346Y0146268D01*
X0126051Y0146704D01*
X0125766Y0147147D01*
X0125493Y0147596D01*
X0125230Y0148053D01*
X0124979Y0148515D01*
X0124739Y0148984D01*
X0124510Y0149458D01*
X0124294Y0149938D01*
X0124089Y0150423D01*
X0123896Y0150913D01*
X0123715Y0151407D01*
X0123546Y0151906D01*
X0123390Y0152408D01*
X0123245Y0152915D01*
X0123114Y0153424D01*
X0122995Y0153937D01*
X0122888Y0154453D01*
X0122794Y0154971D01*
X0122713Y0155491D01*
X0122644Y0156013D01*
X0122588Y0156536D01*
X0122546Y0157061D01*
X0122516Y0157586D01*
X0122498Y0158113D01*
X0122494Y0158639D01*
X0122503Y0159165D01*
X0122524Y0159691D01*
X0122559Y0160217D01*
X0122606Y0160741D01*
X0122666Y0161264D01*
X0122739Y0161785D01*
X0122824Y0162305D01*
X0122923Y0162822D01*
X0123033Y0163337D01*
X0123157Y0163848D01*
X0123293Y0164357D01*
X0123441Y0164862D01*
X0123602Y0165363D01*
X0123775Y0165861D01*
X0123960Y0166353D01*
X0124157Y0166842D01*
X0124366Y0167325D01*
X0124586Y0167803D01*
X0124819Y0168275D01*
X0125062Y0168742D01*
X0125317Y0169202D01*
X0125584Y0169656D01*
X0125861Y0170104D01*
X0126149Y0170544D01*
X0126448Y0170978D01*
X0126758Y0171403D01*
X0127078Y0171822D01*
X0127407Y0172232D01*
X0127747Y0172634D01*
X0128097Y0173028D01*
X0128456Y0173412D01*
X0128824Y0173788D01*
X0129202Y0174155D01*
X0129588Y0174513D01*
X0129983Y0174861D01*
X0130387Y0175199D01*
X0130798Y0175527D01*
X0131218Y0175845D01*
X0131645Y0176153D01*
X0132080Y0176450D01*
X0132521Y0176737D01*
X0132970Y0177012D01*
X0133425Y0177276D01*
X0133887Y0177530D01*
X0134354Y0177772D01*
X0134828Y0178002D01*
X0135306Y0178221D01*
X0135791Y0178427D01*
X0136280Y0178622D01*
X0136773Y0178805D01*
X0137271Y0178976D01*
X0137773Y0179135D01*
X0138279Y0179281D01*
X0138788Y0179415D01*
X0139300Y0179536D01*
X0139815Y0179645D01*
X0140333Y0179741D01*
X0140853Y0179824D01*
X0141374Y0179895D01*
X0141898Y0179953D01*
X0142422Y0179998D01*
X0142948Y0180030D01*
X0143474Y0180050D01*
X0144000Y0180056D01*
X0144526Y0180050D01*
X0145052Y0180030D01*
X0145578Y0179998D01*
X0146102Y0179953D01*
X0146626Y0179895D01*
X0147147Y0179824D01*
X0147667Y0179741D01*
X0148185Y0179645D01*
X0148700Y0179536D01*
X0149212Y0179415D01*
X0149721Y0179281D01*
X0150227Y0179135D01*
X0150729Y0178976D01*
X0151227Y0178805D01*
X0151720Y0178622D01*
X0152209Y0178427D01*
X0152694Y0178221D01*
X0153172Y0178002D01*
X0153646Y0177772D01*
X0154113Y0177530D01*
X0154575Y0177276D01*
X0155030Y0177012D01*
X0155479Y0176737D01*
X0155920Y0176450D01*
X0156355Y0176153D01*
X0156782Y0175845D01*
X0157202Y0175527D01*
X0157613Y0175199D01*
X0158017Y0174861D01*
X0158412Y0174513D01*
X0158798Y0174155D01*
X0159176Y0173788D01*
X0159544Y0173412D01*
X0159903Y0173028D01*
X0160253Y0172634D01*
X0160593Y0172232D01*
X0160922Y0171822D01*
X0161242Y0171403D01*
X0161552Y0170978D01*
X0161851Y0170544D01*
X0162139Y0170104D01*
X0162416Y0169656D01*
X0162683Y0169202D01*
X0162938Y0168742D01*
X0163181Y0168275D01*
X0163414Y0167803D01*
X0163634Y0167325D01*
X0163843Y0166842D01*
X0164040Y0166353D01*
X0164225Y0165861D01*
X0164398Y0165363D01*
X0164559Y0164862D01*
X0164707Y0164357D01*
X0164843Y0163848D01*
X0164967Y0163337D01*
X0165077Y0162822D01*
X0165176Y0162305D01*
X0165261Y0161785D01*
X0165334Y0161264D01*
X0165394Y0160741D01*
X0165441Y0160217D01*
X0165476Y0159691D01*
X0165497Y0159165D01*
X0165506Y0158639D01*
X0165502Y0158113D01*
X0165484Y0157586D01*
X0165454Y0157061D01*
X0165412Y0156536D01*
X0165356Y0156013D01*
X0165287Y0155491D01*
X0165206Y0154971D01*
X0165112Y0154453D01*
X0165005Y0153937D01*
X0164886Y0153424D01*
X0164755Y0152915D01*
X0164610Y0152408D01*
X0164454Y0151906D01*
X0164285Y0151407D01*
X0164104Y0150913D01*
X0163911Y0150423D01*
X0163706Y0149938D01*
X0163490Y0149458D01*
X0163261Y0148984D01*
X0163021Y0148515D01*
X0162770Y0148053D01*
X0162507Y0147596D01*
X0162234Y0147147D01*
X0161949Y0146704D01*
X0161654Y0146268D01*
X0161348Y0145840D01*
X0161032Y0145419D01*
X0160705Y0145006D01*
X0160369Y0144601D01*
X0160022Y0144205D01*
X0159666Y0143817D01*
X0159301Y0143438D01*
X0158927Y0143068D01*
X0158543Y0142707D01*
X0158151Y0142356D01*
X0157750Y0142014D01*
X0157342Y0141683D01*
X0156925Y0141361D01*
X0156500Y0141050D01*
X0155000Y0144550D02*
X0151500Y0147050D01*
X0146500Y0144550D01*
X0146500Y0139550D01*
X0149000Y0139550D01*
X0149000Y0134550D01*
X0180434Y0153940D02*
X0196926Y0153940D01*
X0197553Y0159440D02*
X0199132Y0159440D01*
X0202931Y0163190D02*
X0202931Y0167694D01*
X0201430Y0167694D02*
X0204433Y0167694D01*
X0206034Y0166193D02*
X0207535Y0167694D01*
X0207535Y0163190D01*
X0206034Y0163190D02*
X0209036Y0163190D01*
X0189807Y0159440D02*
X0187553Y0159440D01*
X0180434Y0153940D02*
X0180281Y0154139D01*
X0180133Y0154341D01*
X0179990Y0154546D01*
X0179852Y0154755D01*
X0179719Y0154967D01*
X0179591Y0155182D01*
X0179469Y0155400D01*
X0179351Y0155621D01*
X0179239Y0155845D01*
X0179132Y0156071D01*
X0179031Y0156300D01*
X0178935Y0156531D01*
X0178844Y0156765D01*
X0178759Y0157000D01*
X0178680Y0157238D01*
X0178607Y0157477D01*
X0178539Y0157718D01*
X0178477Y0157960D01*
X0178421Y0158204D01*
X0178370Y0158450D01*
X0178326Y0158696D01*
X0178287Y0158943D01*
X0178255Y0159191D01*
X0178228Y0159440D01*
X0179807Y0159440D01*
X0178228Y0159440D02*
X0178206Y0159695D01*
X0178191Y0159951D01*
X0178183Y0160207D01*
X0178180Y0160464D01*
X0178184Y0160720D01*
X0178194Y0160976D01*
X0178210Y0161232D01*
X0178232Y0161487D01*
X0178261Y0161742D01*
X0178296Y0161996D01*
X0178337Y0162249D01*
X0178384Y0162501D01*
X0178438Y0162751D01*
X0178497Y0163000D01*
X0178563Y0163248D01*
X0178634Y0163494D01*
X0178712Y0163739D01*
X0178795Y0163981D01*
X0178884Y0164221D01*
X0178980Y0164459D01*
X0179081Y0164695D01*
X0179187Y0164928D01*
X0179300Y0165158D01*
X0179418Y0165386D01*
X0179541Y0165610D01*
X0179670Y0165832D01*
X0179804Y0166050D01*
X0179944Y0166265D01*
X0180089Y0166476D01*
X0180239Y0166684D01*
X0180393Y0166888D01*
X0180553Y0167089D01*
X0180718Y0167285D01*
X0180887Y0167477D01*
X0181062Y0167666D01*
X0181240Y0167849D01*
X0181423Y0168029D01*
X0181611Y0168204D01*
X0181802Y0168374D01*
X0181998Y0168539D01*
X0182198Y0168700D01*
X0182401Y0168856D01*
X0182608Y0169006D01*
X0182819Y0169152D01*
X0183034Y0169293D01*
X0183251Y0169428D01*
X0183472Y0169558D01*
X0183696Y0169682D01*
X0183923Y0169801D01*
X0184153Y0169914D01*
X0184386Y0170022D01*
X0184621Y0170124D01*
X0184859Y0170220D01*
X0185098Y0170310D01*
X0185340Y0170395D01*
X0185584Y0170473D01*
X0191776Y0170473D02*
X0192018Y0170395D01*
X0192258Y0170311D01*
X0192496Y0170222D01*
X0192732Y0170127D01*
X0192966Y0170025D01*
X0193197Y0169919D01*
X0193425Y0169806D01*
X0193651Y0169689D01*
X0193874Y0169566D01*
X0194093Y0169437D01*
X0194310Y0169303D01*
X0194523Y0169164D01*
X0194733Y0169020D01*
X0194939Y0168871D01*
X0195141Y0168717D01*
X0195340Y0168558D01*
X0195535Y0168394D01*
X0195726Y0168225D01*
X0195912Y0168052D01*
X0196095Y0167875D01*
X0196273Y0167693D01*
X0196446Y0167507D01*
X0196615Y0167316D01*
X0196779Y0167122D01*
X0196939Y0166924D01*
X0197094Y0166722D01*
X0197243Y0166516D01*
X0197388Y0166307D01*
X0197528Y0166094D01*
X0197662Y0165878D01*
X0197791Y0165658D01*
X0197915Y0165436D01*
X0198034Y0165211D01*
X0198146Y0164983D01*
X0198254Y0164752D01*
X0198355Y0164519D01*
X0198451Y0164283D01*
X0198542Y0164045D01*
X0198626Y0163805D01*
X0198705Y0163563D01*
X0198778Y0163319D01*
X0198844Y0163073D01*
X0198905Y0162826D01*
X0198960Y0162578D01*
X0199009Y0162328D01*
X0199052Y0162077D01*
X0199088Y0161825D01*
X0199119Y0161573D01*
X0199143Y0161319D01*
X0199161Y0161066D01*
X0199173Y0160811D01*
X0199179Y0160557D01*
X0199179Y0160302D01*
X0199173Y0160048D01*
X0199160Y0159794D01*
X0199141Y0159540D01*
X0199116Y0159287D01*
X0199085Y0159034D01*
X0199048Y0158782D01*
X0199005Y0158532D01*
X0198956Y0158282D01*
X0198900Y0158033D01*
X0198839Y0157786D01*
X0198772Y0157541D01*
X0198699Y0157297D01*
X0198620Y0157055D01*
X0198535Y0156816D01*
X0198444Y0156578D01*
X0198347Y0156342D01*
X0198245Y0156109D01*
X0198137Y0155879D01*
X0198024Y0155651D01*
X0197905Y0155426D01*
X0197781Y0155204D01*
X0197651Y0154985D01*
X0197517Y0154769D01*
X0197377Y0154556D01*
X0197231Y0154347D01*
X0197081Y0154142D01*
X0196926Y0153940D01*
X0139356Y0183051D02*
X0138606Y0182300D01*
X0137105Y0182300D01*
X0136354Y0183051D01*
X0136354Y0183801D01*
X0137105Y0184552D01*
X0138606Y0184552D01*
X0139356Y0183801D01*
X0139356Y0183051D01*
X0138606Y0184552D02*
X0139356Y0185303D01*
X0139356Y0186053D01*
X0138606Y0186804D01*
X0137105Y0186804D01*
X0136354Y0186053D01*
X0136354Y0185303D01*
X0137105Y0184552D01*
X0134753Y0184552D02*
X0134002Y0183801D01*
X0131750Y0183801D01*
X0131750Y0182300D02*
X0131750Y0186804D01*
X0134002Y0186804D01*
X0134753Y0186053D01*
X0134753Y0184552D01*
X0133251Y0183801D02*
X0134753Y0182300D01*
X0092120Y0295990D02*
X0091486Y0296624D01*
X0091803Y0296624D02*
X0090853Y0296624D01*
X0090853Y0295990D02*
X0090853Y0297892D01*
X0091803Y0297892D01*
X0092120Y0297575D01*
X0092120Y0296941D01*
X0091803Y0296624D01*
X0089910Y0295990D02*
X0088643Y0295990D01*
X0088643Y0297892D01*
X0089910Y0297892D01*
X0089277Y0296941D02*
X0088643Y0296941D01*
X0087701Y0297575D02*
X0087384Y0297892D01*
X0086433Y0297892D01*
X0086433Y0295990D01*
X0087384Y0295990D01*
X0087701Y0296307D01*
X0087701Y0297575D01*
X0085491Y0297258D02*
X0085491Y0295990D01*
X0085491Y0296941D02*
X0084223Y0296941D01*
X0084223Y0297258D02*
X0084857Y0297892D01*
X0085491Y0297258D01*
X0084223Y0297258D02*
X0084223Y0295990D01*
X0083281Y0295990D02*
X0082013Y0295990D01*
X0082013Y0297892D01*
X0083281Y0297892D01*
X0082647Y0296941D02*
X0082013Y0296941D01*
X0081071Y0296941D02*
X0079803Y0296941D01*
X0079803Y0295990D02*
X0079803Y0297892D01*
X0078964Y0297892D02*
X0078330Y0297892D01*
X0078647Y0297892D02*
X0078647Y0295990D01*
X0078330Y0295990D02*
X0078964Y0295990D01*
X0077388Y0296941D02*
X0077071Y0296624D01*
X0076120Y0296624D01*
X0076120Y0295990D02*
X0076120Y0297892D01*
X0077071Y0297892D01*
X0077388Y0297575D01*
X0077388Y0296941D01*
X0081071Y0297892D02*
X0081071Y0295990D01*
X0149250Y0347300D02*
X0150518Y0347300D01*
X0151460Y0347617D02*
X0151777Y0347300D01*
X0152411Y0347300D01*
X0152728Y0347617D01*
X0153670Y0347300D02*
X0153670Y0349202D01*
X0154621Y0349202D01*
X0154938Y0348885D01*
X0154938Y0347617D01*
X0154621Y0347300D01*
X0153670Y0347300D01*
X0152728Y0348885D02*
X0152411Y0349202D01*
X0151777Y0349202D01*
X0151460Y0348885D01*
X0151460Y0347617D01*
X0149250Y0347300D02*
X0149250Y0349202D01*
X0155880Y0348568D02*
X0156514Y0349202D01*
X0156514Y0347300D01*
X0157147Y0347300D02*
X0155880Y0347300D01*
D18*
X0449234Y0161450D02*
X0449784Y0160900D01*
X0450335Y0160900D01*
X0450885Y0161450D01*
X0450885Y0164203D01*
X0450335Y0164203D02*
X0451436Y0164203D01*
X0452917Y0163102D02*
X0454018Y0164203D01*
X0454018Y0160900D01*
X0452917Y0160900D02*
X0455119Y0160900D01*
D19*
X0350362Y0189641D03*
X0345638Y0189641D03*
D20*
X0348000Y0189641D03*
X0396409Y0102050D03*
D21*
X0396409Y0099688D03*
X0396409Y0104412D03*
D22*
X0335095Y0119137D02*
X0332627Y0119137D01*
X0333861Y0119137D02*
X0333861Y0122840D01*
X0332627Y0121606D01*
X0331412Y0122223D02*
X0330795Y0122840D01*
X0329561Y0122840D01*
X0328943Y0122223D01*
X0328943Y0119754D01*
X0329561Y0119137D01*
X0330795Y0119137D01*
X0331412Y0119754D01*
X0327729Y0120989D02*
X0327729Y0122223D01*
X0327112Y0122840D01*
X0325260Y0122840D01*
X0325260Y0119137D01*
X0325260Y0120371D02*
X0327112Y0120371D01*
X0327729Y0120989D01*
X0284913Y0146310D02*
X0281210Y0146310D01*
X0281210Y0148162D01*
X0281827Y0148779D01*
X0283061Y0148779D01*
X0283679Y0148162D01*
X0283679Y0146310D01*
X0284296Y0149993D02*
X0284913Y0150611D01*
X0284913Y0151845D01*
X0284296Y0152462D01*
X0284913Y0153677D02*
X0282444Y0156145D01*
X0281827Y0156145D01*
X0281210Y0155528D01*
X0281210Y0154294D01*
X0281827Y0153677D01*
X0281827Y0152462D02*
X0281210Y0151845D01*
X0281210Y0150611D01*
X0281827Y0149993D01*
X0284296Y0149993D01*
X0284913Y0153677D02*
X0284913Y0156145D01*
D23*
X0133000Y0157050D02*
X0133003Y0157320D01*
X0133013Y0157590D01*
X0133030Y0157859D01*
X0133053Y0158128D01*
X0133083Y0158397D01*
X0133119Y0158664D01*
X0133162Y0158931D01*
X0133211Y0159196D01*
X0133267Y0159460D01*
X0133330Y0159723D01*
X0133398Y0159984D01*
X0133474Y0160243D01*
X0133555Y0160500D01*
X0133643Y0160756D01*
X0133737Y0161009D01*
X0133837Y0161260D01*
X0133944Y0161508D01*
X0134056Y0161753D01*
X0134175Y0161996D01*
X0134299Y0162235D01*
X0134429Y0162472D01*
X0134565Y0162705D01*
X0134707Y0162935D01*
X0134854Y0163161D01*
X0135007Y0163384D01*
X0135165Y0163603D01*
X0135328Y0163818D01*
X0135497Y0164028D01*
X0135671Y0164235D01*
X0135850Y0164437D01*
X0136033Y0164635D01*
X0136222Y0164828D01*
X0136415Y0165017D01*
X0136613Y0165200D01*
X0136815Y0165379D01*
X0137022Y0165553D01*
X0137232Y0165722D01*
X0137447Y0165885D01*
X0137666Y0166043D01*
X0137889Y0166196D01*
X0138115Y0166343D01*
X0138345Y0166485D01*
X0138578Y0166621D01*
X0138815Y0166751D01*
X0139054Y0166875D01*
X0139297Y0166994D01*
X0139542Y0167106D01*
X0139790Y0167213D01*
X0140041Y0167313D01*
X0140294Y0167407D01*
X0140550Y0167495D01*
X0140807Y0167576D01*
X0141066Y0167652D01*
X0141327Y0167720D01*
X0141590Y0167783D01*
X0141854Y0167839D01*
X0142119Y0167888D01*
X0142386Y0167931D01*
X0142653Y0167967D01*
X0142922Y0167997D01*
X0143191Y0168020D01*
X0143460Y0168037D01*
X0143730Y0168047D01*
X0144000Y0168050D01*
X0144270Y0168047D01*
X0144540Y0168037D01*
X0144809Y0168020D01*
X0145078Y0167997D01*
X0145347Y0167967D01*
X0145614Y0167931D01*
X0145881Y0167888D01*
X0146146Y0167839D01*
X0146410Y0167783D01*
X0146673Y0167720D01*
X0146934Y0167652D01*
X0147193Y0167576D01*
X0147450Y0167495D01*
X0147706Y0167407D01*
X0147959Y0167313D01*
X0148210Y0167213D01*
X0148458Y0167106D01*
X0148703Y0166994D01*
X0148946Y0166875D01*
X0149185Y0166751D01*
X0149422Y0166621D01*
X0149655Y0166485D01*
X0149885Y0166343D01*
X0150111Y0166196D01*
X0150334Y0166043D01*
X0150553Y0165885D01*
X0150768Y0165722D01*
X0150978Y0165553D01*
X0151185Y0165379D01*
X0151387Y0165200D01*
X0151585Y0165017D01*
X0151778Y0164828D01*
X0151967Y0164635D01*
X0152150Y0164437D01*
X0152329Y0164235D01*
X0152503Y0164028D01*
X0152672Y0163818D01*
X0152835Y0163603D01*
X0152993Y0163384D01*
X0153146Y0163161D01*
X0153293Y0162935D01*
X0153435Y0162705D01*
X0153571Y0162472D01*
X0153701Y0162235D01*
X0153825Y0161996D01*
X0153944Y0161753D01*
X0154056Y0161508D01*
X0154163Y0161260D01*
X0154263Y0161009D01*
X0154357Y0160756D01*
X0154445Y0160500D01*
X0154526Y0160243D01*
X0154602Y0159984D01*
X0154670Y0159723D01*
X0154733Y0159460D01*
X0154789Y0159196D01*
X0154838Y0158931D01*
X0154881Y0158664D01*
X0154917Y0158397D01*
X0154947Y0158128D01*
X0154970Y0157859D01*
X0154987Y0157590D01*
X0154997Y0157320D01*
X0155000Y0157050D01*
X0154997Y0156780D01*
X0154987Y0156510D01*
X0154970Y0156241D01*
X0154947Y0155972D01*
X0154917Y0155703D01*
X0154881Y0155436D01*
X0154838Y0155169D01*
X0154789Y0154904D01*
X0154733Y0154640D01*
X0154670Y0154377D01*
X0154602Y0154116D01*
X0154526Y0153857D01*
X0154445Y0153600D01*
X0154357Y0153344D01*
X0154263Y0153091D01*
X0154163Y0152840D01*
X0154056Y0152592D01*
X0153944Y0152347D01*
X0153825Y0152104D01*
X0153701Y0151865D01*
X0153571Y0151628D01*
X0153435Y0151395D01*
X0153293Y0151165D01*
X0153146Y0150939D01*
X0152993Y0150716D01*
X0152835Y0150497D01*
X0152672Y0150282D01*
X0152503Y0150072D01*
X0152329Y0149865D01*
X0152150Y0149663D01*
X0151967Y0149465D01*
X0151778Y0149272D01*
X0151585Y0149083D01*
X0151387Y0148900D01*
X0151185Y0148721D01*
X0150978Y0148547D01*
X0150768Y0148378D01*
X0150553Y0148215D01*
X0150334Y0148057D01*
X0150111Y0147904D01*
X0149885Y0147757D01*
X0149655Y0147615D01*
X0149422Y0147479D01*
X0149185Y0147349D01*
X0148946Y0147225D01*
X0148703Y0147106D01*
X0148458Y0146994D01*
X0148210Y0146887D01*
X0147959Y0146787D01*
X0147706Y0146693D01*
X0147450Y0146605D01*
X0147193Y0146524D01*
X0146934Y0146448D01*
X0146673Y0146380D01*
X0146410Y0146317D01*
X0146146Y0146261D01*
X0145881Y0146212D01*
X0145614Y0146169D01*
X0145347Y0146133D01*
X0145078Y0146103D01*
X0144809Y0146080D01*
X0144540Y0146063D01*
X0144270Y0146053D01*
X0144000Y0146050D01*
X0143730Y0146053D01*
X0143460Y0146063D01*
X0143191Y0146080D01*
X0142922Y0146103D01*
X0142653Y0146133D01*
X0142386Y0146169D01*
X0142119Y0146212D01*
X0141854Y0146261D01*
X0141590Y0146317D01*
X0141327Y0146380D01*
X0141066Y0146448D01*
X0140807Y0146524D01*
X0140550Y0146605D01*
X0140294Y0146693D01*
X0140041Y0146787D01*
X0139790Y0146887D01*
X0139542Y0146994D01*
X0139297Y0147106D01*
X0139054Y0147225D01*
X0138815Y0147349D01*
X0138578Y0147479D01*
X0138345Y0147615D01*
X0138115Y0147757D01*
X0137889Y0147904D01*
X0137666Y0148057D01*
X0137447Y0148215D01*
X0137232Y0148378D01*
X0137022Y0148547D01*
X0136815Y0148721D01*
X0136613Y0148900D01*
X0136415Y0149083D01*
X0136222Y0149272D01*
X0136033Y0149465D01*
X0135850Y0149663D01*
X0135671Y0149865D01*
X0135497Y0150072D01*
X0135328Y0150282D01*
X0135165Y0150497D01*
X0135007Y0150716D01*
X0134854Y0150939D01*
X0134707Y0151165D01*
X0134565Y0151395D01*
X0134429Y0151628D01*
X0134299Y0151865D01*
X0134175Y0152104D01*
X0134056Y0152347D01*
X0133944Y0152592D01*
X0133837Y0152840D01*
X0133737Y0153091D01*
X0133643Y0153344D01*
X0133555Y0153600D01*
X0133474Y0153857D01*
X0133398Y0154116D01*
X0133330Y0154377D01*
X0133267Y0154640D01*
X0133211Y0154904D01*
X0133162Y0155169D01*
X0133119Y0155436D01*
X0133083Y0155703D01*
X0133053Y0155972D01*
X0133030Y0156241D01*
X0133013Y0156510D01*
X0133003Y0156780D01*
X0133000Y0157050D01*
D24*
X0360701Y0229900D02*
X0360701Y0236200D01*
X0373299Y0236200D02*
X0373299Y0229900D01*
D25*
X0371903Y0227686D02*
X0371903Y0226385D01*
X0371470Y0226385D02*
X0372337Y0226385D01*
X0371470Y0227252D02*
X0371903Y0227686D01*
X0371048Y0227686D02*
X0371048Y0227469D01*
X0370614Y0227036D01*
X0370614Y0226385D01*
X0370614Y0227036D02*
X0370180Y0227469D01*
X0370180Y0227686D01*
M02*
