%
M48
M72
T01C0.01378
T02C0.02600
T03C0.03200
T04C0.03346
T05C0.03400
T06C0.04000
T07C0.09100
T08C0.11024
T09C0.20000
%
T01
X175050Y207070
X180440Y216110
X185900Y210900
X190560Y215860
X175160Y223660
X158320Y234520
X186770Y242500
X216910Y223970
X271130Y227140
X314760Y241730
X338300Y237700
X343500Y242900
X329120Y263630
X314300Y266900
X307500Y279700
X339900Y279720
X362280Y284790
X320970Y308630
X313850Y315750
X270700Y291700
X261840Y282960
X244700Y279700
X270920Y262790
X260300Y306100
X424520Y191730
X439500Y293300
T02
X378300Y248100
X303560Y252170
X286280Y252270
X285900Y239700
X257510Y202810
X239950Y185240
X295900Y170500
X209670Y231790
X190350Y251460
X391500Y162900
T03
X447910Y159820
X447910Y169820
X447910Y179820
X447910Y189820
X447910Y199820
X447910Y209820
X447910Y219820
X447910Y229820
X447910Y239820
X447910Y249820
X447910Y149820
X447910Y139820
X447910Y129820
X447910Y119820
X447910Y109820
X447910Y99820
X447910Y89820
X447910Y79820
X224930Y183300
X219930Y190800
X214930Y183300
T04
X123780Y59961
X108820Y59961
X448480Y268780
X448480Y278780
X448480Y288780
X448480Y298780
X448480Y308780
X448480Y318780
X448480Y328780
X448480Y338780
T05
X305690Y309990
X291639Y288959
X279830Y202930
X125720Y69450
T06
X61950Y67220
X61950Y77220
X71950Y77220
X71950Y67220
X71950Y87220
X61950Y87220
X61950Y97220
X61950Y107220
X71950Y107220
X71950Y97220
X71950Y117220
X71950Y127220
X61950Y127220
X61950Y117220
X61950Y137220
X61950Y147220
X71950Y147220
X71950Y137220
X71950Y157220
X61950Y157220
X61950Y167220
X61950Y177220
X71950Y177220
X71950Y167220
X71950Y187220
X71950Y197220
X61950Y197220
X61950Y187220
X61950Y207220
X71950Y207220
X71950Y217220
X71950Y227220
X61950Y227220
X61950Y217220
X61950Y237220
X61950Y247220
X71950Y247220
X71950Y237220
X71950Y257220
X61950Y257220
X135316Y332324
X145316Y332324
X155316Y332324
X165316Y332324
X175316Y332324
X185316Y332324
X195316Y332324
X205316Y332324
X215316Y332324
X225316Y332324
X235316Y332324
X245316Y332324
X255316Y332324
X265316Y332324
X275316Y332324
X285316Y332324
X280990Y190410
X270990Y190410
X260990Y190410
X260990Y180410
X270990Y180410
X280990Y180410
X171300Y146300
X151300Y146300
X161300Y186300
X221300Y61300
X231300Y61300
X241300Y61300
T07
X325450Y63111
X377150Y63111
T08
X408938Y210276
X408938Y332324
X113662Y332324
X113662Y210276
T09
X52300Y333300
X299300Y57300
X468300Y57300
X468300Y333300
M30
